<svg xmlns="http://www.w3.org/2000/svg" width="810" viewBox="0 0 810 810" height="810" version="1.0"><defs><clipPath id="a"><path d="M 274.777344 112.859375 L 535.777344 112.859375 L 535.777344 373.859375 L 274.777344 373.859375 Z M 274.777344 112.859375"/></clipPath><clipPath id="b"><path d="M 238 333 L 312.96875 333 L 312.96875 411 L 238 411 Z M 238 333"/></clipPath><clipPath id="c"><path d="M 236.46875 333 L 312 333 L 312 409 L 236.46875 409 Z M 236.46875 333"/></clipPath><clipPath id="d"><path d="M 409.046875 372.804688 L 483.296875 372.804688 L 483.296875 447.054688 L 409.046875 447.054688 Z M 409.046875 372.804688"/></clipPath><clipPath id="e"><path d="M 497.640625 332.226562 L 573.390625 332.226562 L 573.390625 407.976562 L 497.640625 407.976562 Z M 497.640625 332.226562"/></clipPath><clipPath id="f"><path d="M 323.761719 372.804688 L 397.261719 372.804688 L 397.261719 446.304688 L 323.761719 446.304688 Z M 323.761719 372.804688"/></clipPath></defs><path fill="#FFF" d="M-81 -81H891V891H-81z"/><path fill="#FFF" d="M-81 -81H891V891H-81z"/><path fill="#E8CDB8" d="M-81 -81H891V891H-81z"/><g clip-path="url(#a)"><path fill="#563D7C" d="M 274.777344 340.203125 C 274.777344 358.789062 289.847656 373.859375 308.433594 373.859375 L 502.125 373.859375 C 520.710938 373.859375 535.777344 358.789062 535.777344 340.203125 L 535.777344 146.511719 C 535.777344 127.921875 520.710938 112.859375 502.125 112.859375 L 308.433594 112.859375 C 289.84375 112.859375 274.777344 127.925781 274.777344 146.511719 Z M 274.777344 340.203125"/></g><path fill="#FFF" d="M 383.011719 228.308594 L 383.011719 191.347656 L 415.546875 191.347656 C 418.644531 191.347656 421.632812 191.605469 424.507812 192.121094 C 427.382812 192.636719 429.929688 193.558594 432.144531 194.886719 C 434.355469 196.214844 436.128906 198.058594 437.457031 200.421875 C 438.78125 202.78125 439.445312 205.808594 439.445312 209.496094 C 439.445312 216.136719 437.457031 220.929688 433.46875 223.886719 C 429.492188 226.832031 424.394531 228.308594 418.195312 228.308594 Z M 348.261719 164.34375 L 348.261719 322.371094 L 424.84375 322.371094 C 431.917969 322.371094 438.820312 321.484375 445.53125 319.710938 C 452.25 317.945312 458.222656 315.214844 463.464844 311.523438 C 468.703125 307.832031 472.863281 303.082031 475.964844 297.25 C 479.0625 291.417969 480.613281 284.527344 480.613281 276.554688 C 480.613281 266.675781 478.214844 258.222656 473.425781 251.21875 C 468.621094 244.203125 461.363281 239.300781 451.617188 236.496094 C 458.703125 233.101562 464.054688 228.75 467.664062 223.4375 C 471.285156 218.125 473.089844 211.488281 473.089844 203.519531 C 473.089844 196.140625 471.875 189.945312 469.4375 184.929688 C 467 179.910156 463.574219 175.890625 459.152344 172.867188 C 454.714844 169.839844 449.40625 167.664062 443.214844 166.335938 C 437.015625 165.007812 430.15625 164.34375 422.632812 164.34375 Z M 383.011719 295.375 L 383.011719 251.992188 L 420.859375 251.992188 C 428.382812 251.992188 434.425781 253.726562 439.003906 257.191406 C 443.582031 260.660156 445.867188 266.449219 445.867188 274.566406 C 445.867188 278.695312 445.164062 282.089844 443.765625 284.75 C 442.359375 287.402344 440.484375 289.503906 438.117188 291.050781 C 435.761719 292.601562 433.03125 293.710938 429.929688 294.375 C 426.832031 295.039062 423.589844 295.375 420.195312 295.375 Z M 383.011719 295.375"/><g clip-path="url(#b)"><path fill="#FF7C66" d="M 299.980469 410.265625 L 244.132812 404.957031 C 240.535156 404.613281 237.898438 401.425781 238.242188 397.839844 L 243.828125 339.390625 C 244.171875 335.804688 247.367188 333.175781 250.960938 333.515625 L 306.808594 338.824219 C 310.40625 339.167969 313.042969 342.355469 312.699219 345.941406 L 307.113281 404.390625 C 306.773438 407.976562 303.578125 410.605469 299.980469 410.265625 Z M 299.980469 410.265625"/></g><g clip-path="url(#c)"><path d="M 304.136719 408.882812 L 244.046875 408.882812 C 239.871094 408.882812 236.46875 405.492188 236.46875 401.324219 L 236.46875 341.382812 C 236.46875 337.210938 239.871094 333.820312 244.046875 333.820312 L 304.136719 333.820312 C 308.316406 333.820312 311.714844 337.210938 311.714844 341.382812 L 311.714844 401.328125 C 311.714844 405.492188 308.316406 408.882812 304.136719 408.882812 Z M 244.046875 336.949219 C 241.601562 336.949219 239.605469 338.933594 239.605469 341.382812 L 239.605469 401.328125 C 239.605469 403.769531 241.601562 405.757812 244.046875 405.757812 L 304.136719 405.757812 C 306.585938 405.757812 308.582031 403.769531 308.582031 401.324219 L 308.582031 341.382812 C 308.582031 338.933594 306.585938 336.949219 304.136719 336.949219 Z M 244.046875 336.949219"/></g><path d="M 277.070312 395.480469 L 256.90625 395.480469 C 256.039062 395.480469 255.339844 394.777344 255.339844 393.914062 L 255.339844 350.128906 C 255.339844 349.265625 256.039062 348.566406 256.90625 348.566406 L 278.234375 348.566406 C 282.53125 348.566406 286.035156 349.578125 288.652344 351.578125 C 291.429688 353.6875 292.839844 356.851562 292.839844 360.980469 C 292.839844 363.503906 292.199219 365.710938 290.9375 367.53125 C 290.292969 368.460938 289.507812 369.28125 288.585938 369.992188 C 290.152344 370.789062 291.429688 371.898438 292.410156 373.3125 C 293.964844 375.554688 294.75 378.363281 294.75 381.667969 C 294.75 383.367188 294.453125 385.019531 293.871094 386.59375 C 293.871094 386.777344 293.839844 386.960938 293.769531 387.125 C 293.050781 388.875 291.886719 390.425781 290.414062 391.613281 C 288.902344 392.832031 287.03125 393.789062 284.855469 394.457031 C 282.652344 395.132812 280.039062 395.480469 277.070312 395.480469 Z M 258.472656 392.351562 L 277.074219 392.351562 C 279.722656 392.351562 282.027344 392.054688 283.929688 391.46875 C 285.722656 390.921875 287.238281 390.152344 288.441406 389.183594 C 289.382812 388.421875 290.152344 387.460938 290.679688 386.375 C 290.683594 386.199219 290.726562 386.023438 290.792969 385.855469 C 291.339844 384.527344 291.617188 383.121094 291.617188 381.671875 C 291.617188 379.015625 291.019531 376.804688 289.832031 375.09375 C 288.714844 373.480469 286.984375 372.417969 284.683594 371.933594 C 283.960938 371.78125 283.441406 371.144531 283.441406 370.40625 C 283.441406 369.777344 283.820312 369.066406 284.402344 368.824219 C 286.125 368.097656 287.457031 367.066406 288.363281 365.761719 C 289.253906 364.46875 289.710938 362.863281 289.710938 360.988281 C 289.710938 357.84375 288.742188 355.582031 286.757812 354.070312 C 284.699219 352.496094 281.835938 351.699219 278.242188 351.699219 L 258.472656 351.699219 Z M 258.472656 392.351562"/><path d="M 278.230469 389.226562 L 264.640625 389.226562 C 263.777344 389.226562 263.074219 388.527344 263.074219 387.664062 L 263.074219 374 C 263.074219 373.136719 263.777344 372.4375 264.640625 372.4375 L 278.1875 372.4375 C 280.804688 372.4375 282.914062 373.101562 284.460938 374.40625 C 284.542969 374.457031 284.621094 374.515625 284.695312 374.582031 C 286.304688 376.015625 287.132812 378.078125 287.160156 380.703125 C 287.160156 383.367188 286.339844 385.472656 284.722656 386.988281 C 283.15625 388.472656 280.964844 389.226562 278.230469 389.226562 Z M 266.207031 386.097656 L 278.230469 386.097656 C 280.136719 386.097656 281.597656 385.632812 282.574219 384.714844 C 283.550781 383.796875 284.027344 382.492188 284.027344 380.722656 C 284.011719 379.09375 283.59375 377.886719 282.757812 377.054688 C 282.6875 377.011719 282.617188 376.960938 282.5625 376.902344 C 281.578125 376.007812 280.144531 375.570312 278.191406 375.570312 L 266.210938 375.570312 L 266.210938 386.097656 Z M 266.207031 386.097656"/><path d="M 277.132812 370.03125 L 264.589844 370.03125 C 263.726562 370.03125 263.023438 369.332031 263.023438 368.46875 L 263.023438 356.386719 C 263.023438 355.523438 263.726562 354.824219 264.589844 354.824219 L 277.132812 354.824219 C 279.566406 354.824219 281.507812 355.394531 282.910156 356.523438 C 284.398438 357.722656 285.15625 359.703125 285.15625 362.402344 C 285.15625 364.835938 284.347656 366.757812 282.75 368.109375 C 282.699219 368.152344 282.648438 368.191406 282.597656 368.226562 C 281.128906 369.40625 279.246094 370.03125 277.132812 370.03125 Z M 266.160156 366.90625 L 277.132812 366.90625 C 278.582031 366.90625 279.785156 366.507812 280.707031 365.726562 C 280.746094 365.691406 280.785156 365.660156 280.824219 365.636719 C 281.628906 364.898438 282.019531 363.839844 282.019531 362.402344 C 282.019531 360.695312 281.65625 359.535156 280.9375 358.957031 C 280.109375 358.289062 278.828125 357.949219 277.132812 357.949219 L 266.160156 357.949219 Z M 266.160156 366.90625"/><path fill="#543B79" d="M 475.175781 375.125 L 417.167969 375.125 C 413.964844 375.125 411.367188 377.722656 411.367188 380.925781 L 411.367188 438.933594 C 411.367188 442.140625 413.964844 444.734375 417.167969 444.734375 L 475.175781 444.734375 C 478.375 444.734375 480.976562 442.140625 480.976562 438.933594 L 480.976562 380.925781 C 480.976562 377.722656 478.375 375.125 475.175781 375.125 Z M 475.175781 375.125"/><path fill="#FFF" d="M 463.210938 424.28125 L 463.210938 424.289062 C 462.589844 425.78125 461.609375 427.09375 460.355469 428.105469 C 459.054688 429.160156 457.410156 430.023438 455.382812 430.644531 C 453.359375 431.273438 450.953125 431.585938 448.164062 431.585938 L 428.265625 431.585938 L 428.265625 388.273438 L 449.308594 388.273438 C 453.203125 388.273438 456.320312 389.152344 458.652344 390.933594 C 461.003906 392.730469 462.175781 395.402344 462.175781 399.011719 C 462.175781 401.191406 461.640625 403.0625 460.570312 404.609375 C 459.507812 406.148438 457.972656 407.351562 455.992188 408.1875 L 455.992188 408.328125 C 458.632812 408.886719 460.679688 410.136719 462.027344 412.085938 C 463.371094 414.035156 464.0625 416.5 464.0625 419.472656 C 464.0625 421.136719 463.738281 422.71875 463.132812 424.199219 Z M 463.210938 424.28125"/><path fill="#543B79" d="M 454.546875 412.644531 C 453.28125 411.484375 451.496094 410.917969 449.195312 410.917969 L 435.824219 410.917969 L 435.824219 424.429688 L 449.234375 424.429688 C 451.523438 424.429688 453.316406 423.835938 454.585938 422.636719 C 455.851562 421.445312 456.503906 419.746094 456.503906 417.5625 C 456.480469 415.429688 455.851562 413.777344 454.585938 412.644531 Z M 454.546875 412.644531"/><path fill="#543B79" d="M 452.152344 404.316406 L 452.164062 404.316406 C 453.390625 403.277344 453.992188 401.789062 453.992188 399.847656 C 453.992188 397.671875 453.449219 396.125 452.351562 395.238281 C 451.261719 394.355469 449.691406 393.898438 447.625 393.898438 L 435.25 393.898438 L 435.25 405.851562 L 447.625 405.851562 C 449.425781 405.855469 450.964844 405.324219 452.152344 404.316406 Z M 452.152344 404.316406"/><g clip-path="url(#d)"><path d="M 475.175781 447.054688 L 417.167969 447.054688 C 412.6875 447.054688 409.046875 443.410156 409.046875 438.933594 L 409.046875 380.925781 C 409.046875 376.449219 412.6875 372.804688 417.167969 372.804688 L 475.175781 372.804688 C 479.652344 372.804688 483.296875 376.449219 483.296875 380.925781 L 483.296875 438.933594 C 483.296875 443.410156 479.652344 447.054688 475.175781 447.054688 Z M 417.167969 377.445312 C 415.246094 377.445312 413.6875 379.007812 413.6875 380.925781 L 413.6875 438.933594 C 413.6875 440.851562 415.246094 442.414062 417.167969 442.414062 L 475.175781 442.414062 C 477.09375 442.414062 478.65625 440.851562 478.65625 438.933594 L 478.65625 380.925781 C 478.65625 379.007812 477.09375 377.445312 475.175781 377.445312 Z M 417.167969 377.445312"/></g><path d="M 448.164062 433.132812 L 428.351562 433.132812 C 427.070312 433.132812 426.03125 432.09375 426.03125 430.8125 L 426.03125 389.046875 C 426.03125 387.765625 427.070312 386.726562 428.351562 386.726562 L 449.300781 386.726562 C 453.679688 386.726562 457.273438 387.746094 459.980469 389.75 C 462.929688 391.933594 464.425781 395.179688 464.425781 399.402344 C 464.425781 401.992188 463.742188 404.261719 462.398438 406.152344 C 461.957031 406.769531 461.453125 407.339844 460.894531 407.863281 C 462.058594 408.605469 463.046875 409.542969 463.847656 410.667969 C 465.476562 412.960938 466.308594 415.804688 466.308594 419.136719 C 466.308594 420.8125 466.011719 422.449219 465.433594 424.011719 C 465.417969 424.242188 465.367188 424.46875 465.269531 424.683594 C 464.503906 426.484375 463.273438 428.078125 461.722656 429.292969 C 460.164062 430.515625 458.238281 431.476562 456.003906 432.136719 C 453.792969 432.796875 451.152344 433.132812 448.164062 433.132812 Z M 430.671875 428.492188 L 448.160156 428.492188 C 450.691406 428.492188 452.886719 428.222656 454.675781 427.683594 C 456.351562 427.1875 457.757812 426.5 458.859375 425.632812 C 459.652344 425.011719 460.300781 424.238281 460.761719 423.363281 C 460.792969 423.167969 460.839844 422.972656 460.925781 422.78125 C 461.414062 421.621094 461.664062 420.394531 461.664062 419.128906 C 461.664062 416.785156 461.125 414.84375 460.0625 413.355469 C 459.089844 411.984375 457.546875 411.078125 455.488281 410.65625 C 454.40625 410.4375 453.628906 409.488281 453.628906 408.382812 C 453.628906 407.441406 454.203125 406.453125 455.074219 406.097656 C 456.625 405.464844 457.816406 404.574219 458.621094 403.449219 C 459.402344 402.355469 459.78125 401.027344 459.78125 399.398438 C 459.78125 396.65625 458.964844 394.773438 457.21875 393.480469 C 455.332031 392.078125 452.671875 391.367188 449.304688 391.367188 L 430.671875 391.367188 Z M 430.671875 428.492188"/><path d="M 449.160156 425.328125 L 436.101562 425.328125 C 434.820312 425.328125 433.78125 424.289062 433.78125 423.007812 L 433.78125 412.34375 C 433.78125 411.0625 434.820312 410.023438 436.101562 410.023438 L 449.121094 410.023438 C 451.757812 410.023438 453.828125 410.554688 455.445312 411.648438 C 455.542969 411.699219 455.640625 411.757812 455.734375 411.828125 C 457.554688 413.144531 458.53125 415.125 458.558594 417.558594 C 458.558594 420.027344 457.597656 422.050781 455.78125 423.4375 C 454.140625 424.691406 451.914062 425.328125 449.160156 425.328125 Z M 438.421875 420.6875 L 449.160156 420.6875 C 450.871094 420.6875 452.148438 420.371094 452.960938 419.75 C 453.410156 419.40625 453.917969 418.855469 453.917969 417.589844 C 453.90625 416.542969 453.542969 416.027344 453.175781 415.714844 C 453.101562 415.671875 453.027344 415.625 452.957031 415.570312 C 452.144531 414.972656 450.855469 414.664062 449.125 414.664062 L 438.421875 414.664062 Z M 438.421875 420.6875"/><path d="M 447.351562 406.835938 L 436.101562 406.835938 C 434.820312 406.835938 433.78125 405.796875 433.78125 404.515625 L 433.78125 395.234375 C 433.78125 393.953125 434.820312 392.914062 436.101562 392.914062 L 447.351562 392.914062 C 449.6875 392.914062 451.578125 393.40625 452.96875 394.371094 C 454.101562 395.148438 455.460938 396.738281 455.460938 399.859375 C 455.460938 402.117188 454.554688 403.964844 452.839844 405.207031 C 452.78125 405.246094 452.726562 405.289062 452.667969 405.320312 C 451.222656 406.316406 449.386719 406.835938 447.351562 406.835938 Z M 438.421875 402.195312 L 447.351562 402.195312 C 448.496094 402.195312 449.421875 401.941406 450.105469 401.449219 C 450.144531 401.421875 450.183594 401.390625 450.222656 401.367188 C 450.542969 401.109375 450.820312 400.722656 450.820312 399.855469 C 450.820312 399.355469 450.753906 398.476562 450.335938 398.183594 C 449.917969 397.894531 449.0625 397.554688 447.351562 397.554688 L 438.421875 397.554688 Z M 438.421875 402.195312"/><path fill="#732DE2" d="M 498.90625 343.589844 L 572.128906 343.589844 L 572.128906 406.714844 L 498.90625 406.714844 Z M 498.90625 343.589844"/><path fill="#E58842" d="M 498.90625 333.492188 L 572.128906 333.492188 L 572.128906 343.589844 L 498.90625 343.589844 Z M 498.90625 333.492188"/><path fill="#F4B34A" d="M 562.03125 363.789062 L 535.515625 373.890625 L 509.003906 363.789062 L 535.515625 353.691406 Z M 562.03125 363.789062"/><path fill="#F4B34A" d="M 562.03125 376.414062 L 535.515625 386.515625 L 509.003906 376.414062 L 525.566406 370.101562 L 535.515625 373.890625 L 545.464844 370.101562 Z M 562.03125 376.414062"/><path fill="#F4B34A" d="M 562.03125 389.039062 L 535.515625 399.140625 L 509.003906 389.039062 L 525.566406 382.726562 L 535.515625 386.515625 L 545.464844 382.726562 Z M 562.03125 389.039062"/><g clip-path="url(#e)"><path fill="#0B052B" d="M 572.128906 332.226562 L 498.90625 332.226562 C 498.207031 332.226562 497.640625 332.792969 497.640625 333.492188 L 497.640625 406.714844 C 497.640625 407.414062 498.207031 407.976562 498.90625 407.976562 L 572.128906 407.976562 C 572.828125 407.976562 573.390625 407.414062 573.390625 406.714844 L 573.390625 333.492188 C 573.390625 332.792969 572.828125 332.226562 572.128906 332.226562 Z M 570.867188 334.753906 L 570.867188 342.328125 L 500.167969 342.328125 L 500.167969 334.753906 Z M 500.167969 405.453125 L 500.167969 344.851562 L 570.867188 344.851562 L 570.867188 405.453125 Z M 500.167969 405.453125"/></g><path fill="#0B052B" d="M 502.691406 337.277344 L 505.21875 337.277344 L 505.21875 339.804688 L 502.691406 339.804688 Z M 502.691406 337.277344"/><path fill="#0B052B" d="M 507.742188 337.277344 L 510.265625 337.277344 L 510.265625 339.804688 L 507.742188 339.804688 Z M 507.742188 337.277344"/><path fill="#0B052B" d="M 512.792969 337.277344 L 515.316406 337.277344 L 515.316406 339.804688 L 512.792969 339.804688 Z M 512.792969 337.277344"/><path fill="#0B052B" d="M 535.515625 337.277344 L 568.34375 337.277344 L 568.34375 339.804688 L 535.515625 339.804688 Z M 535.515625 337.277344"/><path fill="#0B052B" d="M 563.292969 389.039062 C 563.292969 388.515625 562.96875 388.046875 562.480469 387.859375 L 549.003906 382.726562 L 562.480469 377.597656 C 562.96875 377.410156 563.292969 376.9375 563.292969 376.414062 C 563.292969 375.890625 562.96875 375.421875 562.480469 375.234375 L 549.003906 370.101562 L 562.480469 364.972656 C 562.96875 364.785156 563.292969 364.3125 563.292969 363.789062 C 563.292969 363.265625 562.96875 362.796875 562.480469 362.609375 L 535.964844 352.511719 C 535.675781 352.398438 535.359375 352.398438 535.066406 352.511719 L 508.554688 362.609375 C 508.066406 362.796875 507.742188 363.265625 507.742188 363.789062 C 507.742188 364.3125 508.066406 364.785156 508.554688 364.972656 L 522.027344 370.101562 L 508.554688 375.234375 C 508.066406 375.421875 507.742188 375.890625 507.742188 376.414062 C 507.742188 376.9375 508.066406 377.410156 508.554688 377.597656 L 522.027344 382.726562 L 508.554688 387.859375 C 508.066406 388.046875 507.742188 388.515625 507.742188 389.039062 C 507.742188 389.5625 508.066406 390.035156 508.554688 390.222656 L 535.066406 400.320312 C 535.210938 400.375 535.363281 400.402344 535.515625 400.402344 C 535.667969 400.402344 535.820312 400.375 535.964844 400.320312 L 562.480469 390.222656 C 562.96875 390.035156 563.292969 389.5625 563.292969 389.039062 Z M 535.515625 355.042969 L 558.484375 363.789062 L 535.515625 372.539062 L 512.550781 363.789062 Z M 525.574219 371.453125 L 535.066406 375.070312 C 535.355469 375.179688 535.675781 375.179688 535.964844 375.070312 L 545.460938 371.453125 L 558.484375 376.414062 L 535.515625 385.164062 L 512.550781 376.414062 Z M 535.515625 397.789062 L 512.550781 389.039062 L 525.574219 384.078125 L 535.066406 387.695312 C 535.355469 387.804688 535.675781 387.804688 535.964844 387.695312 L 545.460938 384.078125 L 558.484375 389.039062 Z M 535.515625 397.789062"/><path fill="#0B052B" d="M 509.898438 357.847656 L 505.738281 353.691406 L 509.898438 349.53125 L 508.113281 347.746094 L 503.0625 352.796875 C 502.566406 353.292969 502.566406 354.089844 503.0625 354.582031 L 508.113281 359.632812 Z M 509.898438 357.847656"/><path fill="#0B052B" d="M 562.921875 391.933594 L 561.136719 393.71875 L 565.292969 397.878906 L 561.136719 402.035156 L 562.921875 403.820312 L 567.972656 398.769531 C 568.464844 398.277344 568.464844 397.480469 567.972656 396.984375 Z M 562.921875 391.933594"/><path fill="#0B052B" d="M 555.71875 399.140625 L 558.242188 399.140625 L 558.242188 401.664062 L 555.71875 401.664062 Z M 555.71875 399.140625"/><path fill="#0B052B" d="M 550.667969 399.140625 L 553.191406 399.140625 L 553.191406 401.664062 L 550.667969 401.664062 Z M 550.667969 399.140625"/><path fill="#0B052B" d="M 545.617188 399.140625 L 548.140625 399.140625 L 548.140625 401.664062 L 545.617188 401.664062 Z M 545.617188 399.140625"/><path fill="#8360F4" d="M 396.039062 438.957031 L 396.039062 440.179688 C 396.039062 442.886719 393.84375 445.082031 391.136719 445.082031 L 329.886719 445.082031 C 327.179688 445.082031 324.988281 442.886719 324.988281 440.179688 L 324.988281 438.957031 L 350.714844 438.957031 L 351.9375 440.179688 L 369.089844 440.179688 L 370.3125 438.957031 Z M 396.039062 438.957031"/><path fill="#6599ED" d="M 388.6875 419.355469 L 396.039062 438.957031 L 370.3125 438.957031 L 369.089844 440.179688 L 351.9375 440.179688 L 350.714844 438.957031 L 324.988281 438.957031 L 332.339844 419.355469 Z M 388.6875 419.355469"/><path fill="#6599ED" d="M 388.6875 378.929688 L 388.6875 419.355469 L 332.339844 419.355469 L 332.339844 378.929688 C 332.339844 376.222656 334.53125 374.03125 337.238281 374.03125 L 383.789062 374.03125 C 386.496094 374.03125 388.6875 376.222656 388.6875 378.929688 Z M 383.789062 414.457031 L 383.789062 378.929688 L 337.238281 378.929688 L 337.238281 414.457031 Z M 383.789062 414.457031"/><path fill="#F6DB40" d="M 337.238281 378.929688 L 383.789062 378.929688 L 383.789062 414.457031 L 337.238281 414.457031 Z M 337.238281 378.929688"/><g clip-path="url(#f)"><path fill="#1A1A1A" d="M 329.886719 446.304688 L 391.136719 446.304688 C 394.515625 446.304688 397.261719 443.558594 397.261719 440.179688 L 397.261719 438.957031 L 397.253906 438.957031 C 397.253906 438.8125 397.238281 438.664062 397.1875 438.527344 L 389.914062 419.132812 L 389.914062 378.929688 C 389.914062 375.554688 387.164062 372.804688 383.789062 372.804688 L 337.238281 372.804688 C 333.859375 372.804688 331.113281 375.554688 331.113281 378.929688 L 331.113281 419.132812 L 323.839844 438.527344 C 323.789062 438.664062 323.769531 438.8125 323.769531 438.957031 L 323.761719 438.957031 L 323.761719 440.179688 C 323.761719 443.558594 326.511719 446.304688 329.886719 446.304688 Z M 391.136719 443.855469 L 329.886719 443.855469 C 327.863281 443.855469 326.214844 442.207031 326.214844 440.179688 L 350.207031 440.179688 L 351.070312 441.046875 C 351.300781 441.277344 351.613281 441.40625 351.9375 441.40625 L 369.089844 441.40625 C 369.414062 441.40625 369.726562 441.277344 369.953125 441.046875 L 370.820312 440.179688 L 394.8125 440.179688 C 394.8125 442.207031 393.164062 443.855469 391.136719 443.855469 Z M 337.238281 375.257812 L 383.789062 375.257812 C 385.8125 375.257812 387.464844 376.90625 387.464844 378.929688 L 387.464844 418.132812 L 333.5625 418.132812 L 333.5625 378.929688 C 333.5625 376.90625 335.210938 375.257812 337.238281 375.257812 Z M 333.1875 420.582031 L 387.839844 420.582031 L 394.269531 437.730469 L 370.3125 437.730469 C 369.988281 437.730469 369.675781 437.859375 369.445312 438.089844 L 368.582031 438.957031 L 352.445312 438.957031 L 351.578125 438.089844 C 351.351562 437.859375 351.039062 437.730469 350.714844 437.730469 L 326.753906 437.730469 Z M 333.1875 420.582031"/></g><path fill="#1A1A1A" d="M 332.339844 432.832031 L 337.238281 432.832031 L 337.238281 435.28125 L 332.339844 435.28125 Z M 332.339844 432.832031"/><path fill="#1A1A1A" d="M 340.914062 432.832031 L 345.8125 432.832031 L 345.8125 435.28125 L 340.914062 435.28125 Z M 340.914062 432.832031"/><path fill="#1A1A1A" d="M 349.488281 432.832031 L 371.539062 432.832031 L 371.539062 435.28125 L 349.488281 435.28125 Z M 349.488281 432.832031"/><path fill="#1A1A1A" d="M 375.214844 432.832031 L 380.113281 432.832031 L 380.113281 435.28125 L 375.214844 435.28125 Z M 375.214844 432.832031"/><path fill="#1A1A1A" d="M 383.789062 432.832031 L 388.6875 432.832031 L 388.6875 435.28125 L 383.789062 435.28125 Z M 383.789062 432.832031"/><path fill="#1A1A1A" d="M 333.5625 427.929688 L 340.914062 427.929688 L 340.914062 430.382812 L 333.5625 430.382812 Z M 333.5625 427.929688"/><path fill="#1A1A1A" d="M 344.589844 427.929688 L 349.488281 427.929688 L 349.488281 430.382812 L 344.589844 430.382812 Z M 344.589844 427.929688"/><path fill="#1A1A1A" d="M 353.164062 427.929688 L 358.0625 427.929688 L 358.0625 430.382812 L 353.164062 430.382812 Z M 353.164062 427.929688"/><path fill="#1A1A1A" d="M 361.738281 427.929688 L 366.636719 427.929688 L 366.636719 430.382812 L 361.738281 430.382812 Z M 361.738281 427.929688"/><path fill="#1A1A1A" d="M 370.3125 427.929688 L 375.214844 427.929688 L 375.214844 430.382812 L 370.3125 430.382812 Z M 370.3125 427.929688"/><path fill="#1A1A1A" d="M 378.886719 427.929688 L 387.464844 427.929688 L 387.464844 430.382812 L 378.886719 430.382812 Z M 378.886719 427.929688"/><path fill="#1A1A1A" d="M 340.914062 423.03125 L 343.363281 423.03125 L 343.363281 425.480469 L 340.914062 425.480469 Z M 340.914062 423.03125"/><path fill="#1A1A1A" d="M 336.011719 423.03125 L 338.464844 423.03125 L 338.464844 425.480469 L 336.011719 425.480469 Z M 336.011719 423.03125"/><path fill="#1A1A1A" d="M 347.039062 423.03125 L 351.9375 423.03125 L 351.9375 425.480469 L 347.039062 425.480469 Z M 347.039062 423.03125"/><path fill="#1A1A1A" d="M 355.613281 423.03125 L 360.511719 423.03125 L 360.511719 425.480469 L 355.613281 425.480469 Z M 355.613281 423.03125"/><path fill="#1A1A1A" d="M 364.1875 423.03125 L 369.089844 423.03125 L 369.089844 425.480469 L 364.1875 425.480469 Z M 364.1875 423.03125"/><path fill="#1A1A1A" d="M 372.761719 423.03125 L 377.664062 423.03125 L 377.664062 425.480469 L 372.761719 425.480469 Z M 372.761719 423.03125"/><path fill="#1A1A1A" d="M 381.339844 423.03125 L 386.238281 423.03125 L 386.238281 425.480469 L 381.339844 425.480469 Z M 381.339844 423.03125"/><path fill="#1A1A1A" d="M 337.238281 415.679688 L 383.789062 415.679688 C 384.464844 415.679688 385.011719 415.132812 385.011719 414.457031 L 385.011719 378.929688 C 385.011719 378.253906 384.464844 377.707031 383.789062 377.707031 L 337.238281 377.707031 C 336.5625 377.707031 336.011719 378.253906 336.011719 378.929688 L 336.011719 414.457031 C 336.011719 415.132812 336.5625 415.679688 337.238281 415.679688 Z M 338.464844 380.15625 L 382.5625 380.15625 L 382.5625 413.230469 L 338.464844 413.230469 Z M 338.464844 380.15625"/><path fill="#1A1A1A" d="M 344.945312 382.964844 L 341.273438 386.640625 C 340.792969 387.117188 340.792969 387.894531 341.273438 388.371094 L 344.945312 392.046875 L 346.679688 390.316406 L 343.871094 387.507812 L 346.679688 384.695312 Z M 344.945312 382.964844"/><path fill="#1A1A1A" d="M 358.929688 382.964844 L 357.195312 384.695312 L 360.003906 387.507812 L 357.195312 390.316406 L 358.929688 392.046875 L 362.605469 388.371094 C 363.082031 387.894531 363.082031 387.117188 362.605469 386.640625 Z M 358.929688 382.964844"/><path fill="#1A1A1A" d="M 360.871094 400.113281 L 357.195312 403.789062 C 356.71875 404.269531 356.71875 405.042969 357.195312 405.523438 L 360.871094 409.195312 L 362.605469 407.464844 L 359.796875 404.65625 L 362.605469 401.847656 Z M 360.871094 400.113281"/><path fill="#1A1A1A" d="M 374.855469 400.113281 L 373.121094 401.847656 L 375.929688 404.65625 L 373.121094 407.464844 L 374.855469 409.195312 L 378.527344 405.523438 C 379.007812 405.042969 379.007812 404.269531 378.527344 403.789062 Z M 374.855469 400.113281"/><path fill="#1A1A1A" d="M 364.316406 407.785156 L 367.992188 400.433594 L 370.183594 401.53125 L 366.507812 408.878906 Z M 364.316406 407.785156"/><path fill="#1A1A1A" d="M 353.164062 407.105469 L 355.613281 407.105469 L 355.613281 409.554688 L 353.164062 409.554688 Z M 353.164062 407.105469"/><path fill="#1A1A1A" d="M 348.261719 407.105469 L 350.714844 407.105469 L 350.714844 409.554688 L 348.261719 409.554688 Z M 348.261719 407.105469"/><path fill="#1A1A1A" d="M 343.363281 407.105469 L 345.8125 407.105469 L 345.8125 409.554688 L 343.363281 409.554688 Z M 343.363281 407.105469"/><path fill="#1A1A1A" d="M 370.3125 388.730469 L 367.863281 388.730469 L 367.863281 391.179688 L 369.089844 391.179688 L 369.089844 394.855469 L 371.539062 394.855469 L 371.539062 389.957031 C 371.539062 389.28125 370.988281 388.730469 370.3125 388.730469 Z M 370.3125 388.730469"/><path fill="#1A1A1A" d="M 367.863281 383.832031 L 370.3125 383.832031 L 370.3125 386.28125 L 367.863281 386.28125 Z M 367.863281 383.832031"/></svg>