<svg xmlns="http://www.w3.org/2000/svg" width="810" viewBox="0 0 810 810" height="810" version="1.0"><defs><clipPath id="a"><path d="M 295.496094 146 L 530.246094 146 L 530.246094 412.5 L 295.496094 412.5 Z M 295.496094 146"/></clipPath><clipPath id="b"><path d="M 219 312.019531 L 269 312.019531 L 269 374 L 219 374 Z M 219 312.019531"/></clipPath><clipPath id="c"><path d="M 212.496094 356 L 321.246094 356 L 321.246094 412.519531 L 212.496094 412.519531 Z M 212.496094 356"/></clipPath><clipPath id="d"><path d="M 384 457 L 416 457 L 416 485.515625 L 384 485.515625 Z M 384 457"/></clipPath><clipPath id="e"><path d="M 316 386.515625 L 403 386.515625 L 403 472 L 316 472 Z M 316 386.515625"/></clipPath><clipPath id="f"><path d="M 427.855469 394.101562 L 503.605469 394.101562 L 503.605469 469.851562 L 427.855469 469.851562 Z M 427.855469 394.101562"/></clipPath><clipPath id="g"><path d="M 518 337.25 L 582 337.25 L 582 423.5 L 518 423.5 Z M 518 337.25"/></clipPath><clipPath id="h"><path d="M 518 337.25 L 534 337.25 L 534 353 L 518 353 Z M 518 337.25"/></clipPath><clipPath id="i"><path d="M 539 343 L 597.597656 343 L 597.597656 365 L 539 365 Z M 539 343"/></clipPath><clipPath id="j"><path d="M 512.847656 411 L 576 411 L 576 423.5 L 512.847656 423.5 Z M 512.847656 411"/></clipPath></defs><path fill="#FFF" d="M-81 -81H891V891H-81z"/><path fill="#FFF" d="M-81 -81H891V891H-81z"/><path fill="#BBB" d="M-81 -81H891V891H-81z"/><g clip-path="url(#a)"><path fill="#E44D26" d="M 530.175781 146.144531 L 508.8125 385.828125 L 412.769531 412.488281 L 316.992188 385.863281 L 295.652344 146.144531 L 530.171875 146.140625 L 530.179688 146.140625 Z M 530.175781 146.144531"/></g><path fill="#F16529" d="M 412.917969 392.109375 L 490.527344 370.566406 L 508.785156 165.75 L 412.917969 165.746094 Z M 412.917969 392.109375"/><path fill="#EBEBEB" d="M 371.382812 224.546875 L 412.917969 224.546875 L 412.917969 195.140625 L 339.292969 195.140625 L 339.996094 203.03125 L 347.210938 284.050781 L 412.917969 284.050781 L 412.917969 254.65625 L 374.0625 254.65625 Z M 371.382812 224.546875"/><path fill="#EBEBEB" d="M 378 298.753906 L 348.523438 298.753906 L 352.636719 344.921875 L 412.777344 361.636719 L 412.917969 361.601562 L 412.917969 331.011719 L 412.789062 331.046875 L 380.089844 322.199219 Z M 378 298.753906"/><path d="M 317.472656 81 L 332.394531 81 L 332.394531 95.761719 L 346.042969 95.761719 L 346.042969 81 L 360.964844 81 L 360.964844 125.703125 L 346.042969 125.703125 L 346.042969 110.734375 L 332.394531 110.734375 L 332.394531 125.703125 L 317.472656 125.703125 Z M 317.472656 81"/><path d="M 380.585938 95.824219 L 367.449219 95.824219 L 367.449219 81 L 408.652344 81 L 408.652344 95.824219 L 395.503906 95.824219 L 395.503906 125.703125 L 380.585938 125.703125 Z M 380.585938 95.824219"/><path d="M 415.1875 81 L 430.742188 81 L 440.3125 96.707031 L 449.875 81 L 465.4375 81 L 465.4375 125.703125 L 450.582031 125.703125 L 450.582031 103.546875 L 440.3125 119.4375 L 440.054688 119.4375 L 429.785156 103.546875 L 429.785156 125.703125 L 415.1875 125.703125 Z M 415.1875 81"/><path d="M 472.867188 81 L 487.785156 81 L 487.785156 110.925781 L 508.773438 110.925781 L 508.773438 125.703125 L 472.867188 125.703125 Z M 472.867188 81"/><path fill="#FFF" d="M 412.816406 284.050781 L 448.972656 284.050781 L 445.5625 322.183594 L 412.816406 331.039062 L 412.816406 361.621094 L 473.003906 344.921875 L 473.445312 339.949219 L 480.347656 262.546875 L 481.066406 254.65625 L 412.816406 254.65625 Z M 412.816406 284.050781"/><path fill="#FFF" d="M 412.816406 224.472656 L 412.816406 224.546875 L 483.730469 224.546875 L 484.320312 217.9375 L 485.664062 203.03125 L 486.359375 195.140625 L 412.816406 195.140625 Z M 412.816406 224.472656"/><path fill="#B370B7" d="M 266.578125 361.917969 L 235.648438 371.40625 L 220.953125 323.199219 L 251.882812 313.714844 L 266.578125 361.917969"/><g clip-path="url(#b)"><path fill="#D7D3D5" d="M 266.578125 361.917969 L 266.179688 360.613281 L 236.550781 369.703125 L 222.648438 324.105469 L 250.976562 315.417969 L 265.277344 362.320312 L 266.578125 361.917969 L 266.179688 360.613281 L 266.578125 361.917969 L 267.878906 361.519531 L 252.785156 312.011719 L 219.253906 322.292969 L 234.746094 373.109375 L 268.277344 362.824219 L 267.878906 361.519531 L 266.578125 361.917969"/></g><path fill="#5F95BC" d="M 291.339844 367.445312 L 259.425781 372.71875 L 251.261719 322.980469 L 283.175781 317.707031 L 291.339844 367.445312"/><path fill="#D7D3D5" d="M 291.339844 367.445312 L 291.121094 366.101562 L 260.546875 371.148438 L 252.824219 324.101562 L 282.054688 319.273438 L 290 367.667969 L 291.339844 367.445312 L 291.121094 366.101562 L 291.339844 367.445312 L 292.683594 367.222656 L 284.296875 316.140625 L 249.699219 321.855469 L 258.304688 374.285156 L 292.902344 368.570312 L 292.683594 367.222656 L 291.339844 367.445312"/><path fill="#E52E39" d="M 301.566406 383.410156 L 269.972656 376.472656 L 280.722656 327.230469 L 312.316406 334.171875 L 301.566406 383.410156"/><path fill="#D7D3D5" d="M 301.566406 383.410156 L 301.859375 382.078125 L 271.589844 375.429688 L 281.761719 328.851562 L 310.699219 335.210938 L 300.238281 383.121094 L 301.566406 383.410156 L 301.859375 382.078125 L 301.566406 383.410156 L 302.894531 383.703125 L 313.9375 333.128906 L 279.6875 325.605469 L 268.351562 377.511719 L 302.605469 385.035156 L 302.894531 383.703125 L 301.566406 383.410156"/><path fill="#1C1A26" d="M 219.472656 411.132812 C 216.367188 411.132812 213.84375 408.601562 213.84375 405.488281 L 213.84375 363.703125 C 213.84375 360.589844 216.367188 358.058594 219.472656 358.058594 L 296.605469 358.058594 C 299.707031 358.058594 302.230469 360.589844 302.230469 363.703125 L 302.230469 394.84375 C 302.230469 401.929688 312.507812 408.550781 312.609375 408.617188 L 316.5625 411.132812 L 219.472656 411.132812"/><g clip-path="url(#c)"><path fill="#D7D3D5" d="M 296.605469 356.695312 L 219.472656 356.695312 C 215.617188 356.695312 212.484375 359.835938 212.484375 363.703125 L 212.484375 405.488281 C 212.484375 409.351562 215.617188 412.496094 219.472656 412.496094 L 321.246094 412.496094 L 313.339844 407.464844 C 310.628906 405.734375 303.589844 400.082031 303.589844 394.84375 L 303.589844 363.703125 C 303.589844 359.835938 300.457031 356.695312 296.605469 356.695312 Z M 296.605469 359.421875 C 298.960938 359.421875 300.871094 361.339844 300.871094 363.703125 C 300.871094 363.703125 300.871094 386.925781 300.871094 394.84375 C 300.871094 402.761719 311.882812 409.769531 311.882812 409.769531 L 219.472656 409.769531 C 217.113281 409.769531 215.203125 407.851562 215.203125 405.488281 L 215.203125 363.703125 C 215.203125 361.339844 217.113281 359.421875 219.472656 359.421875 L 296.605469 359.421875"/></g><path fill="#8EBF25" d="M 248.144531 391.867188 C 248.566406 392.0625 248.886719 392.390625 249.097656 392.851562 C 249.308594 393.316406 249.300781 393.800781 249.070312 394.300781 C 248.875 394.726562 248.53125 395.007812 248.027344 395.140625 C 247.527344 395.277344 247.066406 395.230469 246.644531 394.996094 L 232.027344 387.171875 L 231.96875 387.117188 C 231.621094 386.769531 231.449219 386.34375 231.449219 385.839844 C 231.449219 385.339844 231.621094 384.914062 231.96875 384.566406 L 246.644531 376.6875 C 247.066406 376.453125 247.511719 376.386719 247.972656 376.484375 C 248.433594 376.582031 248.78125 376.800781 249.011719 377.148438 C 249.28125 377.574219 249.355469 378.027344 249.242188 378.511719 C 249.125 378.996094 248.855469 379.351562 248.433594 379.582031 L 235.839844 385.839844 L 248.144531 391.867188"/><path fill="#8EBF25" d="M 261.777344 366.664062 C 261.929688 366.199219 262.230469 365.851562 262.671875 365.621094 C 263.113281 365.386719 263.570312 365.351562 264.03125 365.503906 C 264.492188 365.695312 264.839844 366.003906 265.070312 366.429688 C 265.300781 366.855469 265.339844 367.300781 265.1875 367.765625 L 254.09375 402.53125 C 253.902344 402.992188 253.59375 403.339844 253.167969 403.574219 C 252.746094 403.804688 252.304688 403.839844 251.839844 403.6875 C 251.339844 403.535156 250.972656 403.234375 250.742188 402.789062 C 250.511719 402.34375 250.492188 401.890625 250.6875 401.429688 L 261.777344 366.664062"/><path fill="#8EBF25" d="M 280.089844 385.839844 L 267.496094 379.582031 C 267.070312 379.351562 266.800781 378.996094 266.6875 378.511719 C 266.570312 378.027344 266.648438 377.574219 266.917969 377.148438 C 267.148438 376.800781 267.496094 376.582031 267.957031 376.484375 C 268.417969 376.386719 268.863281 376.453125 269.285156 376.6875 L 283.960938 384.566406 C 284.382812 384.796875 284.601562 385.222656 284.625 385.839844 C 284.644531 386.460938 284.402344 386.902344 283.902344 387.171875 L 269.285156 394.996094 C 268.863281 395.230469 268.398438 395.277344 267.898438 395.140625 C 267.398438 395.007812 267.050781 394.726562 266.859375 394.300781 C 266.628906 393.800781 266.617188 393.316406 266.832031 392.851562 C 267.042969 392.390625 267.359375 392.0625 267.785156 391.867188 L 280.089844 385.839844"/><path fill="#FFF" d="M 284.105469 354.679688 C 284.105469 355.449219 283.484375 356.070312 282.722656 356.070312 L 216.589844 356.070312 C 215.824219 356.070312 215.203125 355.449219 215.203125 354.679688 L 215.203125 350.578125 C 215.203125 349.808594 215.824219 349.1875 216.589844 349.1875 L 282.722656 349.1875 C 283.484375 349.1875 284.105469 349.808594 284.105469 350.578125 L 284.105469 354.679688"/><path fill="#FFF" d="M 293.691406 350.320312 C 293.691406 350.523438 293.523438 350.6875 293.320312 350.6875 L 286.25 350.6875 C 286.046875 350.6875 285.882812 350.523438 285.882812 350.320312 L 285.882812 349.558594 C 285.882812 349.351562 286.046875 349.1875 286.25 349.1875 L 293.320312 349.1875 C 293.523438 349.1875 293.691406 349.351562 293.691406 349.558594 L 293.691406 350.320312"/><path fill="#FFF" d="M 293.691406 353.011719 C 293.691406 353.214844 293.523438 353.378906 293.320312 353.378906 L 286.25 353.378906 C 286.046875 353.378906 285.882812 353.214844 285.882812 353.011719 L 285.882812 352.25 C 285.882812 352.046875 286.046875 351.878906 286.25 351.878906 L 293.320312 351.878906 C 293.523438 351.878906 293.691406 352.046875 293.691406 352.25 L 293.691406 353.011719"/><path fill="#FFF" d="M 293.691406 355.703125 C 293.691406 355.90625 293.523438 356.070312 293.320312 356.070312 L 286.25 356.070312 C 286.046875 356.070312 285.882812 355.90625 285.882812 355.703125 L 285.882812 354.941406 C 285.882812 354.734375 286.046875 354.570312 286.25 354.570312 L 293.320312 354.570312 C 293.523438 354.570312 293.691406 354.734375 293.691406 354.941406 L 293.691406 355.703125"/><g clip-path="url(#d)"><path fill="#7E4A35" d="M 391.289062 457.472656 L 413.035156 473.425781 C 416.363281 475.855469 416.71875 480.648438 413.804688 483.554688 C 412.484375 484.867188 410.757812 485.515625 409.019531 485.515625 C 407.304688 485.515625 405.570312 484.867188 404.238281 483.554688 L 384.292969 463.773438 L 391.289062 457.472656"/></g><g clip-path="url(#e)"><path fill="#3E4042" d="M 402.058594 429.1875 C 402.058594 452.75 382.859375 471.859375 359.183594 471.859375 C 335.507812 471.859375 316.304688 452.75 316.304688 429.1875 C 316.304688 405.625 335.507812 386.515625 359.183594 386.515625 C 382.859375 386.515625 402.058594 405.625 402.058594 429.1875"/></g><path fill="#60CBE9" d="M 395.199219 429.1875 C 395.199219 448.984375 379.074219 465.03125 359.183594 465.03125 C 339.292969 465.03125 323.167969 448.984375 323.167969 429.1875 C 323.167969 409.390625 339.292969 393.34375 359.183594 393.34375 C 379.074219 393.34375 395.199219 409.390625 395.199219 429.1875"/><path fill="#50BEEC" d="M 359.183594 466.738281 C 338.375 466.738281 321.453125 449.898438 321.453125 429.1875 C 321.453125 412.710938 332.0625 398.316406 347.859375 393.363281 C 348.773438 393.074219 349.730469 393.582031 350.019531 394.476562 C 350.300781 395.375 349.796875 396.335938 348.894531 396.617188 C 334.527344 401.125 324.882812 414.210938 324.882812 429.1875 C 324.882812 448.011719 340.269531 463.324219 359.183594 463.324219 C 378.097656 463.324219 393.484375 448.011719 393.484375 429.1875 C 393.484375 410.363281 378.097656 395.050781 359.183594 395.050781 C 358.238281 395.050781 357.46875 394.28125 357.46875 393.34375 C 357.46875 392.402344 358.238281 391.636719 359.183594 391.636719 C 379.992188 391.636719 396.914062 408.476562 396.914062 429.1875 C 396.914062 449.898438 379.992188 466.738281 359.183594 466.738281"/><path fill="#326D80" d="M 345.460938 406.996094 C 344.519531 406.996094 343.746094 407.765625 343.746094 408.703125 L 343.746094 412.117188 L 340.316406 412.117188 L 340.316406 408.703125 C 340.316406 407.765625 339.546875 406.996094 338.601562 406.996094 C 337.65625 406.996094 336.886719 407.765625 336.886719 408.703125 L 336.886719 418.945312 C 336.886719 419.886719 337.65625 420.652344 338.601562 420.652344 C 339.546875 420.652344 340.316406 419.886719 340.316406 418.945312 L 340.316406 415.53125 L 343.746094 415.53125 L 343.746094 418.945312 C 343.746094 419.886719 344.519531 420.652344 345.460938 420.652344 C 346.40625 420.652344 347.175781 419.886719 347.175781 418.945312 L 347.175781 408.703125 C 347.175781 407.765625 346.40625 406.996094 345.460938 406.996094"/><path fill="#326D80" d="M 355.753906 406.996094 L 352.324219 406.996094 C 351.378906 406.996094 350.609375 407.765625 350.609375 408.703125 C 350.609375 409.644531 351.378906 410.410156 352.324219 410.410156 L 352.324219 418.945312 C 352.324219 419.886719 353.09375 420.652344 354.039062 420.652344 C 354.984375 420.652344 355.753906 419.886719 355.753906 418.945312 L 355.753906 410.410156 C 356.699219 410.410156 357.46875 409.644531 357.46875 408.703125 C 357.46875 407.765625 356.699219 406.996094 355.753906 406.996094"/><path fill="#326D80" d="M 369.96875 407.070312 C 369.253906 406.851562 368.460938 407.132812 368.046875 407.757812 L 366.042969 410.75 L 364.039062 407.757812 C 363.625 407.132812 362.839844 406.851562 362.117188 407.070312 C 361.394531 407.292969 360.898438 407.953125 360.898438 408.703125 L 360.898438 418.945312 C 360.898438 419.886719 361.667969 420.652344 362.613281 420.652344 C 363.558594 420.652344 364.328125 419.886719 364.328125 418.945312 L 364.328125 414.339844 L 364.617188 414.773438 C 365.253906 415.71875 366.835938 415.71875 367.46875 414.773438 L 367.757812 414.339844 L 367.757812 418.945312 C 367.757812 419.886719 368.527344 420.652344 369.472656 420.652344 C 370.417969 420.652344 371.1875 419.886719 371.1875 418.945312 L 371.1875 408.703125 C 371.1875 407.953125 370.691406 407.292969 369.96875 407.070312"/><path fill="#326D80" d="M 379.765625 417.238281 L 378.050781 417.238281 L 378.050781 408.703125 C 378.050781 407.765625 377.277344 406.996094 376.335938 406.996094 C 375.390625 406.996094 374.617188 407.765625 374.617188 408.703125 L 374.617188 418.945312 C 374.617188 419.886719 375.390625 420.652344 376.335938 420.652344 L 379.765625 420.652344 C 380.707031 420.652344 381.480469 419.886719 381.480469 418.945312 C 381.480469 418.007812 380.707031 417.238281 379.765625 417.238281"/><path fill="#FFF" d="M 340.316406 429.1875 L 338.601562 429.1875 C 337.65625 429.1875 336.886719 428.421875 336.886719 427.480469 C 336.886719 426.539062 337.65625 425.773438 338.601562 425.773438 L 340.316406 425.773438 C 341.261719 425.773438 342.03125 426.539062 342.03125 427.480469 C 342.03125 428.421875 341.261719 429.1875 340.316406 429.1875"/><path fill="#FFF" d="M 340.316406 436.015625 L 338.601562 436.015625 C 337.65625 436.015625 336.886719 435.25 336.886719 434.308594 C 336.886719 433.367188 337.65625 432.601562 338.601562 432.601562 L 340.316406 432.601562 C 341.261719 432.601562 342.03125 433.367188 342.03125 434.308594 C 342.03125 435.25 341.261719 436.015625 340.316406 436.015625"/><path fill="#FFF" d="M 340.316406 442.84375 L 338.601562 442.84375 C 337.65625 442.84375 336.886719 442.074219 336.886719 441.136719 C 336.886719 440.195312 337.65625 439.429688 338.601562 439.429688 L 340.316406 439.429688 C 341.261719 439.429688 342.03125 440.195312 342.03125 441.136719 C 342.03125 442.074219 341.261719 442.84375 340.316406 442.84375"/><path fill="#FFF" d="M 340.316406 449.671875 L 338.601562 449.671875 C 337.65625 449.671875 336.886719 448.902344 336.886719 447.964844 C 336.886719 447.023438 337.65625 446.257812 338.601562 446.257812 L 340.316406 446.257812 C 341.261719 446.257812 342.03125 447.023438 342.03125 447.964844 C 342.03125 448.902344 341.261719 449.671875 340.316406 449.671875"/><path fill="#4AA6DF" d="M 355.753906 429.1875 L 347.175781 429.1875 C 346.234375 429.1875 345.460938 428.421875 345.460938 427.480469 C 345.460938 426.539062 346.234375 425.773438 347.175781 425.773438 L 355.753906 425.773438 C 356.699219 425.773438 357.46875 426.539062 357.46875 427.480469 C 357.46875 428.421875 356.699219 429.1875 355.753906 429.1875"/><path fill="#4AA6DF" d="M 371.1875 442.84375 L 347.175781 442.84375 C 346.234375 442.84375 345.460938 442.074219 345.460938 441.136719 C 345.460938 440.195312 346.234375 439.429688 347.175781 439.429688 L 371.1875 439.429688 C 372.132812 439.429688 372.902344 440.195312 372.902344 441.136719 C 372.902344 442.074219 372.132812 442.84375 371.1875 442.84375"/><path fill="#4AA6DF" d="M 364.328125 436.015625 L 347.175781 436.015625 C 346.234375 436.015625 345.460938 435.25 345.460938 434.308594 C 345.460938 433.367188 346.234375 432.601562 347.175781 432.601562 L 364.328125 432.601562 C 365.273438 432.601562 366.042969 433.367188 366.042969 434.308594 C 366.042969 435.25 365.273438 436.015625 364.328125 436.015625"/><path fill="#6B5FB5" d="M 366.042969 429.1875 L 362.613281 429.1875 C 361.667969 429.1875 360.898438 428.421875 360.898438 427.480469 C 360.898438 426.539062 361.667969 425.773438 362.613281 425.773438 L 366.042969 425.773438 C 366.988281 425.773438 367.757812 426.539062 367.757812 427.480469 C 367.757812 428.421875 366.988281 429.1875 366.042969 429.1875"/><path fill="#6B5FB5" d="M 374.617188 436.015625 L 371.1875 436.015625 C 370.246094 436.015625 369.472656 435.25 369.472656 434.308594 C 369.472656 433.367188 370.246094 432.601562 371.1875 432.601562 L 374.617188 432.601562 C 375.5625 432.601562 376.335938 433.367188 376.335938 434.308594 C 376.335938 435.25 375.5625 436.015625 374.617188 436.015625"/><path fill="#4AA6DF" d="M 348.894531 449.671875 L 347.175781 449.671875 C 346.234375 449.671875 345.460938 448.902344 345.460938 447.964844 C 345.460938 447.023438 346.234375 446.257812 347.175781 446.257812 L 348.894531 446.257812 C 349.835938 446.257812 350.609375 447.023438 350.609375 447.964844 C 350.609375 448.902344 349.835938 449.671875 348.894531 449.671875"/><path fill="#6B5FB5" d="M 366.042969 449.671875 L 355.753906 449.671875 C 354.808594 449.671875 354.039062 448.902344 354.039062 447.964844 C 354.039062 447.023438 354.808594 446.257812 355.753906 446.257812 L 366.042969 446.257812 C 366.988281 446.257812 367.757812 447.023438 367.757812 447.964844 C 367.757812 448.902344 366.988281 449.671875 366.042969 449.671875"/><path fill="#6B5FB5" d="M 379.765625 442.84375 L 378.050781 442.84375 C 377.105469 442.84375 376.335938 442.074219 376.335938 441.136719 C 376.335938 440.195312 377.105469 439.429688 378.050781 439.429688 L 379.765625 439.429688 C 380.707031 439.429688 381.480469 440.195312 381.480469 441.136719 C 381.480469 442.074219 380.707031 442.84375 379.765625 442.84375"/><path fill="#488592" d="M 435.429688 407.988281 L 496.027344 407.988281 L 496.027344 468.589844 L 435.429688 468.589844 L 435.429688 407.988281"/><path fill="#3C6F7E" d="M 441.742188 462.277344 L 441.742188 401.675781 C 441.742188 398.191406 438.914062 395.363281 435.429688 395.363281 C 431.941406 395.363281 429.117188 398.191406 429.117188 401.675781 L 429.117188 462.277344 L 441.742188 462.277344"/><path fill="#3C6F7E" d="M 502.339844 462.277344 L 502.339844 401.675781 C 502.339844 398.191406 499.515625 395.363281 496.027344 395.363281 C 492.542969 395.363281 489.714844 398.191406 489.714844 401.675781 L 489.714844 462.277344 L 502.339844 462.277344"/><path fill="#305057" d="M 441.742188 462.277344 C 441.742188 465.765625 438.914062 468.589844 435.429688 468.589844 C 431.941406 468.589844 429.117188 465.765625 429.117188 462.277344 C 429.117188 458.789062 431.941406 455.964844 435.429688 455.964844 C 438.914062 455.964844 441.742188 458.789062 441.742188 462.277344"/><path fill="#305057" d="M 502.339844 462.277344 C 502.339844 465.765625 499.515625 468.589844 496.027344 468.589844 C 492.542969 468.589844 489.714844 465.765625 489.714844 462.277344 C 489.714844 458.789062 492.542969 455.964844 496.027344 455.964844 C 499.515625 455.964844 502.339844 458.789062 502.339844 462.277344"/><g clip-path="url(#f)"><path fill="#2B2C2D" d="M 496.027344 467.328125 C 493.242188 467.328125 490.980469 465.0625 490.980469 462.277344 C 490.980469 459.492188 493.242188 457.226562 496.027344 457.226562 C 498.816406 457.226562 501.078125 459.492188 501.078125 462.277344 C 501.078125 465.0625 498.816406 467.328125 496.027344 467.328125 Z M 430.378906 462.277344 C 430.378906 459.492188 432.644531 457.226562 435.429688 457.226562 C 438.214844 457.226562 440.480469 459.492188 440.480469 462.277344 C 440.480469 465.0625 438.214844 467.328125 435.429688 467.328125 C 432.644531 467.328125 430.378906 465.0625 430.378906 462.277344 Z M 435.429688 396.628906 C 438.214844 396.628906 440.480469 398.890625 440.480469 401.675781 L 440.480469 456.644531 C 439.136719 455.441406 437.371094 454.703125 435.429688 454.703125 C 433.484375 454.703125 431.71875 455.441406 430.378906 456.644531 L 430.378906 401.675781 C 430.378906 398.890625 432.644531 396.628906 435.429688 396.628906 Z M 490.980469 401.675781 C 490.980469 398.890625 493.242188 396.628906 496.027344 396.628906 C 498.816406 396.628906 501.078125 398.890625 501.078125 401.675781 L 501.078125 456.644531 C 499.738281 455.441406 497.96875 454.703125 496.027344 454.703125 C 494.089844 454.703125 492.320312 455.441406 490.980469 456.644531 Z M 496.027344 394.101562 C 491.851562 394.101562 488.453125 397.5 488.453125 401.675781 L 488.453125 406.726562 L 446.792969 406.726562 C 446.097656 406.726562 445.527344 407.292969 445.527344 407.988281 C 445.527344 408.683594 446.097656 409.253906 446.792969 409.253906 L 488.453125 409.253906 L 488.453125 462.277344 C 488.453125 464.21875 489.195312 465.984375 490.398438 467.328125 L 441.0625 467.328125 C 442.265625 465.984375 443.003906 464.21875 443.003906 462.277344 L 443.003906 401.675781 C 443.003906 397.5 439.605469 394.101562 435.429688 394.101562 C 431.253906 394.101562 427.855469 397.5 427.855469 401.675781 L 427.855469 462.277344 C 427.855469 466.453125 431.253906 469.851562 435.429688 469.851562 L 496.027344 469.851562 C 500.207031 469.851562 503.605469 466.453125 503.605469 462.277344 L 503.605469 401.675781 C 503.605469 397.5 500.207031 394.101562 496.027344 394.101562"/></g><path fill="#2B2C2D" d="M 446.792969 428.191406 L 448.054688 428.191406 C 448.75 428.191406 449.316406 427.621094 449.316406 426.925781 C 449.316406 426.230469 448.75 425.664062 448.054688 425.664062 L 446.792969 425.664062 C 446.097656 425.664062 445.527344 426.230469 445.527344 426.925781 C 445.527344 427.621094 446.097656 428.191406 446.792969 428.191406"/><path fill="#2B2C2D" d="M 446.792969 433.238281 L 448.054688 433.238281 C 448.75 433.238281 449.316406 432.671875 449.316406 431.976562 C 449.316406 431.28125 448.75 430.714844 448.054688 430.714844 L 446.792969 430.714844 C 446.097656 430.714844 445.527344 431.28125 445.527344 431.976562 C 445.527344 432.671875 446.097656 433.238281 446.792969 433.238281"/><path fill="#2B2C2D" d="M 446.792969 438.289062 L 448.054688 438.289062 C 448.75 438.289062 449.316406 437.722656 449.316406 437.027344 C 449.316406 436.332031 448.75 435.765625 448.054688 435.765625 L 446.792969 435.765625 C 446.097656 435.765625 445.527344 436.332031 445.527344 437.027344 C 445.527344 437.722656 446.097656 438.289062 446.792969 438.289062"/><path fill="#2B2C2D" d="M 446.792969 443.339844 L 448.054688 443.339844 C 448.75 443.339844 449.316406 442.773438 449.316406 442.078125 C 449.316406 441.382812 448.75 440.816406 448.054688 440.816406 L 446.792969 440.816406 C 446.097656 440.816406 445.527344 441.382812 445.527344 442.078125 C 445.527344 442.773438 446.097656 443.339844 446.792969 443.339844"/><path fill="#2B2C2D" d="M 446.792969 448.390625 L 448.054688 448.390625 C 448.75 448.390625 449.316406 447.824219 449.316406 447.128906 C 449.316406 446.433594 448.75 445.863281 448.054688 445.863281 L 446.792969 445.863281 C 446.097656 445.863281 445.527344 446.433594 445.527344 447.128906 C 445.527344 447.824219 446.097656 448.390625 446.792969 448.390625"/><path fill="#2B2C2D" d="M 446.792969 453.441406 L 448.054688 453.441406 C 448.75 453.441406 449.316406 452.871094 449.316406 452.175781 C 449.316406 451.480469 448.75 450.914062 448.054688 450.914062 L 446.792969 450.914062 C 446.097656 450.914062 445.527344 451.480469 445.527344 452.175781 C 445.527344 452.871094 446.097656 453.441406 446.792969 453.441406"/><path fill="#2B2C2D" d="M 446.792969 458.488281 L 448.054688 458.488281 C 448.75 458.488281 449.316406 457.921875 449.316406 457.226562 C 449.316406 456.53125 448.75 455.964844 448.054688 455.964844 L 446.792969 455.964844 C 446.097656 455.964844 445.527344 456.53125 445.527344 457.226562 C 445.527344 457.921875 446.097656 458.488281 446.792969 458.488281"/><path fill="#2B2C2D" d="M 446.792969 463.539062 L 448.054688 463.539062 C 448.75 463.539062 449.316406 462.972656 449.316406 462.277344 C 449.316406 461.582031 448.75 461.015625 448.054688 461.015625 L 446.792969 461.015625 C 446.097656 461.015625 445.527344 461.582031 445.527344 462.277344 C 445.527344 462.972656 446.097656 463.539062 446.792969 463.539062"/><path fill="#2B2C2D" d="M 453.105469 463.539062 L 459.417969 463.539062 C 460.113281 463.539062 460.679688 462.972656 460.679688 462.277344 C 460.679688 461.582031 460.113281 461.015625 459.417969 461.015625 L 453.105469 461.015625 C 452.410156 461.015625 451.839844 461.582031 451.839844 462.277344 C 451.839844 462.972656 452.410156 463.539062 453.105469 463.539062"/><path fill="#2B2C2D" d="M 464.464844 463.539062 L 475.828125 463.539062 C 476.523438 463.539062 477.089844 462.972656 477.089844 462.277344 C 477.089844 461.582031 476.523438 461.015625 475.828125 461.015625 L 464.464844 461.015625 C 463.769531 461.015625 463.203125 461.582031 463.203125 462.277344 C 463.203125 462.972656 463.769531 463.539062 464.464844 463.539062"/><path fill="#2B2C2D" d="M 453.105469 448.390625 L 459.417969 448.390625 C 460.113281 448.390625 460.679688 447.824219 460.679688 447.128906 C 460.679688 446.433594 460.113281 445.863281 459.417969 445.863281 L 453.105469 445.863281 C 452.410156 445.863281 451.839844 446.433594 451.839844 447.128906 C 451.839844 447.824219 452.410156 448.390625 453.105469 448.390625"/><path fill="#2B2C2D" d="M 453.105469 453.441406 L 459.417969 453.441406 C 460.113281 453.441406 460.679688 452.871094 460.679688 452.175781 C 460.679688 451.480469 460.113281 450.914062 459.417969 450.914062 L 453.105469 450.914062 C 452.410156 450.914062 451.839844 451.480469 451.839844 452.175781 C 451.839844 452.871094 452.410156 453.441406 453.105469 453.441406"/><path fill="#2B2C2D" d="M 474.566406 447.128906 C 474.566406 446.433594 474 445.863281 473.304688 445.863281 L 464.464844 445.863281 C 463.769531 445.863281 463.203125 446.433594 463.203125 447.128906 C 463.203125 447.824219 463.769531 448.390625 464.464844 448.390625 L 473.304688 448.390625 C 474 448.390625 474.566406 447.824219 474.566406 447.128906"/><path fill="#2B2C2D" d="M 464.464844 450.914062 C 463.769531 450.914062 463.203125 451.480469 463.203125 452.175781 C 463.203125 452.871094 463.769531 453.441406 464.464844 453.441406 L 470.777344 453.441406 C 471.472656 453.441406 472.042969 452.871094 472.042969 452.175781 C 472.042969 451.480469 471.472656 450.914062 470.777344 450.914062 L 464.464844 450.914062"/><path fill="#2B2C2D" d="M 453.105469 443.339844 L 454.367188 443.339844 C 455.0625 443.339844 455.628906 442.773438 455.628906 442.078125 C 455.628906 441.382812 455.0625 440.816406 454.367188 440.816406 L 453.105469 440.816406 C 452.410156 440.816406 451.839844 441.382812 451.839844 442.078125 C 451.839844 442.773438 452.410156 443.339844 453.105469 443.339844"/><path fill="#2B2C2D" d="M 458.152344 442.078125 C 458.152344 442.773438 458.722656 443.339844 459.417969 443.339844 L 468.253906 443.339844 C 468.949219 443.339844 469.515625 442.773438 469.515625 442.078125 C 469.515625 441.382812 468.949219 440.816406 468.253906 440.816406 L 459.417969 440.816406 C 458.722656 440.816406 458.152344 441.382812 458.152344 442.078125"/><path fill="#2B2C2D" d="M 485.929688 442.078125 C 485.929688 441.382812 485.363281 440.816406 484.667969 440.816406 L 473.304688 440.816406 C 472.609375 440.816406 472.042969 441.382812 472.042969 442.078125 C 472.042969 442.773438 472.609375 443.339844 473.304688 443.339844 L 484.667969 443.339844 C 485.363281 443.339844 485.929688 442.773438 485.929688 442.078125"/><path fill="#2B2C2D" d="M 460.679688 433.238281 L 484.667969 433.238281 C 485.363281 433.238281 485.929688 432.671875 485.929688 431.976562 C 485.929688 431.28125 485.363281 430.714844 484.667969 430.714844 L 460.679688 430.714844 C 459.984375 430.714844 459.417969 431.28125 459.417969 431.976562 C 459.417969 432.671875 459.984375 433.238281 460.679688 433.238281"/><path fill="#2B2C2D" d="M 453.105469 433.238281 L 455.628906 433.238281 C 456.324219 433.238281 456.890625 432.671875 456.890625 431.976562 C 456.890625 431.28125 456.324219 430.714844 455.628906 430.714844 L 453.105469 430.714844 C 452.410156 430.714844 451.839844 431.28125 451.839844 431.976562 C 451.839844 432.671875 452.410156 433.238281 453.105469 433.238281"/><path fill="#2B2C2D" d="M 453.105469 458.488281 L 454.367188 458.488281 C 455.0625 458.488281 455.628906 457.921875 455.628906 457.226562 C 455.628906 456.53125 455.0625 455.964844 454.367188 455.964844 L 453.105469 455.964844 C 452.410156 455.964844 451.839844 456.53125 451.839844 457.226562 C 451.839844 457.921875 452.410156 458.488281 453.105469 458.488281"/><path fill="#2B2C2D" d="M 469.515625 457.226562 C 469.515625 456.53125 468.949219 455.964844 468.253906 455.964844 L 459.417969 455.964844 C 458.722656 455.964844 458.152344 456.53125 458.152344 457.226562 C 458.152344 457.921875 458.722656 458.488281 459.417969 458.488281 L 468.253906 458.488281 C 468.949219 458.488281 469.515625 457.921875 469.515625 457.226562"/><path fill="#2B2C2D" d="M 478.355469 457.226562 C 478.355469 456.53125 477.785156 455.964844 477.089844 455.964844 L 473.304688 455.964844 C 472.609375 455.964844 472.042969 456.53125 472.042969 457.226562 C 472.042969 457.921875 472.609375 458.488281 473.304688 458.488281 L 477.089844 458.488281 C 477.785156 458.488281 478.355469 457.921875 478.355469 457.226562"/><path fill="#2B2C2D" d="M 453.105469 438.289062 L 458.152344 438.289062 C 458.847656 438.289062 459.417969 437.722656 459.417969 437.027344 C 459.417969 436.332031 458.847656 435.765625 458.152344 435.765625 L 453.105469 435.765625 C 452.410156 435.765625 451.839844 436.332031 451.839844 437.027344 C 451.839844 437.722656 452.410156 438.289062 453.105469 438.289062"/><path fill="#2B2C2D" d="M 468.253906 438.289062 C 468.949219 438.289062 469.515625 437.722656 469.515625 437.027344 C 469.515625 436.332031 468.949219 435.765625 468.253906 435.765625 L 463.203125 435.765625 C 462.507812 435.765625 461.941406 436.332031 461.941406 437.027344 C 461.941406 437.722656 462.507812 438.289062 463.203125 438.289062 L 468.253906 438.289062"/><path fill="#2B2C2D" d="M 458.152344 425.664062 L 453.105469 425.664062 C 452.410156 425.664062 451.839844 426.230469 451.839844 426.925781 C 451.839844 427.621094 452.410156 428.191406 453.105469 428.191406 L 458.152344 428.191406 C 458.847656 428.191406 459.417969 427.621094 459.417969 426.925781 C 459.417969 426.230469 458.847656 425.664062 458.152344 425.664062"/><path fill="#2B2C2D" d="M 461.941406 426.925781 C 461.941406 427.621094 462.507812 428.191406 463.203125 428.191406 L 475.828125 428.191406 C 476.523438 428.191406 477.089844 427.621094 477.089844 426.925781 C 477.089844 426.230469 476.523438 425.664062 475.828125 425.664062 L 463.203125 425.664062 C 462.507812 425.664062 461.941406 426.230469 461.941406 426.925781"/><path fill="#2B2C2D" d="M 473.304688 438.289062 L 478.355469 438.289062 C 479.050781 438.289062 479.617188 437.722656 479.617188 437.027344 C 479.617188 436.332031 479.050781 435.765625 478.355469 435.765625 L 473.304688 435.765625 C 472.609375 435.765625 472.042969 436.332031 472.042969 437.027344 C 472.042969 437.722656 472.609375 438.289062 473.304688 438.289062"/><path fill="#2B2C2D" d="M 450.578125 413.039062 C 449.882812 413.039062 449.316406 413.605469 449.316406 414.300781 L 449.316406 421.878906 C 449.316406 422.574219 449.882812 423.140625 450.578125 423.140625 C 451.273438 423.140625 451.839844 422.574219 451.839844 421.878906 L 451.839844 419.351562 L 454.367188 419.351562 L 454.367188 421.878906 C 454.367188 422.574219 454.933594 423.140625 455.628906 423.140625 C 456.324219 423.140625 456.890625 422.574219 456.890625 421.878906 L 456.890625 414.300781 C 456.890625 413.605469 456.324219 413.039062 455.628906 413.039062 C 454.933594 413.039062 454.367188 413.605469 454.367188 414.300781 L 454.367188 416.828125 L 451.839844 416.828125 L 451.839844 414.300781 C 451.839844 413.605469 451.273438 413.039062 450.578125 413.039062"/><path fill="#2B2C2D" d="M 463.203125 413.039062 L 460.679688 413.039062 C 459.984375 413.039062 459.417969 413.605469 459.417969 414.300781 C 459.417969 414.996094 459.984375 415.566406 460.679688 415.566406 L 460.679688 421.878906 C 460.679688 422.574219 461.246094 423.140625 461.941406 423.140625 C 462.636719 423.140625 463.203125 422.574219 463.203125 421.878906 L 463.203125 415.566406 C 463.898438 415.566406 464.464844 414.996094 464.464844 414.300781 C 464.464844 413.605469 463.898438 413.039062 463.203125 413.039062"/><path fill="#2B2C2D" d="M 473.304688 423.140625 C 474 423.140625 474.566406 422.574219 474.566406 421.878906 L 474.566406 414.300781 C 474.566406 413.746094 474.203125 413.257812 473.667969 413.09375 C 473.136719 412.929688 472.558594 413.136719 472.253906 413.601562 L 470.777344 415.816406 L 469.304688 413.601562 C 469 413.136719 468.417969 412.929688 467.890625 413.09375 C 467.355469 413.257812 466.992188 413.746094 466.992188 414.300781 L 466.992188 421.878906 C 466.992188 422.574219 467.558594 423.140625 468.253906 423.140625 C 468.949219 423.140625 469.515625 422.574219 469.515625 421.878906 L 469.515625 418.46875 L 469.730469 418.789062 C 470.195312 419.488281 471.359375 419.488281 471.828125 418.789062 L 472.042969 418.46875 L 472.042969 421.878906 C 472.042969 422.574219 472.609375 423.140625 473.304688 423.140625"/><path fill="#2B2C2D" d="M 478.355469 413.039062 C 477.660156 413.039062 477.089844 413.605469 477.089844 414.300781 L 477.089844 421.878906 C 477.089844 422.574219 477.660156 423.140625 478.355469 423.140625 L 480.878906 423.140625 C 481.574219 423.140625 482.140625 422.574219 482.140625 421.878906 C 482.140625 421.183594 481.574219 420.613281 480.878906 420.613281 L 479.617188 420.613281 L 479.617188 414.300781 C 479.617188 413.605469 479.050781 413.039062 478.355469 413.039062"/><g clip-path="url(#g)"><path fill="#F4F4E6" d="M 575.292969 423.492188 C 572.007812 423.492188 569.347656 420.828125 569.347656 417.542969 L 569.347656 411.597656 L 518.792969 411.597656 L 518.792969 352.125 L 533.660156 352.125 L 533.660156 337.257812 L 581.242188 337.257812 L 581.242188 417.542969 C 581.242188 420.828125 578.582031 423.492188 575.292969 423.492188"/></g><g clip-path="url(#h)"><path fill="#CFDFE8" d="M 533.660156 352.125 L 518.792969 352.125 L 533.660156 337.257812 Z M 533.660156 352.125"/></g><g clip-path="url(#i)"><path fill="#F9BB4B" d="M 597.597656 364.019531 L 539.609375 364.019531 L 539.609375 343.203125 L 597.597656 343.203125 L 597.597656 364.019531"/></g><g clip-path="url(#j)"><path fill="#CFDFE8" d="M 518.792969 423.492188 C 515.511719 423.492188 512.847656 420.828125 512.847656 417.542969 L 512.847656 411.597656 L 569.347656 411.597656 L 569.347656 417.542969 C 569.347656 420.828125 572.007812 423.492188 575.292969 423.492188 L 518.792969 423.492188"/></g><path fill="#87CEE9" d="M 526.226562 359.558594 L 523.253906 359.558594 L 523.253906 356.585938 L 526.226562 356.585938 L 526.226562 359.558594"/><path fill="#87CEE9" d="M 532.175781 364.019531 L 529.203125 364.019531 L 529.203125 361.046875 L 532.175781 361.046875 L 532.175781 364.019531"/><path fill="#87CEE9" d="M 576.78125 410.109375 L 573.808594 410.109375 L 573.808594 407.136719 L 576.78125 407.136719 L 576.78125 410.109375"/><path fill="#394D5C" d="M 547.042969 359.558594 L 544.070312 359.558594 L 544.070312 347.664062 L 547.042969 347.664062 L 547.042969 359.558594"/><path fill="#394D5C" d="M 551.503906 355.097656 L 545.558594 355.097656 L 545.558594 352.125 L 551.503906 352.125 L 551.503906 355.097656"/><path fill="#394D5C" d="M 552.992188 359.558594 L 550.015625 359.558594 L 550.015625 347.664062 L 552.992188 347.664062 L 552.992188 359.558594"/><path fill="#394D5C" d="M 564.886719 350.636719 L 555.964844 350.636719 L 555.964844 347.664062 L 564.886719 347.664062 L 564.886719 350.636719"/><path fill="#394D5C" d="M 561.910156 359.558594 L 558.9375 359.558594 L 558.9375 349.152344 L 561.910156 349.152344 L 561.910156 359.558594"/><path fill="#394D5C" d="M 582.726562 359.558594 L 579.753906 359.558594 L 579.753906 350.636719 L 579.183594 350.636719 L 576.625 355.765625 C 576.117188 356.769531 574.46875 356.769531 573.964844 355.765625 L 571.402344 350.636719 L 570.832031 350.636719 L 570.832031 359.558594 L 567.859375 359.558594 L 567.859375 349.152344 C 567.859375 348.332031 568.527344 347.664062 569.347656 347.664062 L 572.320312 347.664062 C 572.882812 347.664062 573.394531 347.984375 573.648438 348.484375 L 575.292969 351.777344 L 576.9375 348.484375 C 577.191406 347.984375 577.703125 347.664062 578.265625 347.664062 L 581.242188 347.664062 C 582.058594 347.664062 582.726562 348.332031 582.726562 349.152344 L 582.726562 359.558594"/><path fill="#394D5C" d="M 593.136719 359.558594 L 587.1875 359.558594 C 586.371094 359.558594 585.703125 358.890625 585.703125 358.070312 L 585.703125 347.664062 L 588.675781 347.664062 L 588.675781 356.585938 L 593.136719 356.585938 L 593.136719 359.558594"/><path fill="#EB8CB3" d="M 545.558594 401.191406 L 524.742188 401.191406 L 524.742188 398.214844 L 545.558594 398.214844 L 545.558594 401.191406"/><path fill="#EB8CB3" d="M 566.371094 401.191406 L 548.53125 401.191406 L 548.53125 398.214844 L 566.371094 398.214844 L 566.371094 401.191406"/><path fill="#EB8CB3" d="M 539.609375 407.136719 L 524.742188 407.136719 L 524.742188 404.164062 L 539.609375 404.164062 L 539.609375 407.136719"/><path fill="#EB8CB3" d="M 548.53125 407.136719 L 542.582031 407.136719 L 542.582031 404.164062 L 548.53125 404.164062 L 548.53125 407.136719"/><path fill="#EB8CB3" d="M 569.347656 407.136719 L 551.503906 407.136719 L 551.503906 404.164062 L 569.347656 404.164062 L 569.347656 407.136719"/><path fill="#C83528" d="M 524.742188 381.859375 L 533.660156 390.78125 L 538.121094 386.320312 L 533.660156 381.859375 L 538.121094 377.402344 L 533.660156 372.941406 L 524.742188 381.859375"/><path fill="#C83528" d="M 575.292969 381.859375 L 566.371094 390.78125 L 561.910156 386.320312 L 566.371094 381.859375 L 561.910156 377.402344 L 566.371094 372.941406 L 575.292969 381.859375"/><path fill="#C83528" d="M 552.992188 369.964844 L 539.609375 393.753906 L 547.042969 393.753906 L 560.425781 369.964844 L 552.992188 369.964844"/></svg>