<svg xmlns="http://www.w3.org/2000/svg" width="810" viewBox="0 0 810 810" height="810" version="1.0"><defs><clipPath id="a"><path d="M 540 332.605469 L 680 332.605469 L 680 435 L 540 435 Z M 540 332.605469"/></clipPath></defs><path fill="#6C95D5" d="M 196.371094 566.617188 C 195.582031 566.425781 194.722656 566.371094 193.878906 566.332031 C 147.90625 564.1875 48.25 567.324219 48.25 567.324219 C 49.980469 581.300781 59.644531 631.324219 67.703125 646.792969 C 73.230469 657.40625 81.320312 666.324219 97.890625 671.714844 C 108.621094 675.199219 121.117188 676.445312 133.082031 675.417969 C 151.601562 673.835938 165.738281 665.648438 173.757812 655.476562 C 183.378906 643.277344 195.625 584.433594 198.03125 569.019531 C 198.339844 567.027344 198.09375 567.039062 196.371094 566.617188"/><path fill="#85B1E2" d="M 63.722656 561.136719 C 57.246094 561.820312 48.988281 563.945312 48.316406 566.855469 C 47.492188 570.441406 54.015625 574.550781 62.304688 576.054688 C 94.628906 581.90625 127.550781 580.558594 160.527344 578.484375 C 170.574219 577.847656 180.941406 575.835938 188.835938 573.328125 C 193.199219 571.941406 200.09375 568.859375 198.144531 565.578125 C 196.511719 562.835938 188.367188 560.867188 183.128906 560.414062 C 147.890625 557.386719 102.042969 557.105469 63.722656 561.136719"/><path fill="#4668AD" d="M 184.683594 572.558594 C 177.292969 574.605469 167.574219 576.25 158.167969 576.753906 C 154.738281 576.953125 151.308594 577.121094 147.871094 577.285156 C 147.742188 577.292969 147.613281 577.292969 147.472656 577.304688 C 146.691406 577.347656 145.902344 577.375 145.117188 577.40625 C 143.675781 577.472656 142.21875 577.546875 140.773438 577.601562 C 137.730469 577.742188 134.703125 577.855469 131.664062 577.9375 C 130.746094 577.972656 129.835938 577.988281 128.925781 578.011719 C 126.5 578.085938 124.082031 578.121094 121.660156 578.152344 C 121.089844 578.164062 120.523438 578.164062 119.945312 578.164062 C 119.605469 578.175781 119.261719 578.175781 118.917969 578.175781 C 116.597656 578.203125 114.277344 578.210938 111.964844 578.1875 C 111.363281 578.1875 110.753906 578.175781 110.152344 578.175781 C 109.230469 578.164062 108.328125 578.144531 107.40625 578.132812 C 105.550781 578.097656 103.703125 578.050781 101.855469 577.984375 C 101.179688 577.972656 100.503906 577.9375 99.824219 577.914062 C 98.882812 577.878906 97.953125 577.84375 97.023438 577.8125 C 96.257812 577.777344 95.5 577.742188 94.734375 577.679688 C 85.164062 577.191406 75.648438 576.269531 66.183594 574.777344 C 58.414062 573.558594 52.304688 570.207031 53.082031 567.292969 C 53.699219 564.914062 61.4375 563.183594 67.5 562.628906 C 75.636719 561.882812 84.136719 561.320312 92.8125 560.917969 C 93.242188 560.894531 93.675781 560.871094 94.097656 560.863281 C 94.59375 560.839844 95.074219 560.828125 95.566406 560.804688 C 97.265625 560.734375 98.96875 560.671875 100.675781 560.613281 C 102.71875 560.539062 104.753906 560.472656 106.796875 560.425781 C 107.71875 560.40625 108.625 560.375 109.542969 560.363281 C 111.617188 560.324219 113.683594 560.277344 115.75 560.253906 C 116.15625 560.253906 116.5625 560.242188 116.964844 560.242188 C 117.882812 560.214844 118.789062 560.207031 119.710938 560.207031 C 120.714844 560.191406 121.722656 560.191406 122.722656 560.191406 C 125.417969 560.175781 128.109375 560.183594 130.765625 560.191406 C 131.679688 560.191406 132.605469 560.207031 133.511719 560.207031 C 137.46875 560.242188 141.40625 560.324219 145.292969 560.414062 C 146.03125 560.425781 146.753906 560.4375 147.472656 560.457031 C 148.390625 560.484375 149.320312 560.519531 150.238281 560.539062 C 150.699219 560.550781 151.144531 560.574219 151.59375 560.585938 C 161.324219 560.90625 170.6875 561.398438 179.347656 562.046875 C 179.449219 562.058594 179.554688 562.058594 179.65625 562.066406 C 184.566406 562.480469 191.910156 564.066406 193.417969 566.257812 C 193.511719 566.40625 193.582031 566.539062 193.632812 566.683594 C 194.550781 569.183594 188.554688 571.496094 184.683594 572.558594"/><path fill="#96D894" d="M 153.339844 495.234375 C 156.011719 492.230469 179.464844 474.992188 181.605469 480.226562 C 181.949219 481.070312 181.804688 482.027344 181.664062 482.929688 C 180.644531 489.488281 180.257812 496.152344 180.53125 502.792969 C 180.59375 504.265625 181.347656 511.460938 184.585938 508.855469 C 185.375 508.222656 185.632812 507.144531 185.84375 506.144531 C 187.46875 498.429688 189.097656 490.710938 190.714844 482.996094 C 191.105469 481.164062 191.519531 479.265625 192.632812 477.753906 C 195.652344 473.652344 202.554688 473.632812 207.117188 472.914062 C 211.847656 472.175781 216.621094 471.886719 221.445312 471.632812 C 222.351562 471.582031 223.328125 471.550781 224.085938 472.050781 C 227.605469 474.351562 219.859375 487.097656 218.878906 490.429688 C 218.53125 491.605469 218.285156 493.082031 219.203125 493.90625 C 220.484375 493.800781 221.351562 492.605469 222.042969 491.523438 C 225.417969 486.617188 228.121094 479.285156 232.433594 475.226562 C 235.707031 472.144531 243.558594 475.839844 247.679688 476.785156 C 252.445312 477.875 257.089844 479.527344 261.46875 481.703125 C 262.480469 482.210938 263.546875 482.804688 264.101562 483.792969 C 264.652344 484.777344 264.601562 485.976562 264.542969 487.105469 C 264.039062 495.804688 262.945312 502.363281 257.089844 508.980469 C 256.332031 509.835938 255.53125 510.714844 254.46875 511.121094 C 253.550781 511.460938 252.546875 511.414062 251.570312 511.363281 C 247.070312 511.101562 242.570312 510.851562 238.078125 510.59375 C 237.042969 510.539062 235.988281 510.484375 234.996094 510.800781 C 228.621094 512.878906 244.628906 519.929688 246.5625 520.695312 C 247.574219 521.097656 248.789062 521.753906 248.71875 522.84375 C 248.378906 527.789062 243.949219 531.921875 240.539062 535.128906 C 238.316406 537.226562 233.410156 542.40625 229.878906 541.703125 C 228.257812 541.378906 226.792969 540.515625 225.34375 539.699219 C 216.949219 534.917969 208 531.128906 198.726562 528.425781 C 197.34375 528.019531 193.914062 527.417969 193.136719 529.191406 C 192.09375 531.558594 197.726562 534.273438 199.339844 535.472656 C 205.597656 540.128906 211.84375 544.777344 218.09375 549.433594 C 218.550781 549.777344 219.03125 550.148438 219.214844 550.691406 C 219.496094 551.519531 218.96875 552.386719 218.460938 553.113281 C 211.636719 562.921875 196.152344 570.230469 184.601562 564.894531 C 173.703125 559.855469 168.566406 550.71875 164.964844 539.699219 C 164.414062 538.007812 163.855469 536.269531 162.742188 534.878906 C 162.023438 533.980469 161.101562 533.273438 160.214844 532.535156 C 150.714844 524.582031 143.929688 508.917969 151.707031 497.332031 C 152.1875 496.617188 152.734375 495.917969 153.339844 495.234375"/><path fill="#74B970" d="M 246.539062 495.144531 C 234.703125 498.902344 223.105469 503.335938 211.820312 508.421875 C 210.671875 508.941406 209.535156 509.457031 208.402344 509.996094 C 203.925781 512.070312 199.507812 514.257812 195.101562 516.539062 C 189.558594 519.402344 183.996094 522.121094 178.867188 525.371094 C 175.921875 527.21875 173.140625 529.285156 170.550781 531.558594 C 168.625 533.21875 166.785156 535.015625 165.050781 536.90625 C 164.800781 537.199219 164.546875 537.472656 164.292969 537.761719 C 163.546875 538.601562 162.792969 539.445312 162.113281 540.300781 C 161.207031 541.445312 160.367188 542.652344 159.539062 543.894531 C 157.925781 546.367188 156.480469 549.011719 155.195312 551.722656 C 153.832031 554.605469 152.625 557.566406 151.59375 560.585938 C 150.648438 563.257812 149.847656 565.984375 149.160156 568.730469 C 148.460938 571.566406 147.871094 574.429688 147.472656 577.304688 C 146.691406 577.347656 145.902344 577.375 145.117188 577.40625 C 143.675781 577.472656 142.21875 577.546875 140.773438 577.601562 C 141.320312 574.035156 142.152344 570.542969 143.117188 567.109375 C 143.765625 564.847656 144.488281 562.617188 145.292969 560.414062 C 146.683594 556.585938 148.300781 552.847656 150.171875 549.21875 C 151.640625 546.359375 153.289062 543.578125 155.160156 540.90625 C 156.101562 539.585938 157.09375 538.273438 158.15625 537.027344 C 159.222656 535.769531 160.320312 534.667969 161.414062 533.535156 C 161.4375 533.511719 161.445312 533.5 161.472656 533.476562 C 162.484375 532.453125 163.539062 531.453125 164.617188 530.5 C 168.328125 527.171875 172.40625 524.226562 176.699219 521.765625 C 182.230469 518.574219 187.960938 516.054688 193.582031 513.441406 C 199.023438 510.878906 204.542969 508.421875 210.121094 506.136719 C 210.328125 506.046875 210.523438 505.964844 210.726562 505.882812 C 222.300781 501.1875 234.132812 497.15625 246.15625 493.835938 C 246.511719 493.738281 246.894531 493.953125 246.996094 494.320312 C 247.097656 494.675781 246.894531 495.046875 246.539062 495.144531"/><path fill="#96D894" d="M 42.917969 529.03125 C 41.429688 529.140625 39.933594 529.117188 38.4375 528.949219 C 29.390625 528.949219 20.699219 523.351562 14.34375 517.476562 C 14.121094 517.273438 13.890625 517.035156 13.855469 516.738281 C 13.804688 516.277344 14.253906 515.933594 14.648438 515.683594 C 23.507812 510.207031 33.484375 506.5625 43.78125 505.039062 C 46.933594 504.566406 50.339844 504.210938 52.765625 502.132812 C 52.695312 500.847656 51.265625 500.148438 50.03125 499.796875 C 43.375 497.921875 36.242188 498.5625 29.515625 500.167969 C 23.769531 501.550781 18.230469 503.617188 12.621094 505.417969 C 9.4375 506.4375 9.125 506.96875 8.183594 503.9375 C 7.355469 501.25 6.683594 498.511719 6.089844 495.753906 C 3.707031 484.710938 2.878906 473.402344 1.738281 462.183594 C 1.214844 457.003906 7.425781 457.96875 10.667969 458.582031 C 16.28125 459.652344 22.511719 460.914062 28.199219 459.8125 C 27.257812 456.824219 24.261719 455.0625 21.503906 453.582031 C 17.707031 451.535156 13.910156 449.488281 10.109375 447.449219 C 6.296875 445.386719 2.152344 442.949219 0.84375 438.8125 C 0.0078125 436.167969 0.523438 433.308594 1.039062 430.582031 C 2.382812 423.550781 3.398438 416.714844 5.652344 409.945312 C 6.371094 408.0625 7.277344 406.050781 9.066406 405.109375 C 15.4375 401.78125 23.445312 404.371094 29.648438 406.824219 C 31.863281 407.703125 36.078125 408.75 37.726562 410.527344 C 40.289062 413.277344 40.222656 419.539062 40.613281 423.039062 C 41.292969 429.171875 42.289062 435.277344 43.589844 441.316406 C 44.023438 443.300781 48.253906 450.234375 48.578125 444.691406 C 48.988281 437.703125 49.398438 430.710938 49.800781 423.722656 C 49.945312 421.339844 50.113281 418.847656 51.363281 416.816406 C 55.25 419.601562 59.484375 422.507812 63.644531 424.898438 C 68.902344 427.925781 78.964844 430.648438 80.339844 437.5625 C 81.300781 442.417969 78.765625 449.195312 78.140625 454.121094 C 77.355469 460.40625 76.808594 466.71875 76.5 473.039062 C 77.335938 473.269531 77.957031 472.292969 78.269531 471.488281 C 80.1875 466.558594 82.289062 461.660156 85.058594 457.148438 C 86.863281 454.210938 92.121094 445.476562 96.136719 446.121094 C 98.097656 446.433594 100.824219 449.6875 102.269531 450.964844 C 104.308594 452.742188 106.28125 454.605469 108.09375 456.617188 C 111.726562 460.664062 114.6875 465.292969 116.277344 470.519531 C 119.4375 480.925781 110.972656 490.34375 102.832031 496.046875 C 96.453125 500.519531 89.097656 503.375 81.800781 506.117188 C 79.644531 506.933594 77.457031 507.75 75.570312 509.0625 C 73.765625 510.316406 72.292969 511.96875 70.757812 513.53125 C 63.476562 520.941406 53.46875 528.261719 42.917969 529.03125"/><path fill="#74B970" d="M 101.855469 577.984375 C 101.179688 577.972656 100.503906 577.9375 99.824219 577.914062 C 98.882812 577.878906 97.953125 577.84375 97.023438 577.8125 C 96.257812 577.777344 95.5 577.742188 94.734375 577.679688 C 94.570312 572.042969 94.398438 566.441406 94.097656 560.863281 C 94.097656 560.792969 94.082031 560.734375 94.082031 560.671875 C 93.867188 556.914062 93.605469 553.15625 93.214844 549.449219 C 93.007812 547.601562 92.789062 545.761719 92.492188 543.960938 C 92.226562 542.136719 91.851562 540.414062 91.40625 538.601562 C 88.84375 527.679688 84.253906 517.261719 78.597656 507.390625 C 76.800781 504.230469 74.886719 501.128906 72.886719 498.089844 C 64.585938 485.507812 54.851562 473.828125 45.152344 462.097656 C 35.46875 450.390625 25.804688 438.492188 17.742188 425.554688 C 17.660156 425.429688 17.695312 425.253906 17.832031 425.171875 C 17.960938 425.097656 18.121094 425.140625 18.199219 425.253906 C 26.75 437.835938 36.777344 449.265625 46.90625 460.597656 C 57.035156 471.921875 67.292969 483.269531 76.246094 495.777344 C 78.542969 499.003906 80.765625 502.3125 82.871094 505.71875 C 88.902344 515.449219 93.960938 525.886719 97.070312 537.128906 C 97.613281 538.988281 98.101562 540.980469 98.449219 542.90625 C 98.828125 544.847656 99.113281 546.773438 99.390625 548.6875 C 99.917969 552.539062 100.300781 556.371094 100.640625 560.191406 L 100.675781 560.613281 C 101.167969 566.417969 101.523438 572.21875 101.855469 577.984375"/><path fill="#74B970" d="M 90 475.8125 C 90.621094 470.113281 103.695312 430.703125 110.496094 435.023438 C 111.59375 435.722656 112.214844 436.949219 112.789062 438.121094 C 117.011719 446.597656 122.0625 454.660156 127.847656 462.148438 C 129.132812 463.816406 135.945312 471.566406 137.554688 465.867188 C 137.953125 464.472656 137.363281 463 136.789062 461.671875 C 132.316406 451.355469 127.847656 441.042969 123.378906 430.730469 C 122.320312 428.273438 121.230469 425.726562 121.28125 423.050781 C 121.414062 415.789062 129.429688 410.0625 134.136719 405.464844 C 139.03125 400.695312 144.339844 396.421875 149.746094 392.140625 C 150.761719 391.34375 151.863281 390.503906 153.15625 390.449219 C 159.148438 390.222656 160.640625 411.4375 162.246094 416.113281 C 162.820312 417.777344 163.75 419.691406 165.496094 419.898438 C 166.890625 418.722656 166.925781 416.613281 166.828125 414.785156 C 166.714844 406.296875 163.8125 395.53125 165.484375 387.25 C 166.75 380.957031 178.929688 378.785156 184.496094 376.476562 C 190.9375 373.808594 197.695312 371.898438 204.582031 370.824219 C 206.1875 370.570312 207.898438 370.378906 209.371094 371.074219 C 210.824219 371.765625 211.757812 373.207031 212.609375 374.570312 C 219.199219 385.085938 223.328125 393.628906 221.976562 406.148438 C 221.800781 407.765625 221.601562 409.457031 220.691406 410.804688 C 219.914062 411.960938 218.703125 412.734375 217.519531 413.472656 C 212.082031 416.890625 206.636719 420.3125 201.191406 423.730469 C 199.949219 424.511719 198.671875 425.320312 197.789062 426.507812 C 192.082031 434.179688 216.503906 429.171875 219.394531 428.46875 C 220.898438 428.097656 222.847656 427.855469 223.664062 429.1875 C 227.34375 435.210938 225.601562 443.671875 224.28125 450.226562 C 223.425781 454.496094 221.988281 464.566406 217.3125 466.667969 C 215.152344 467.636719 212.734375 467.84375 210.382812 468.074219 C 196.679688 469.449219 183.140625 472.433594 170.132812 476.941406 C 168.1875 477.617188 163.710938 479.742188 164.261719 482.453125 C 165.003906 486.0625 173.792969 484.5625 176.652344 484.628906 C 187.761719 484.882812 198.867188 485.132812 209.972656 485.390625 C 210.789062 485.40625 211.648438 485.445312 212.308594 485.917969 C 213.320312 486.65625 213.425781 488.101562 213.433594 489.355469 C 213.578125 506.40625 201.601562 527.679688 183.765625 531.011719 C 166.945312 534.15625 153.4375 527.765625 140.167969 517.917969 C 138.132812 516.414062 136.046875 514.847656 133.609375 514.15625 C 132.03125 513.703125 130.375 513.636719 128.742188 513.503906 C 111.132812 512.105469 90.328125 499.496094 89.828125 479.59375 C 89.796875 478.367188 89.855469 477.105469 90 475.8125"/><path fill="#96D894" d="M 198.875 391.820312 C 189.351562 406.847656 180.253906 422.148438 171.816406 437.804688 C 163.367188 453.445312 155.410156 469.347656 148.191406 485.558594 C 143.859375 495.320312 139.765625 505.183594 136.046875 515.164062 C 133.582031 521.777344 131.273438 528.4375 129.175781 535.152344 C 126.675781 543.410156 124.4375 551.777344 122.722656 560.191406 C 121.5 566.167969 120.542969 572.160156 119.945312 578.164062 C 119.605469 578.175781 119.261719 578.175781 118.917969 578.175781 C 116.597656 578.203125 114.277344 578.210938 111.964844 578.1875 C 112.984375 572.128906 114.261719 566.152344 115.75 560.253906 C 118.035156 551.144531 120.800781 542.214844 123.875 533.410156 C 126.171875 526.773438 128.671875 520.214844 131.320312 513.714844 C 135.425781 503.621094 139.902344 493.699219 144.628906 483.90625 C 152.386719 467.808594 160.867188 452.089844 169.8125 436.679688 C 178.808594 421.269531 188.125 406.082031 198.027344 391.269531 C 198.175781 391.03125 198.492188 390.96875 198.738281 391.121094 C 198.96875 391.277344 199.023438 391.585938 198.875 391.820312"/><path stroke-linecap="round" transform="matrix(.04492 0 0 -.04495 -71.243 1048.402)" fill="none" stroke-linejoin="round" d="M 4310.974578 9507.810554 C 4324.279439 8539.727116 4337.5843 6989.020982 4350.715241 6020.763757" stroke="#1F3863" stroke-width="76.626" stroke-miterlimit="10"/><path stroke-linecap="round" transform="matrix(.04492 0 0 -.04495 -71.243 1048.402)" fill="none" stroke-linejoin="round" d="M 5742.595007 9449.504838 C 5788.422861 9257.730298 6181.916298 6402.401173 6235.309661 6070.553884" stroke="#1F3863" stroke-width="76.626" stroke-miterlimit="10"/><path stroke-linecap="round" transform="matrix(.04492 0 0 -.04495 -71.243 1048.402)" fill="none" stroke-linejoin="round" d="M 2919.529611 9539.09231 C 2873.788716 9347.404664 2467.077379 6402.401173 2413.684015 6070.553884" stroke="#1F3863" stroke-width="76.626" stroke-miterlimit="10"/><path fill="#1F3863" d="M 188.960938 612.015625 C 188.691406 613.105469 188.417969 614.191406 188.136719 615.285156 C 188.894531 615.644531 189.417969 616.183594 189.703125 616.6875 C 189.894531 617.035156 190.167969 617.710938 189.835938 618.378906 C 188.84375 620.300781 186.277344 620.8125 183.796875 621.308594 C 183.257812 621.421875 182.742188 621.523438 182.25 621.636719 C 179 622.402344 175.613281 623.007812 171.902344 623.511719 C 164.699219 624.472656 157.316406 624.8125 151.683594 625.003906 C 124.355469 625.921875 95.183594 625.921875 67.082031 619.75 L 66.183594 619.550781 C 62.203125 618.703125 56.191406 617.417969 55.671875 613.285156 C 55.574219 612.417969 55.765625 611.671875 56.257812 611.117188 C 56.355469 611.003906 56.476562 610.90625 56.597656 610.816406 C 56.332031 609.679688 56.070312 608.550781 55.8125 607.417969 C 55.027344 607.75 54.316406 608.25 53.742188 608.894531 C 52.617188 610.167969 52.128906 611.878906 52.347656 613.699219 C 53.15625 620.203125 60.871094 621.84375 65.484375 622.832031 L 66.363281 623.015625 C 86.929688 627.539062 108 628.800781 128.503906 628.800781 C 136.375 628.800781 144.15625 628.613281 151.800781 628.359375 C 157.507812 628.164062 165.003906 627.8125 172.34375 626.828125 C 176.167969 626.316406 179.652344 625.6875 183.015625 624.898438 C 183.472656 624.796875 183.953125 624.703125 184.453125 624.601562 C 187.40625 624.011719 191.085938 623.277344 192.8125 619.90625 C 193.582031 618.410156 193.511719 616.640625 192.625 615.050781 C 191.851562 613.65625 190.527344 612.59375 188.960938 612.015625"/><path fill="#96D894" d="M 181.054688 614.945312 C 169.542969 600.664062 160.144531 584.207031 156.863281 566.164062 C 155.949219 561.15625 155.546875 555.839844 157.433594 551.117188 C 159.316406 546.398438 164.066406 542.503906 169.113281 543.0625 C 174.320312 543.644531 177.921875 548.398438 180.75 552.804688 C 190.816406 568.441406 199.449219 585.003906 206.503906 602.214844 C 209.085938 608.5 213.871094 622.878906 204.414062 626.054688 C 195.171875 629.167969 186.28125 621.433594 181.054688 614.945312"/><path fill="#96D894" d="M 165.460938 477.421875 C 160.902344 468.945312 155.257812 459.972656 156.789062 450.464844 C 157.785156 444.34375 162.113281 438.726562 167.984375 436.734375 C 174.070312 434.671875 180.988281 436.605469 186.132812 440.457031 C 191.28125 444.304688 194.90625 449.839844 197.917969 455.519531 C 201.835938 462.929688 204.898438 470.761719 207.714844 478.660156 C 215.59375 500.777344 221.648438 523.636719 224.292969 546.976562 C 225.226562 555.265625 227.941406 569.386719 220.65625 575.667969 C 215.109375 580.449219 206.96875 578.652344 202.640625 573.21875 C 196.242188 565.191406 193.066406 552.882812 189.789062 543.300781 C 186.179688 532.765625 183.039062 522.074219 179.519531 511.511719 C 175.628906 499.839844 171.292969 488.277344 165.460938 477.421875"/><path fill="#96D894" d="M 223.253906 515.714844 C 220.554688 508.800781 219.96875 501.203125 220.40625 493.785156 C 221.175781 480.632812 225.097656 467.671875 231.742188 456.296875 C 234.550781 451.496094 238.082031 446.769531 243.152344 444.488281 C 245.730469 443.339844 248.585938 442.882812 251.398438 442.90625 C 256.929688 442.953125 262.507812 444.90625 266.527344 448.703125 C 270.539062 452.496094 272.847656 458.183594 272.125 463.664062 C 271.734375 466.597656 270.535156 469.355469 269.355469 472.0625 C 269.355469 475.203125 265.53125 480.84375 264.273438 483.75 C 262.574219 487.640625 260.875 491.535156 259.179688 495.433594 C 255.722656 503.355469 252.285156 511.285156 248.820312 519.203125 C 241.90625 535 228.835938 530.011719 223.253906 515.714844"/><path fill="#96D894" d="M 267.453125 567.890625 C 272.480469 553.839844 280.945312 541.214844 290.824219 530.027344 C 294.375 525.996094 298.292969 522.019531 303.304688 520.085938 C 308.3125 518.152344 314.695312 518.804688 318.105469 522.960938 C 320.457031 525.824219 321.007812 529.851562 320.371094 533.507812 C 319.738281 537.167969 318.050781 540.542969 316.292969 543.8125 C 309.289062 556.875 300.980469 569.234375 291.523438 580.644531 C 286.625 586.546875 281.4375 592.234375 275.945312 597.574219 C 269.746094 603.597656 266.695312 600.796875 264.878906 593.019531 C 262.941406 584.699219 264.632812 575.796875 267.453125 567.890625"/><path fill="#96D894" d="M 254.242188 506.925781 C 258.054688 491.667969 265.703125 477.867188 279.363281 467.78125 C 283.734375 464.550781 288.910156 461.804688 294.320312 462.308594 C 301.011719 462.929688 306.480469 468.636719 308.34375 475.105469 C 310.207031 481.566406 309.011719 488.5625 306.683594 494.871094 C 303.789062 502.707031 299.226562 509.800781 294.503906 516.6875 C 287.082031 527.484375 279.171875 537.949219 271.109375 548.292969 C 268.273438 551.9375 262.339844 558.769531 256.917969 555.433594 C 244.28125 547.664062 251.390625 518.324219 254.242188 506.925781"/><path fill="#F39440" d="M 289.601562 662.445312 C 289.007812 662.21875 288.367188 662.15625 287.734375 662.101562 C 253.269531 659.523438 178.558594 663.296875 178.558594 663.296875 C 179.859375 680.140625 187.101562 740.382812 193.144531 759.011719 C 197.289062 771.792969 203.351562 782.546875 215.777344 789.027344 C 223.820312 793.222656 233.1875 794.722656 242.15625 793.492188 C 256.039062 791.582031 266.636719 781.722656 272.648438 769.472656 C 279.859375 754.78125 289.046875 683.902344 290.84375 665.335938 C 291.078125 662.9375 290.898438 662.957031 289.601562 662.445312"/><path fill="#F5AF4B" d="M 190.160156 655.851562 C 185.308594 656.675781 179.113281 659.234375 178.613281 662.734375 C 177.992188 667.050781 182.886719 672.003906 189.101562 673.8125 C 213.332031 680.863281 238.015625 679.242188 262.726562 676.742188 C 270.265625 675.976562 278.035156 673.550781 283.953125 670.527344 C 287.226562 668.859375 292.390625 665.144531 290.929688 661.199219 C 289.707031 657.902344 283.601562 655.519531 279.675781 654.980469 C 253.253906 651.332031 218.882812 650.992188 190.160156 655.851562"/><path fill="#DE752C" d="M 280.835938 669.601562 C 275.292969 672.066406 268.011719 674.039062 260.957031 674.660156 C 258.390625 674.878906 255.824219 675.101562 253.246094 675.292969 C 252.558594 675.363281 251.871094 675.40625 251.183594 675.449219 C 247.8125 675.707031 244.453125 675.921875 241.09375 676.078125 C 240.402344 676.121094 239.722656 676.148438 239.035156 676.171875 C 237.226562 676.25 235.402344 676.304688 233.597656 676.347656 C 232.90625 676.359375 232.226562 676.371094 231.535156 676.378906 C 229.347656 676.410156 227.15625 676.410156 224.960938 676.371094 C 224.273438 676.359375 223.59375 676.335938 222.910156 676.316406 C 221.003906 676.261719 219.117188 676.183594 217.222656 676.058594 C 216.523438 676.019531 215.824219 675.976562 215.121094 675.921875 C 207.378906 675.347656 199.667969 674.214844 192.003906 672.28125 C 186.1875 670.808594 181.59375 666.773438 182.179688 663.25 C 182.648438 660.40625 188.445312 658.308594 192.992188 657.648438 C 199.09375 656.746094 205.464844 656.066406 211.964844 655.585938 C 212.652344 655.535156 213.34375 655.496094 214.03125 655.441406 C 216.824219 655.257812 219.636719 655.105469 222.457031 654.996094 C 223.148438 654.960938 223.824219 654.9375 224.515625 654.921875 C 226.363281 654.847656 228.222656 654.792969 230.074219 654.761719 C 230.761719 654.746094 231.445312 654.730469 232.128906 654.71875 C 234.910156 654.691406 237.675781 654.679688 240.421875 654.707031 C 241.113281 654.707031 241.800781 654.71875 242.476562 654.730469 C 246.007812 654.785156 249.503906 654.882812 252.953125 655.027344 C 253.636719 655.058594 254.328125 655.105469 255.015625 655.136719 C 262.675781 655.515625 270.039062 656.121094 276.839844 656.933594 C 280.511719 657.378906 286.222656 659.3125 287.378906 662.011719 C 288.746094 665.21875 283.902344 668.246094 280.835938 669.601562"/><path fill="#74B970" d="M 217.222656 676.058594 C 216.523438 676.019531 215.824219 675.976562 215.121094 675.921875 C 214.152344 669.1875 213.167969 662.371094 211.964844 655.585938 C 210.179688 645.519531 207.925781 635.527344 204.589844 625.988281 L 204.589844 625.976562 C 198.597656 608.792969 187.230469 590.230469 177.207031 573.863281 C 175.886719 571.707031 174.59375 569.589844 173.351562 567.535156 C 173.046875 567.042969 173.207031 566.414062 173.691406 566.121094 C 174.167969 565.820312 174.808594 565.976562 175.101562 566.460938 C 176.355469 568.519531 177.648438 570.625 178.960938 572.777344 C 189 589.175781 200.367188 607.742188 206.453125 625.058594 C 206.484375 625.144531 206.507812 625.21875 206.535156 625.300781 C 209.9375 635.039062 212.222656 645.214844 214.03125 655.441406 C 215.246094 662.320312 216.246094 669.230469 217.222656 676.058594"/><path fill="#74B970" d="M 244.175781 480.6875 C 239.476562 493.601562 235.964844 509.367188 233.625 528.121094 C 229.519531 560.953125 229.035156 602.9375 232.128906 654.71875 C 232.554688 661.738281 233.039062 668.957031 233.597656 676.347656 C 232.90625 676.359375 232.226562 676.371094 231.535156 676.378906 C 230.984375 668.988281 230.5 661.785156 230.074219 654.761719 C 226.953125 602.5 227.472656 560.164062 231.683594 527.085938 C 234.03125 508.5 237.5625 492.84375 242.246094 479.976562 C 242.425781 479.449219 243.027344 479.175781 243.558594 479.371094 C 244.09375 479.5625 244.359375 480.152344 244.175781 480.6875"/><path fill="#74B970" d="M 299.71875 543.570312 C 286.515625 563.957031 276.261719 581.746094 268.742188 600.441406 C 262.046875 617.121094 257.527344 634.519531 255.015625 655.136719 C 254.222656 661.523438 253.636719 668.214844 253.246094 675.292969 C 252.558594 675.363281 251.871094 675.40625 251.183594 675.449219 C 251.570312 668.277344 252.15625 661.496094 252.953125 655.027344 C 255.519531 633.828125 260.1875 616.011719 267.125 598.921875 C 274.679688 580.378906 284.886719 562.679688 297.996094 542.445312 C 298.296875 541.972656 298.9375 541.84375 299.417969 542.148438 C 299.898438 542.453125 300.03125 543.097656 299.71875 543.570312"/><path fill="#74B970" d="M 224.960938 676.371094 C 224.273438 676.359375 223.59375 676.335938 222.910156 676.316406 C 222.898438 669.152344 222.746094 662.050781 222.457031 654.996094 C 221.429688 629.402344 218.609375 604.257812 213.828125 578.421875 C 208.105469 547.492188 199.578125 515.550781 187.914062 480.652344 C 187.726562 480.117188 188.027344 479.535156 188.5625 479.359375 C 189.097656 479.175781 189.679688 479.46875 189.867188 480.007812 C 201.578125 515.027344 210.132812 547.082031 215.863281 578.128906 C 220.65625 604.042969 223.472656 629.261719 224.515625 654.921875 C 224.800781 662.035156 224.953125 669.164062 224.960938 676.371094"/><path fill="#74B970" d="M 273.1875 507.609375 C 265.84375 523.183594 260.371094 538.949219 256.222656 554.964844 C 247.847656 587.207031 244.804688 620.410156 242.476562 654.730469 C 242.085938 660.625 241.707031 666.527344 241.324219 672.476562 L 241.09375 676.078125 C 240.402344 676.121094 239.722656 676.148438 239.035156 676.171875 L 239.28125 672.351562 C 239.660156 666.4375 240.03125 660.558594 240.421875 654.707031 C 242.78125 619.875 245.863281 586.191406 254.488281 553.429688 C 258.636719 537.652344 264.066406 522.089844 271.328125 506.726562 C 271.5625 506.210938 272.175781 505.992188 272.695312 506.230469 C 273.210938 506.476562 273.425781 507.097656 273.1875 507.609375"/><path fill="#1F3863" d="M 313.066406 808.773438 C 311.925781 808.585938 311.101562 807.71875 311.203125 806.808594 L 330.699219 551.890625 L 351.324219 555.164062 L 315.449219 807.480469 C 315.261719 808.378906 314.210938 808.953125 313.066406 808.773438"/><path fill="#1F3863" d="M 490.308594 808.773438 C 491.449219 808.585938 492.273438 807.71875 492.167969 806.808594 L 472.683594 551.890625 L 452.042969 555.164062 L 487.925781 807.480469 C 488.117188 808.378906 489.160156 808.953125 490.308594 808.773438"/><path fill="#1F3863" d="M 371.148438 796.9375 C 372.304688 796.945312 373.257812 796.242188 373.304688 795.347656 L 382.40625 544.550781 L 361.523438 544.453125 L 369.011719 795.332031 C 369.054688 796.226562 369.996094 796.929688 371.148438 796.9375"/><path fill="#1F3863" d="M 528.664062 796.910156 C 529.8125 796.738281 530.628906 795.851562 530.523438 794.90625 L 509.789062 534.117188 L 489.140625 537.234375 L 526.273438 795.546875 C 526.46875 796.480469 527.527344 797.085938 528.664062 796.910156"/><path fill="#C34844" d="M 413.871094 522.125 C 413.871094 503.585938 413.871094 485.046875 413.871094 466.511719 C 413.871094 447.789062 413.820312 429.0625 413.941406 410.347656 C 413.992188 400.820312 414.097656 391.308594 414.257812 381.792969 C 414.382812 374.558594 416.550781 359.234375 413.042969 354.96875 C 408.085938 348.9375 393.207031 349.976562 386.359375 349.914062 C 368.570312 349.757812 347.179688 349.765625 327.496094 349.765625 C 304.460938 349.765625 308.230469 366.910156 306.980469 400.074219 C 305.90625 428.273438 306.253906 456.5 306.628906 484.710938 C 306.808594 498.664062 306.871094 512.613281 307.035156 526.570312 C 307.148438 537.039062 305.90625 550.273438 313.285156 559.007812 C 318.28125 564.914062 325.136719 565.011719 332.027344 565.011719 C 357.464844 565.011719 382.914062 565.054688 408.355469 565.128906 C 433.617188 565.199219 459.332031 567.160156 484.492188 565.316406 C 494.429688 564.589844 499.933594 553.15625 505.527344 546.398438 C 507.128906 544.464844 520.320312 526.804688 520.328125 524.6875 C 520.339844 520.589844 505.917969 522.132812 500.148438 522.140625 C 490.605469 522.164062 481.066406 522.164062 471.523438 522.164062 C 452.4375 522.152344 433.34375 522.125 414.261719 522.125 C 414.128906 522.125 413.992188 522.125 413.871094 522.125"/><path fill="#AF3A3C" d="M 484.21875 558.027344 C 447.09375 558.246094 410.035156 557.597656 372.910156 557.996094 C 365.523438 558.078125 358.128906 558.128906 350.738281 557.90625 C 344.304688 557.707031 334.898438 556.695312 328.566406 555.445312 C 316.414062 553.046875 315.832031 545.796875 315.210938 535.566406 C 314.222656 519.449219 314.605469 503.925781 314.4375 489.515625 C 314.269531 475.050781 314.511719 460.578125 314.355469 446.113281 C 314.191406 431.207031 313.804688 416.296875 313.933594 401.390625 C 314 393.75 313.667969 386.105469 313.890625 378.464844 C 314.097656 371.632812 314.332031 364.050781 317.238281 357.722656 C 319.199219 353.453125 322.929688 351.9375 326.808594 349.78125 C 304.550781 350.132812 308.21875 367.257812 306.980469 400.074219 C 305.90625 428.273438 306.253906 456.5 306.628906 484.710938 C 306.808594 498.664062 306.871094 512.613281 307.035156 526.570312 C 307.148438 537.039062 305.90625 550.273438 313.285156 559.007812 C 318.28125 564.914062 325.136719 565.011719 332.027344 565.011719 C 357.464844 565.011719 382.90625 565.054688 408.355469 565.128906 C 433.617188 565.199219 459.332031 567.160156 484.492188 565.316406 C 489.703125 564.933594 493.683594 561.605469 497.109375 557.558594 C 492.816406 557.851562 488.519531 557.996094 484.21875 558.027344"/><path fill="#DE752C" d="M 800.332031 465.292969 L 246.171875 465.292969 C 240.851562 465.292969 236.5 460.9375 236.5 455.621094 L 236.5 455.132812 C 236.5 449.8125 240.851562 445.464844 246.171875 445.464844 L 800.332031 445.464844 C 805.648438 445.464844 810.003906 449.8125 810.003906 455.132812 L 810.003906 455.621094 C 810.003906 460.9375 805.648438 465.292969 800.332031 465.292969"/><path fill="#DE752C" d="M 260.007812 809.726562 C 257.195312 809.15625 255.054688 807.652344 255.25 806.363281 L 306.871094 462.789062 C 308.457031 452.316406 316.097656 454.257812 324.433594 455.933594 C 332.765625 457.621094 338.242188 458.316406 336.035156 468.667969 L 265.617188 808.453125 C 265.34375 809.730469 262.824219 810.289062 260.007812 809.726562"/><path fill="#DE752C" d="M 767.496094 809.726562 C 770.304688 809.15625 772.453125 807.652344 772.261719 806.363281 L 720.632812 462.792969 C 719.046875 452.3125 711.40625 454.261719 703.074219 455.9375 C 694.734375 457.617188 689.265625 458.316406 691.472656 468.667969 L 761.890625 808.453125 C 762.164062 809.730469 764.683594 810.289062 767.496094 809.726562"/><g clip-path="url(#a)"><path fill="#6C95D5" d="M 679.554688 434.933594 L 540.203125 434.933594 L 540.203125 341.070312 C 540.203125 336.402344 543.992188 332.625 548.652344 332.625 L 671.113281 332.625 C 675.773438 332.625 679.554688 336.402344 679.554688 341.070312 L 679.554688 434.933594"/></g><path fill="#4668AD" d="M 674.574219 445.457031 L 471.148438 445.457031 C 469.25 445.457031 467.710938 443.917969 467.710938 442.015625 L 467.710938 438.199219 C 467.710938 436.296875 469.25 434.75 471.148438 434.75 L 679.554688 434.75 L 679.554688 440.484375 C 679.554688 443.230469 677.320312 445.457031 674.574219 445.457031"/><path fill="#FFF" d="M 621.035156 383.710938 C 621.035156 388.246094 617.496094 391.921875 613.136719 391.921875 C 608.777344 391.921875 605.246094 388.246094 605.246094 383.710938 C 605.246094 379.179688 608.777344 375.503906 613.136719 375.503906 C 617.496094 375.503906 621.035156 379.179688 621.035156 383.710938"/><path fill="#F39440" d="M 477.175781 445.613281 C 476.617188 446.148438 475.738281 446.1875 474.253906 446.167969 C 467.105469 446.03125 459.976562 446.054688 452.832031 446.054688 C 451.875 446.054688 450.894531 446.101562 449.933594 446.054688 C 447.589844 445.941406 447.933594 442.167969 447.773438 440.496094 C 447.550781 438.214844 447.441406 435.925781 447.234375 433.652344 C 446.585938 426.503906 445.800781 419.378906 445.011719 412.253906 C 444.863281 410.910156 443.519531 396.421875 443.257812 396.421875 C 443.277344 396.421875 483.132812 396.421875 483.132812 396.421875 C 482.34375 403.589844 481.546875 410.757812 480.753906 417.925781 C 479.820312 426.339844 479.296875 435.050781 477.976562 443.484375 C 477.816406 444.5625 477.582031 445.214844 477.175781 445.613281"/><path fill="#AF3A3C" d="M 480.632812 425.351562 L 445.609375 425.351562 L 444.03125 413.273438 L 481.949219 413.273438 L 480.632812 425.351562"/><path fill="#AF3A3C" d="M 473.632812 419.316406 C 473.632812 424.820312 469.164062 429.292969 463.652344 429.292969 C 458.148438 429.292969 453.679688 424.820312 453.679688 419.316406 C 453.679688 413.804688 458.148438 409.335938 463.652344 409.335938 C 469.164062 409.335938 473.632812 413.804688 473.632812 419.316406"/><path transform="matrix(.04492 0 0 -.04495 -71.243 1048.402)" fill="none" d="M 12085.709201 13993.87497 C 12085.709201 13895.598122 12006.053955 13816.003433 11907.702336 13816.003433 C 11809.611597 13816.003433 11729.869391 13895.598122 11729.869391 13993.87497 C 11729.869391 14092.151819 11809.611597 14171.833402 11907.702336 14171.833402 C 12006.053955 14171.833402 12085.709201 14092.151819 12085.709201 13993.87497 Z M 12085.709201 13993.87497" stroke="#FFF" stroke-width="11.127" stroke-miterlimit="10"/><path fill="#DE752C" d="M 485.003906 396.332031 C 484.960938 396.378906 484.910156 396.417969 484.839844 396.433594 C 484.496094 396.546875 483.976562 396.476562 483.617188 396.484375 C 483.101562 396.492188 482.585938 396.492188 482.070312 396.488281 C 481.089844 396.488281 480.101562 396.464844 479.125 396.453125 C 473.949219 396.371094 468.777344 396.421875 463.609375 396.421875 C 459.921875 396.421875 456.238281 396.460938 452.558594 396.46875 C 450.6875 396.472656 448.820312 396.472656 446.957031 396.457031 C 445.441406 396.457031 443.9375 396.464844 442.433594 396.410156 C 442.273438 396.40625 442.113281 396.398438 441.984375 396.308594 C 441.820312 396.1875 441.777344 395.960938 441.746094 395.757812 C 441.449219 393.730469 441.328125 391.683594 441.382812 389.636719 C 441.390625 389.179688 441.585938 388.785156 442.0625 388.753906 C 444.75 388.59375 452.300781 388.589844 455.664062 388.640625 C 460.214844 388.722656 465.824219 388.488281 470.386719 388.488281 C 473.574219 388.488281 476.769531 388.574219 479.960938 388.5625 C 481.394531 388.558594 482.859375 388.480469 484.300781 388.59375 C 485.230469 388.660156 485.476562 389.164062 485.476562 390.039062 C 485.476562 391.164062 485.460938 392.277344 485.402344 393.402344 C 485.371094 393.960938 485.324219 394.519531 485.269531 395.078125 C 485.238281 395.40625 485.28125 396.058594 485.003906 396.332031"/><path fill="#FFF" d="M 455.824219 370.542969 C 457.367188 364.886719 461.410156 359.601562 464.363281 354.917969 C 467.523438 349.890625 470.253906 344.007812 469.089844 338.179688 C 472.453125 339.34375 475.210938 342.121094 476.367188 345.488281 C 477.519531 348.855469 477.03125 352.738281 475.097656 355.722656 C 478.03125 355.613281 479.734375 359.507812 478.667969 362.25 C 477.609375 364.992188 474.929688 366.699219 472.410156 368.21875 C 474.230469 368.648438 475.039062 371.019531 474.355469 372.769531 C 473.683594 374.511719 471.976562 375.644531 470.242188 376.34375 C 468.503906 377.039062 466.640625 377.414062 464.964844 378.226562 C 464.382812 378.515625 463.820312 378.851562 463.417969 379.355469 C 461.726562 381.464844 463.722656 384.046875 464.851562 385.871094 C 462.453125 385.761719 460.054688 384.585938 458.347656 382.910156 C 456.589844 381.183594 455.472656 378.828125 455.246094 376.375 C 455.0625 374.402344 455.300781 372.449219 455.824219 370.542969"/></svg>