<svg xmlns="http://www.w3.org/2000/svg" width="810" viewBox="0 0 810 810" height="810" version="1.0"><defs><clipPath id="a"><path d="M 61.363281 292 L 735 292 L 735 807 L 61.363281 807 Z M 61.363281 292"/></clipPath><clipPath id="b"><path d="M 61.363281 345 L 735 345 L 735 807 L 61.363281 807 Z M 61.363281 345"/></clipPath><clipPath id="c"><path d="M 324 406 L 483 406 L 483 761.25 L 324 761.25 Z M 324 406"/></clipPath></defs><path fill="#9F5640" d="M 278.558594 151.894531 L 290.21875 148.625 L 328.570312 285.3125 C 328.570312 285.3125 355.769531 385.476562 350.898438 387.21875 C 346.011719 388.976562 316.925781 288.582031 316.925781 288.582031 L 278.558594 151.894531"/><path fill="#D19E65" d="M 410.097656 126.171875 L 402.832031 128.203125 L 394.289062 122.777344 L 401.582031 120.734375 L 410.097656 126.171875"/><path fill="#B7784A" d="M 403.867188 131.894531 L 411.132812 129.863281 L 410.097656 126.171875 L 402.832031 128.203125 L 403.867188 131.894531"/><path fill="#A16941" d="M 391.5 123.5625 L 403.867188 131.894531 L 402.832031 128.203125 L 394.289062 122.777344 L 391.5 123.5625"/><path fill="#D19E65" d="M 343.789062 144.761719 L 336.507812 146.796875 L 331.226562 140.46875 L 338.507812 138.425781 L 343.789062 144.761719"/><path fill="#B7784A" d="M 337.542969 150.5 L 344.824219 148.453125 L 343.789062 144.761719 L 336.507812 146.796875 L 337.542969 150.5"/><path fill="#A16941" d="M 329.808594 140.867188 L 337.542969 150.5 L 336.507812 146.796875 L 331.226562 140.46875 L 329.808594 140.867188"/><path fill="#B7784A" d="M 284.695312 165.328125 L 291.972656 163.28125 L 290.925781 159.589844 L 283.660156 161.636719 L 284.695312 165.328125"/><path fill="#D19E65" d="M 283.660156 161.636719 L 290.925781 159.589844 L 288.894531 152.339844 L 281.628906 154.371094 L 283.660156 161.636719"/><path fill="#B7784A" d="M 238.777344 2.179688 L 246.308594 0.078125 L 248.929688 1.542969 L 237.285156 4.804688 L 238.777344 2.179688"/><path fill="#9F5640" d="M 237.285156 4.804688 L 248.929688 1.542969 L 252.191406 13.148438 L 240.542969 16.421875 L 237.285156 4.804688"/><path fill="#60C9AF" d="M 454.851562 105.796875 L 413.777344 101.578125 L 407.296875 119.136719 L 389.71875 124.054688 L 355.371094 117.945312 L 342.644531 137.257812 L 328.183594 141.324219 L 307.277344 131.4375 L 293.117188 151.148438 L 285.261719 153.347656 L 251.289062 32.292969 L 261.667969 29.382812 L 462.128906 103.753906 L 454.851562 105.796875"/><path fill="#44897C" d="M 413.777344 101.578125 L 261.667969 29.382812 L 257.808594 30.46875 L 397.585938 121.851562 L 407.296875 119.136719 L 413.777344 101.578125"/><path fill="#44897C" d="M 355.371094 117.945312 L 256.953125 30.707031 L 254.546875 31.382812 L 334.730469 139.484375 L 342.644531 137.257812 L 355.371094 117.945312"/><path fill="#44897C" d="M 251.289062 32.292969 L 253.683594 31.621094 L 307.277344 131.4375 L 293.117188 151.148438 L 285.261719 153.347656 L 251.289062 32.292969"/><path fill="#60C9AF" d="M 272.230469 106.90625 L 251.277344 32.292969 L 240.894531 35.207031 L 108.394531 202.957031 L 115.671875 200.914062 L 148.5625 175.945312 L 163.214844 187.574219 L 180.792969 182.65625 L 206.957031 159.566406 L 227.863281 169.453125 L 242.335938 165.398438 L 255.054688 146.085938 L 277.40625 155.5625 L 285.261719 153.347656 L 272.230469 106.90625"/><path fill="#44897C" d="M 148.5625 175.945312 L 243.550781 34.472656 L 240.894531 35.207031 L 108.394531 202.957031 L 115.671875 200.914062 L 148.5625 175.945312"/><path fill="#44897C" d="M 206.957031 159.566406 L 247.425781 33.390625 L 245.789062 33.835938 L 172.921875 184.859375 L 180.792969 182.65625 L 206.957031 159.566406"/><path fill="#44897C" d="M 248.882812 32.980469 L 251.289062 32.292969 L 255.054688 146.085938 L 242.335938 165.398438 L 235.792969 167.226562 L 248.882812 32.980469"/><path fill="#44897C" d="M 235.972656 17.695312 L 256.75 11.863281 L 261.667969 29.382812 L 240.894531 35.207031 L 235.972656 17.695312"/><path fill="#D19E65" d="M 473.328125 106.449219 L 466.050781 108.492188 L 454.851562 105.796875 L 462.128906 103.753906 L 473.328125 106.449219"/><path fill="#B7784A" d="M 467.085938 112.171875 L 474.375 110.140625 L 473.328125 106.449219 L 466.050781 108.492188 L 467.085938 112.171875"/><path fill="#A16941" d="M 436.960938 103.945312 L 467.085938 112.171875 L 466.050781 108.492188 L 454.851562 105.796875 L 436.960938 103.945312"/><path fill="#D19E65" d="M 164.476562 195.054688 L 171.757812 193.011719 L 176.207031 183.933594 L 168.941406 185.976562 L 164.476562 195.054688"/><path fill="#B7784A" d="M 172.804688 196.703125 L 165.511719 198.734375 L 164.476562 195.054688 L 171.757812 193.011719 L 172.804688 196.703125"/><path fill="#A16941" d="M 179.011719 183.148438 L 172.804688 196.703125 L 171.757812 193.011719 L 176.207031 183.933594 L 179.011719 183.148438"/><path fill="#D19E65" d="M 230.800781 176.453125 L 238.078125 174.40625 L 239.292969 166.253906 L 232.003906 168.285156 L 230.800781 176.453125"/><path fill="#B7784A" d="M 239.113281 178.097656 L 231.835938 180.144531 L 230.800781 176.453125 L 238.078125 174.40625 L 239.113281 178.097656"/><path fill="#A16941" d="M 240.703125 165.855469 L 239.113281 178.097656 L 238.078125 174.40625 L 239.292969 166.253906 L 240.703125 165.855469"/><path fill="#D19E65" d="M 100.214844 211.085938 L 107.503906 209.042969 L 115.671875 200.914062 L 108.394531 202.957031 L 100.214844 211.085938"/><path fill="#B7784A" d="M 108.539062 212.734375 L 101.246094 214.777344 L 100.214844 211.085938 L 107.503906 209.042969 L 108.539062 212.734375"/><path fill="#A16941" d="M 129.988281 190.054688 L 108.539062 212.734375 L 107.503906 209.042969 L 115.671875 200.914062 L 129.988281 190.054688"/><path fill="#B72929" d="M 433.605469 295.378906 L 601.304688 63.695312 L 594.230469 41.878906 L 415.910156 288.234375 C 421.574219 291.191406 427.242188 294.4375 433.605469 295.378906"/><path fill="#D03824" d="M 421.152344 290.964844 C 420.132812 290.445312 419.109375 289.917969 418.085938 289.375 L 595.15625 44.753906 L 596.46875 48.769531 L 421.152344 290.964844"/><path fill="#BDBCBD" d="M 432.535156 295.195312 C 429.828125 294.691406 427.253906 293.777344 424.738281 292.671875 C 427.253906 293.777344 429.828125 294.691406 432.535156 295.195312"/><path fill="#881D1D" d="M 432.535156 295.195312 C 429.828125 294.691406 427.253906 293.777344 424.738281 292.671875 L 597.960938 53.363281 L 598.214844 54.144531 L 600.933594 62.539062 L 432.535156 295.195312"/><path fill="#B72929" d="M 751.707031 113.878906 L 639.984375 44.367188 L 630.117188 60.039062 L 740.820312 128.914062 L 751.707031 113.878906"/><path fill="#BDBCBD" d="M 742.023438 127.277344 L 742.011719 127.277344 L 744.945312 123.222656 L 742.023438 127.277344"/><path fill="#881D1D" d="M 742.011719 127.277344 L 630.753906 59.027344 L 633.679688 54.398438 L 745.726562 122.140625 L 744.945312 123.222656 L 742.011719 127.277344"/><path fill="#B72929" d="M 594.230469 41.878906 L 596 32.488281 L 603.757812 33.28125 L 605.15625 59.929688 L 604 62.9375 L 601.304688 63.695312 L 594.230469 41.878906"/><path fill="#6C1F1F" d="M 594.230469 41.878906 L 596 32.488281 L 604 62.9375 L 601.304688 63.695312 L 594.230469 41.878906"/><path fill="#B72929" d="M 603.757812 33.28125 L 608.054688 28.265625 L 613.851562 31.609375 L 611.339844 57.875 L 608.726562 60.722656 L 605.15625 59.929688 L 603.757812 33.28125"/><path fill="#6C1F1F" d="M 603.757812 33.28125 L 608.054688 28.265625 L 608.726562 60.722656 L 605.15625 59.929688 L 603.757812 33.28125"/><path fill="#B72929" d="M 613.851562 31.609375 L 620.855469 29.902344 L 626.257812 34.507812 L 617.316406 58.113281 L 614.429688 60.253906 L 611.265625 57.984375 L 613.851562 31.609375"/><path fill="#6C1F1F" d="M 613.851562 31.609375 L 620.855469 29.902344 L 614.429688 60.253906 L 611.265625 57.984375 L 613.851562 31.609375"/><path fill="#B72929" d="M 626.257812 34.507812 L 631.898438 33.570312 L 634.871094 38.34375 L 622.5625 60.109375 L 619.074219 61.132812 L 617.316406 58.113281 L 626.257812 34.507812"/><path fill="#6C1F1F" d="M 626.257812 34.507812 L 631.898438 33.570312 L 619.074219 61.132812 L 617.316406 58.113281 L 626.257812 34.507812"/><path fill="#B72929" d="M 634.871094 38.34375 L 640.390625 39.714844 L 639.984375 44.367188 L 630.117188 60.039062 L 626.015625 62.851562 L 622.5625 60.109375 L 634.871094 38.34375"/><path fill="#6C1F1F" d="M 634.871094 38.34375 L 640.390625 39.714844 L 626.015625 62.851562 L 622.5625 60.109375 L 634.871094 38.34375"/><path fill="#D03824" d="M 748.6875 118.054688 L 636.363281 50.128906 L 638.070312 47.410156 L 638.082031 47.398438 L 749.878906 116.417969 L 748.6875 118.054688"/><path fill="#D03824" d="M 636.363281 50.128906 L 636.179688 50.019531 L 638.070312 47.410156 L 636.363281 50.128906"/><path fill="#D03824" d="M 597.851562 39.523438 L 596.78125 35.445312 L 603.914062 36.105469 L 604 37.742188 L 604.085938 39.425781 L 597.851562 39.523438"/><path fill="#9F2F21" d="M 604 37.742188 L 603.914062 36.105469 L 604 37.742188"/><path fill="#D03824" d="M 613.382812 36.371094 L 608.1875 34.84375 L 608.089844 30.3125 L 613.648438 33.726562 L 613.382812 36.371094"/><path fill="#9F2F21" d="M 613.382812 36.371094 L 613.648438 33.726562 L 613.382812 36.371094"/><path fill="#D03824" d="M 624.765625 38.441406 L 619.53125 36.179688 L 619.976562 34.085938 L 620.421875 31.945312 L 625.640625 36.132812 L 625.101562 37.539062 L 624.765625 38.441406"/><path fill="#9F2F21" d="M 619.53125 36.179688 L 619.519531 36.179688 L 619.976562 34.085938 L 619.53125 36.179688"/><path fill="#9F2F21" d="M 625.101562 37.539062 L 625.640625 36.132812 L 625.101562 37.539062"/><path fill="#D03824" d="M 633.234375 41.207031 L 629.578125 38.546875 L 630.886719 35.734375 L 634.027344 39.824219 L 633.257812 41.171875 L 633.234375 41.207031"/><path fill="#9F2F21" d="M 633.257812 41.171875 L 634.027344 39.824219 L 634.136719 39.96875 L 633.257812 41.171875"/><path fill="#D03824" d="M 638.238281 46.796875 L 637.671875 44.105469 L 639.367188 41.363281 L 639.441406 45.113281 L 638.238281 46.796875"/><path fill="#D19E65" d="M 381.648438 181.742188 L 376.511719 180.566406 L 291.648438 188.933594 L 247.414062 299.503906 L 196.695312 427.628906 C 231.484375 458.222656 276.707031 491.019531 329.738281 513.890625 L 353.53125 329.195312 L 381.648438 181.742188"/><path fill="#C1925D" d="M 291.648438 188.933594 L 288.4375 189.234375 L 238.824219 209.078125 L 126.871094 353.246094 C 126.871094 353.246094 147.492188 384.359375 196.695312 427.628906 L 247.414062 299.503906 L 291.648438 188.933594"/><path fill="#C39E63" d="M 487.476562 338.5625 L 436.046875 194.203125 L 435.15625 192.722656 C 435.15625 193.011719 435.15625 193.335938 435.15625 193.734375 C 435.15625 193.335938 435.15625 193.011719 435.15625 192.722656 L 435.0625 192.542969 L 381.648438 181.742188 L 353.53125 329.195312 L 329.738281 513.890625 C 371.085938 531.726562 417.160156 543.546875 466.734375 543.546875 C 497.328125 543.546875 523.3125 538.882812 545.460938 530.992188 L 487.476562 338.5625"/><path fill="#D19E65" d="M 436.046875 194.203125 L 487.476562 338.5625 L 545.460938 530.992188 C 572.046875 521.503906 593.054688 507.359375 609.628906 490.933594 L 549.46875 347.460938 L 512.789062 194.203125 L 435.0625 192.542969"/><path fill="#C5955F" d="M 592.332031 219 L 514.183594 194.203125 L 512.789062 194.203125 L 549.46875 347.460938 L 609.628906 490.933594 C 670.839844 430.226562 671.683594 338.683594 671.683594 338.683594 L 592.332031 219"/><g clip-path="url(#a)"><path fill="#382020" d="M 719.371094 449.144531 C 718.347656 447.195312 717.371094 445.210938 716.421875 443.226562 C 716.179688 442.214844 715.941406 441.207031 715.699219 440.207031 C 716.84375 442.695312 717.925781 445.175781 718.898438 447.652344 C 719.1875 448.359375 719.429688 449.082031 719.695312 449.792969 C 719.550781 449.480469 719.429688 449.238281 719.371094 449.144531 M 708.84375 601.511719 C 709.097656 599.058594 709.347656 596.605469 709.601562 594.152344 C 710.25 592.363281 710.898438 590.570312 711.515625 588.777344 C 710.683594 593.035156 709.757812 597.269531 708.84375 601.511719 M 703.816406 401.734375 C 702.769531 398.382812 701.734375 395.039062 700.625 391.707031 C 701.554688 393.4375 702.480469 395.167969 703.40625 396.902344 C 703.816406 397.683594 704.222656 398.464844 704.65625 399.246094 C 704.296875 398.886719 703.644531 399.355469 703.933594 399.800781 C 706.003906 402.988281 707.640625 406.605469 709 410.40625 C 707.449219 407.460938 705.65625 404.597656 703.816406 401.734375 M 704.246094 613.804688 L 704.007812 614.082031 C 703.957031 615.332031 703.933594 616.59375 703.910156 617.84375 C 703.765625 619.78125 703.632812 621.730469 703.527344 623.652344 C 703.476562 622.535156 703.429688 621.40625 703.394531 620.273438 L 703.238281 620.046875 C 703.644531 617.039062 703.984375 614.042969 704.296875 611.027344 L 704.585938 610.328125 C 704.476562 611.484375 704.34375 612.636719 704.246094 613.804688 M 695.933594 377.550781 C 696.402344 377.457031 696.835938 377.128906 697.054688 376.710938 C 698.605469 378.609375 700.21875 380.570312 701.878906 382.507812 C 703.441406 385.789062 704.933594 389.132812 706.234375 392.546875 C 704.175781 389.867188 702.058594 387.234375 699.90625 384.636719 C 698.59375 382.265625 697.269531 379.910156 695.933594 377.550781 M 699.039062 390.023438 C 698.507812 388.808594 697.980469 387.59375 697.449219 386.367188 L 697.414062 385.921875 L 697.078125 385.488281 C 696.742188 384.71875 696.414062 383.9375 696.078125 383.167969 C 697.28125 385.464844 698.507812 387.75 699.734375 390.046875 L 699.039062 390.023438 M 692.613281 645.503906 C 692.675781 643.871094 692.820312 642.246094 692.988281 640.632812 C 693.433594 639.25 693.914062 637.890625 694.382812 636.507812 C 693.769531 639.503906 693.15625 642.5 692.613281 645.503906 M 688.5 646.296875 C 688.800781 644.976562 689.101562 643.652344 689.425781 642.328125 C 689.210938 643.027344 689.015625 643.726562 688.8125 644.433594 C 688.511719 645.492188 688.246094 646.5625 687.945312 647.644531 C 688.632812 644.710938 689.367188 641.800781 690.160156 638.890625 L 690.375 638.457031 C 690.0625 639.746094 689.726562 641.042969 689.425781 642.328125 C 689.90625 640.707031 690.390625 639.070312 690.882812 637.433594 C 691.507812 636.183594 692.144531 634.945312 692.746094 633.695312 C 691.230469 637.867188 689.789062 642.066406 688.5 646.296875 M 680.246094 330.925781 C 679.71875 331.445312 679.175781 331.960938 678.683594 332.515625 C 678.597656 332.164062 678.105469 332.070312 677.902344 332.394531 C 677.625 332.839844 677.433594 333.355469 677.289062 333.886719 L 677.347656 333.332031 L 677.421875 333.019531 C 678.382812 331.539062 679.511719 330.230469 680.644531 328.90625 C 680.523438 329.578125 680.378906 330.253906 680.246094 330.925781 M 667.867188 681.644531 L 667.710938 681.945312 C 667.0625 682.691406 666.460938 683.484375 665.835938 684.265625 C 665.703125 683.941406 665.367188 683.722656 664.992188 683.628906 C 668.375 678.226562 671.683594 672.769531 674.882812 667.222656 C 672.476562 671.984375 670.105469 676.785156 667.867188 681.644531 M 658.738281 703.855469 C 658.507812 704.191406 658.292969 704.515625 658.050781 704.855469 L 657.644531 705.417969 C 658.0625 703.84375 658.472656 702.257812 658.859375 700.667969 C 659.289062 699.921875 659.710938 699.152344 660.144531 698.40625 C 660.53125 697.949219 660.914062 697.492188 661.289062 697.046875 C 660.398438 699.296875 659.542969 701.570312 658.738281 703.855469 M 650.339844 715.460938 L 650.808594 714.628906 C 652.230469 712.359375 653.601562 710.050781 654.910156 707.703125 L 655.117188 707.476562 C 655.105469 707.75 655.082031 708.039062 655.082031 708.316406 L 655.09375 708.316406 L 655.261719 708.726562 C 653.625 710.976562 651.976562 713.222656 650.339844 715.460938 M 649.003906 708.066406 C 650.714844 705.574219 652.433594 703.097656 654.117188 700.558594 C 653.503906 701.761719 652.914062 702.976562 652.324219 704.191406 C 651.589844 705.152344 650.84375 706.117188 650.125 707.089844 C 649.738281 707.402344 649.390625 707.738281 649.003906 708.066406 M 631.863281 737.722656 C 630.285156 738.984375 628.78125 740.304688 627.300781 741.675781 C 627.890625 740.558594 628.480469 739.441406 629.105469 738.335938 C 634.773438 732.273438 640.320312 726.128906 644.410156 718.960938 L 644.503906 718.875 L 644.324219 719.210938 C 644.132812 719.621094 644.554688 720.101562 644.925781 719.980469 C 640.910156 726.175781 636.53125 732.117188 631.863281 737.722656 M 640.910156 731.683594 C 639.1875 732.644531 637.539062 733.644531 635.941406 734.726562 C 637.960938 732.429688 639.886719 730.074219 641.726562 727.65625 C 641.199219 728.460938 640.632812 729.253906 640.101562 730.074219 C 639.609375 730.84375 640.199219 731.5625 640.910156 731.683594 M 626.050781 748.039062 C 623.8125 750.613281 621.359375 753.019531 618.90625 755.386719 C 617.726562 756.519531 616.523438 757.613281 615.308594 758.707031 C 614.585938 759.117188 613.816406 759.546875 613.035156 760.003906 C 618.738281 754.992188 624.164062 749.699219 628.648438 743.648438 L 629.394531 743.074219 C 634.242188 739.71875 626.859375 747.101562 626.050781 748.039062 M 601.269531 772.957031 C 602.773438 771.476562 604.265625 770 605.78125 768.507812 L 606.035156 767.820312 C 608.367188 765.71875 610.699219 763.625 613.035156 761.542969 C 614.226562 760.90625 615.40625 760.28125 616.609375 759.703125 C 611.675781 764.3125 606.527344 768.6875 601.269531 772.957031 M 620.675781 747.523438 C 622.226562 745.742188 623.824219 743.988281 625.425781 742.253906 C 625.617188 742.519531 625.894531 742.6875 626.183594 742.722656 C 624.726562 744.117188 623.285156 745.550781 621.902344 747.042969 C 619.472656 749.300781 617.28125 751.816406 615.25 754.472656 L 615.117188 754.582031 C 616.957031 752.222656 618.820312 749.867188 620.675781 747.523438 M 190.246094 750.480469 L 190.308594 750.253906 C 191.015625 750.625 191.703125 751.007812 192.386719 751.394531 C 194.167969 753.425781 195.925781 755.449219 197.695312 757.417969 C 198.054688 759.210938 198.378906 761.015625 198.691406 762.808594 C 195.132812 759.273438 192.027344 755.171875 190.246094 750.480469 M 187.457031 750.457031 C 179.300781 744.046875 172.996094 735.761719 167.050781 727.234375 L 167.292969 727.476562 C 169.746094 729.757812 172.429688 732.238281 175.339844 734.257812 L 176.097656 734.992188 C 178.769531 739.96875 182.367188 744.492188 186.132812 748.953125 C 186.542969 749.445312 187.09375 749.457031 187.574219 749.242188 L 187.695312 749.652344 L 187.457031 750.457031 M 161.121094 723.15625 C 158.824219 720.933594 156.695312 718.527344 154.613281 716.097656 C 150.765625 711.601562 147.300781 706.753906 144.0625 701.800781 C 146.421875 704.671875 148.816406 707.464844 151.015625 710.144531 C 153.21875 712.789062 155.492188 715.375 157.835938 717.902344 C 159.125 719.824219 160.410156 721.75 161.6875 723.6875 L 161.121094 723.15625 M 132.019531 680.921875 C 130.554688 677.988281 129.144531 675.003906 127.882812 671.972656 C 128.820312 673.152344 129.808594 674.285156 130.804688 675.304688 C 131.3125 675.824219 132.019531 675.28125 131.914062 674.65625 C 131.816406 674.078125 131.683594 673.527344 131.585938 672.960938 C 131.9375 673.550781 132.308594 674.164062 132.671875 674.753906 C 132.828125 675.101562 132.984375 675.449219 133.140625 675.8125 C 135.835938 681.824219 138.683594 687.835938 141.800781 693.695312 C 138.648438 689.339844 135.472656 685.023438 132.019531 680.921875 M 138.398438 697.816406 C 137.785156 696.808594 137.121094 695.820312 136.449219 694.859375 L 136.496094 694.523438 C 134.847656 691.9375 133.210938 689.351562 131.585938 686.765625 C 131.359375 686.332031 131.117188 685.925781 130.878906 685.492188 C 127.351562 678.816406 124.585938 671.746094 121.925781 664.6875 C 120.976562 662.148438 120.0625 659.597656 119.148438 657.050781 L 119.0625 656.605469 C 120.316406 659.730469 121.820312 662.75 123.492188 665.578125 C 126.96875 675.882812 131.925781 685.742188 137.324219 695.113281 C 137.6875 695.714844 138.046875 696.328125 138.398438 696.953125 C 138.421875 697.230469 138.421875 697.519531 138.398438 697.816406 M 133.210938 697.816406 C 129.890625 693.222656 127.039062 688.234375 124.429688 683.050781 C 123.863281 681.933594 123.324219 680.800781 122.816406 679.660156 C 123.238281 679.597656 123.671875 679.40625 124.105469 679.058594 C 125.078125 681.125 126.078125 683.160156 127.183594 685.128906 C 129.0625 689.410156 131.035156 693.667969 133.210938 697.816406 M 121.097656 675.640625 C 120.328125 673.730469 119.59375 671.792969 118.882812 669.859375 L 118.703125 669.171875 C 119.871094 671.085938 121.097656 672.984375 122.300781 674.882812 C 122.671875 675.738281 123.011719 676.605469 123.382812 677.457031 C 122.503906 677.421875 121.746094 676.699219 121.097656 675.640625 M 116.238281 661.753906 C 115.394531 659.683594 114.46875 657.640625 113.53125 655.59375 C 113.265625 654.945312 113 654.285156 112.722656 653.621094 C 111.894531 649.582031 110.738281 645.527344 109.417969 641.523438 C 111.328125 646.261719 113.144531 651.023438 114.949219 655.8125 C 115.863281 658.542969 116.789062 661.257812 117.65625 664.011719 C 117.765625 664.351562 117.992188 664.578125 118.269531 664.722656 C 118.425781 665.15625 118.59375 665.5625 118.761719 665.996094 C 117.910156 664.589844 117.066406 663.171875 116.238281 661.753906 M 125.285156 662.667969 C 126.800781 665.203125 128.316406 667.65625 129.855469 670.144531 C 129.941406 670.496094 130.011719 670.84375 130.097656 671.191406 C 131.035156 675.558594 129.421875 671.746094 128.109375 669.964844 C 127.171875 668.714844 126.355469 667.390625 125.5625 666.046875 C 124.828125 664.011719 124.152344 661.980469 123.539062 659.914062 C 124.117188 660.824219 124.695312 661.753906 125.285156 662.667969 M 98.960938 619.769531 C 100.40625 623.292969 101.777344 626.816406 103.101562 630.363281 C 104.351562 633.742188 105.710938 637.195312 106.972656 640.71875 C 104.085938 633.804688 101.441406 626.828125 98.960938 619.769531 M 103.171875 368.148438 C 103.570312 367.738281 104.027344 367.390625 104.4375 367.003906 C 104.253906 367.292969 104.074219 367.558594 103.894531 367.871094 C 103.015625 369.3125 102.210938 370.804688 101.417969 372.308594 C 101.355469 371.742188 100.957031 371.285156 100.488281 371.128906 C 101.34375 370.121094 102.234375 369.121094 103.171875 368.148438 M 87.773438 605.421875 L 87.785156 605.398438 C 87.75 604.410156 87.691406 603.414062 87.605469 602.425781 C 89.277344 606.289062 91.167969 609.992188 93.285156 613.539062 C 93.621094 614.945312 93.921875 616.367188 94.257812 617.773438 L 94.4375 618.566406 C 92.199219 614.199219 89.902344 609.871094 87.773438 605.421875 M 79.390625 414.003906 C 82.78125 403.289062 87.050781 392.945312 92.261719 383.265625 C 92.164062 384.105469 92.117188 384.972656 92.152344 385.824219 C 89.84375 390.839844 87.714844 396 85.921875 401.242188 C 83.71875 405.488281 81.554688 409.769531 79.390625 414.003906 M 81.832031 416.960938 C 79.28125 422.398438 76.730469 427.832031 74.167969 433.28125 C 75.515625 427.425781 77.042969 421.589844 78.800781 415.867188 C 80.796875 412.402344 82.710938 408.890625 84.597656 405.367188 C 83.453125 409.191406 82.503906 413.066406 81.832031 416.960938 M 81.121094 587.25 C 81.121094 586.109375 81.050781 584.941406 80.953125 583.785156 C 81.074219 584.160156 81.179688 584.53125 81.289062 584.90625 C 81.664062 586.839844 82.046875 588.777344 82.410156 590.714844 C 81.976562 589.558594 81.554688 588.40625 81.121094 587.25 M 93.789062 389.832031 L 94.015625 390.445312 C 92.886719 392.957031 91.769531 395.484375 90.625 397.996094 C 91.503906 395.445312 92.5625 392.621094 93.789062 389.832031 M 74.660156 569.835938 C 73.988281 568.007812 73.351562 566.167969 72.734375 564.316406 C 72.605469 560.539062 72.277344 556.742188 71.90625 553 C 72.304688 553.84375 72.710938 554.671875 73.097656 555.515625 C 73.589844 556.597656 74.023438 557.714844 74.480469 558.820312 C 74.445312 559.300781 74.410156 559.769531 74.394531 560.253906 C 73.925781 558.761719 73.457031 557.28125 72.988281 555.789062 L 72.964844 555.800781 C 73.445312 557.378906 73.914062 558.976562 74.382812 560.589844 C 74.3125 563.945312 74.527344 567.300781 74.949219 570.617188 L 74.660156 569.835938 M 71.460938 548.972656 C 71.339844 547.734375 71.195312 546.480469 71.074219 545.265625 C 70.714844 541.78125 70.28125 538.292969 69.8125 534.816406 C 69.8125 527.046875 69.800781 519.292969 70.210938 511.570312 C 70.160156 513.652344 70.136719 515.730469 70.136719 517.824219 C 70.136719 526.734375 71.136719 535.960938 72.90625 545.363281 C 73.300781 548.164062 73.722656 550.957031 74.132812 553.746094 C 73.277344 552.121094 72.398438 550.535156 71.460938 548.972656 M 68.644531 505.570312 L 68.574219 506.015625 L 68.597656 506.109375 C 68.117188 511.28125 67.925781 516.476562 67.863281 521.683594 C 67.40625 518.917969 66.9375 516.152344 66.445312 513.386719 L 66.300781 513.039062 C 67.058594 502.070312 68.140625 491.136719 70.015625 480.363281 C 71.195312 477.546875 72.328125 474.664062 73.398438 471.738281 C 72.710938 476.660156 72.171875 481.625 71.703125 486.605469 C 70.210938 492.882812 69.234375 499.207031 68.644531 505.570312 M 729.390625 479.195312 C 728.464844 474.265625 727.5 469.347656 726.359375 464.488281 C 727.140625 465.738281 727.933594 466.929688 728.859375 468.035156 C 729.148438 468.398438 729.667969 467.941406 729.460938 467.566406 C 728.246094 465.246094 727.175781 462.816406 726.191406 460.351562 C 726.046875 457.25 725.457031 454.121094 724.519531 451.03125 C 723.183594 442.625 721.125 434.230469 718.539062 425.957031 C 720.390625 429.816406 722.28125 433.714844 724.640625 437.214844 C 725.226562 438.078125 726.457031 437.527344 726.273438 436.527344 C 725.277344 431.117188 721.933594 425.898438 719.464844 421.0625 C 716.652344 415.566406 713.738281 410.117188 710.816406 404.671875 C 709.867188 402.363281 708.902344 400.113281 707.917969 397.851562 C 713.824219 405.789062 719.621094 413.796875 725.203125 422.011719 L 725.625 421.773438 C 720.089844 411.957031 713.800781 402.519531 706.964844 393.511719 L 707.015625 393.304688 C 706.039062 390.273438 704.847656 387.339844 703.574219 384.453125 C 704.886719 385.933594 706.246094 387.402344 707.652344 388.796875 C 709.226562 391.320312 710.898438 393.785156 712.777344 396.082031 C 712.980469 396.335938 713.425781 396.058594 713.316406 395.757812 C 713.03125 394.820312 712.691406 393.894531 712.332031 392.96875 C 713.28125 393.714844 714.234375 394.425781 715.21875 395.074219 C 715.664062 395.375 716.253906 394.785156 715.964844 394.339844 C 713.945312 391.25 711.5 388.433594 708.953125 385.695312 C 707.363281 382.757812 705.582031 379.886719 703.730469 377.09375 C 705.8125 379.019531 707.941406 380.882812 710.128906 382.601562 C 710.707031 383.058594 711.382812 382.386719 710.925781 381.808594 C 706.929688 376.757812 702.359375 372.1875 697.726562 367.667969 C 697.355469 367.101562 696.898438 366.609375 696.476562 366.101562 C 697.015625 366.464844 697.871094 365.933594 697.644531 365.261719 C 697.546875 364.972656 697.414062 364.707031 697.316406 364.417969 C 697.59375 364.792969 697.90625 365.199219 698.148438 365.550781 C 701.648438 370.421875 706.160156 377.261719 711.488281 380.210938 C 711.996094 380.484375 712.523438 379.945312 712.257812 379.441406 C 709.746094 374.796875 705.003906 370.851562 701.695312 366.714844 C 700.363281 365.054688 699.195312 363.347656 698.074219 361.617188 L 698.582031 361.59375 C 700.398438 363.601562 702.226562 365.609375 704.128906 367.535156 C 704.390625 367.785156 704.742188 367.402344 704.535156 367.125 C 702.949219 365.128906 701.324219 363.167969 699.664062 361.230469 L 699.59375 360.894531 L 699.027344 360.5 C 698.003906 359.320312 696.933594 358.164062 695.851562 357.035156 C 695.164062 355.929688 694.296875 354.917969 693.410156 353.957031 C 693.082031 353.414062 692.769531 352.886719 692.445312 352.34375 L 692.652344 352.152344 C 698.726562 356.230469 703.972656 361.507812 708.625 367.367188 C 709.347656 368.292969 710.480469 367.125 710.105469 366.234375 C 708.375 362.21875 705.703125 358.609375 702.480469 355.460938 L 702.636719 355.148438 C 703.019531 352.707031 701.890625 350.601562 699.964844 348.796875 C 700.636719 349.109375 701.324219 349.410156 702.023438 349.6875 C 703.476562 350.253906 704.476562 348.425781 703.886719 347.28125 C 703.054688 345.695312 701.792969 344.277344 700.253906 343.023438 C 700.988281 342.4375 701.070312 341.304688 700.109375 340.632812 C 698.535156 339.511719 696.355469 339.382812 694.214844 339.585938 C 693.082031 339.152344 691.917969 338.792969 690.75 338.539062 C 695.140625 338.226562 699.292969 338.335938 703.707031 338.851562 C 704.273438 338.910156 704.585938 338.082031 704.175781 337.722656 C 700.410156 334.535156 695.765625 335.0625 691.085938 335.59375 C 687.910156 335.953125 684.710938 336.3125 681.773438 335.507812 C 684.074219 332.09375 686.792969 329.050781 690.160156 326.875 L 690.160156 326.886719 C 690.074219 327.390625 690.652344 327.835938 691.074219 327.414062 C 691.867188 326.609375 692.386719 326.128906 692.902344 325.117188 C 693.324219 324.3125 692.625 323.097656 691.617188 323.445312 C 688.609375 324.539062 686.058594 326.476562 683.832031 328.90625 L 683.433594 328.378906 C 683.867188 326.933594 684.167969 325.464844 684.167969 323.925781 C 684.167969 323.589844 683.664062 323.519531 683.566406 323.855469 C 683.410156 324.445312 683.207031 325.007812 683.027344 325.574219 L 682.808594 325.417969 C 683.015625 323.710938 683.183594 321.980469 683.339844 320.210938 C 683.410156 319.285156 682.003906 319.308594 681.894531 320.210938 C 681.65625 322.269531 681.390625 324.253906 681.089844 326.210938 C 680.089844 326.886719 679.164062 327.65625 678.335938 328.546875 C 678.636719 326.128906 678.503906 323.878906 677.445312 322.195312 C 677.480469 320.96875 677.539062 319.742188 677.734375 318.539062 C 677.867188 317.648438 676.625 317.253906 676.351562 318.15625 C 676.109375 318.9375 675.929688 319.742188 675.761719 320.535156 C 675.460938 320.34375 675.148438 320.164062 674.785156 320.019531 C 674.195312 319.777344 673.535156 320.488281 673.75 321.054688 C 674.171875 322.195312 674.820312 323.15625 675.289062 324.265625 C 675.207031 325.371094 675.160156 326.476562 675.132812 327.582031 C 674.390625 330.121094 673.570312 332.597656 672.511719 335.074219 C 671.921875 336.46875 671.332031 337.855469 670.816406 339.273438 C 632.296875 365.96875 588 373.847656 548.035156 342.136719 C 540.757812 351.671875 530.21875 357.359375 517.371094 352.789062 C 510.476562 350.335938 504.28125 346.777344 497.976562 343.121094 C 495.054688 341.4375 491.179688 340.210938 488.003906 338.359375 C 462.082031 381.363281 389.71875 338.925781 358.03125 312.585938 C 344.628906 316.84375 328.101562 313.152344 314.746094 310.636719 C 296.871094 307.285156 278.765625 303.015625 261.585938 296.929688 C 259.265625 296.109375 253.355469 294.726562 248.363281 292.574219 C 229.707031 310.445312 208.207031 325.492188 183.929688 334.558594 C 163.589844 342.160156 140.972656 346.378906 119.148438 345.527344 C 116.921875 349.109375 114.792969 352.753906 112.710938 356.421875 C 112.363281 356.734375 112.039062 357.09375 111.714844 357.433594 C 111.808594 357.058594 111.941406 356.699219 112.015625 356.335938 C 112.183594 355.617188 111.304688 355.316406 110.90625 355.855469 C 109.703125 357.480469 108.621094 359.210938 107.597656 361.027344 C 104.929688 363.3125 102.5 365.8125 100.464844 368.003906 C 97.855469 370.804688 95.363281 374.183594 93.777344 377.863281 L 93.464844 378.140625 C 82.710938 396.277344 76.070312 416.792969 72.097656 437.695312 C 68.996094 444.367188 65.902344 451.042969 62.871094 457.742188 L 63.230469 457.945312 C 64.496094 455.839844 65.699219 453.6875 66.914062 451.558594 C 66.347656 453.207031 65.820312 454.878906 65.324219 456.550781 L 65.722656 456.707031 C 67.394531 453.398438 68.984375 450.058594 70.546875 446.691406 C 69.320312 454.554688 68.453125 462.445312 67.851562 470.25 L 68.175781 470.25 C 69.101562 461.398438 70.390625 452.355469 72.085938 443.308594 C 72.386719 442.648438 72.710938 441.988281 73.011719 441.3125 C 75.417969 436.429688 77.886719 431.585938 80.421875 426.773438 C 80.421875 427.097656 80.542969 427.375 80.722656 427.605469 C 80.699219 428.351562 80.699219 429.09375 80.699219 429.839844 C 80.496094 431.417969 80.253906 432.992188 80.003906 434.542969 C 79.675781 435.613281 79.363281 436.671875 79.039062 437.730469 C 77.429688 441.132812 75.816406 444.523438 74.109375 447.855469 L 74.324219 447.988281 C 75.46875 446.234375 76.539062 444.453125 77.597656 442.648438 C 74.070312 454.484375 70.773438 466.339844 68.597656 478.476562 C 68.355469 479.003906 68.117188 479.542969 67.863281 480.085938 L 68.070312 480.265625 C 65.820312 487.636719 63.617188 495.011719 61.765625 502.464844 L 61.859375 502.492188 C 63.640625 495.707031 65.746094 489.007812 67.910156 482.335938 C 67.371094 485.714844 66.914062 489.128906 66.589844 492.558594 L 66.949219 492.558594 C 67.167969 490.992188 67.453125 489.441406 67.707031 487.878906 C 66.613281 496.117188 65.925781 504.414062 65.457031 512.738281 C 64.976562 512.84375 64.519531 513.265625 64.628906 513.890625 C 64.832031 515.09375 65.023438 516.296875 65.21875 517.5 C 64.6875 528.625 64.496094 539.757812 64.195312 550.835938 L 64.386719 550.835938 C 64.867188 540.984375 65.242188 531.027344 65.792969 521.070312 C 66.648438 526.484375 67.40625 531.90625 68.070312 537.34375 C 68.152344 539.652344 68.273438 541.960938 68.382812 544.269531 C 67.984375 543.921875 67.347656 544.210938 67.46875 544.796875 C 67.839844 546.589844 68.25 548.382812 68.671875 550.160156 C 68.789062 552.460938 68.910156 554.757812 69.042969 557.039062 L 69.476562 557.039062 C 69.523438 555.996094 69.546875 554.949219 69.585938 553.914062 L 69.667969 554.226562 C 70.054688 561.839844 70.113281 569.535156 71.316406 577.003906 C 71.363281 577.425781 72.097656 577.425781 72.171875 577.003906 C 72.75 573.109375 72.878906 569.078125 72.761719 565.027344 C 73.53125 567.457031 74.359375 569.847656 75.203125 572.265625 C 76.371094 580.117188 78.644531 587.863281 81.277344 595.296875 C 84.945312 605.746094 89.554688 618.253906 96.578125 627.527344 C 99.09375 637.964844 102.089844 648.765625 107.128906 657.820312 C 107.429688 658.359375 108.441406 658.15625 108.382812 657.472656 C 108.320312 657 108.308594 656.53125 108.273438 656.050781 C 108.839844 657.796875 109.429688 659.515625 109.992188 661.246094 L 110.378906 661.152344 C 109.71875 657.6875 108.910156 654.261719 108.007812 650.84375 C 108.550781 651.820312 109.101562 652.804688 109.65625 653.777344 C 110.160156 654.886719 110.65625 655.992188 111.160156 657.097656 C 111.351562 657.664062 111.558594 658.226562 111.75 658.792969 L 111.785156 658.960938 L 111.871094 659.117188 C 112.761719 661.558594 113.746094 663.976562 114.589844 666.296875 C 114.78125 666.804688 114.984375 667.296875 115.179688 667.800781 C 116.058594 670.445312 117.128906 673.355469 118.34375 675.640625 C 119.820312 679.058594 121.386719 682.4375 123.035156 685.757812 C 127.472656 694.703125 134.222656 708.402344 144.808594 711.203125 C 145.183594 711.300781 145.566406 710.769531 145.21875 710.503906 C 140.765625 707.007812 137.0625 702.976562 133.8125 698.601562 L 133.96875 698.335938 C 132.777344 695.4375 131.660156 692.515625 130.515625 689.59375 C 132.707031 693.476562 135.234375 697.074219 138.253906 700.101562 C 138.683594 700.535156 139.300781 700.175781 139.359375 699.632812 C 139.40625 699.308594 139.429688 699.019531 139.457031 698.730469 C 145.613281 709.207031 153.289062 720.957031 163.058594 727.714844 C 163.445312 727.980469 163.9375 727.824219 164.226562 727.5 C 170.84375 737.40625 177.820312 747.042969 187.613281 754.171875 C 188.203125 754.605469 188.804688 754.414062 189.222656 753.992188 C 191.558594 759.257812 195.203125 763.757812 199.75 767.582031 C 200.84375 768.507812 202.335938 767.628906 202.074219 766.222656 C 201.785156 764.550781 201.433594 762.902344 201.085938 761.257812 C 208.507812 769.542969 215.667969 777.179688 222.296875 784.007812 C 222.296875 784.007812 322.097656 802.191406 402.300781 806.125 C 482.507812 810.070312 587.796875 784.007812 587.796875 784.007812 C 590.320312 781.386719 592.921875 778.632812 595.542969 775.785156 L 595.902344 775.769531 L 596.058594 775.652344 C 593.941406 777.828125 591.8125 780.015625 589.734375 782.230469 C 589.105469 782.878906 590.058594 783.804688 590.707031 783.191406 C 600.425781 774.027344 611.0625 765.597656 621.683594 757.46875 C 622.441406 756.890625 622.046875 755.386719 620.976562 755.785156 C 620.433594 755.988281 619.132812 756.625 617.402344 757.5625 C 622.949219 752.417969 628.253906 747.042969 632.789062 740.789062 C 633.101562 740.367188 632.523438 739.992188 632.152344 740.148438 C 631.585938 740.402344 631.066406 740.679688 630.539062 740.957031 C 630.78125 740.605469 631.007812 740.257812 631.238281 739.898438 C 635.050781 736.519531 639.140625 733.453125 643.722656 730.9375 C 644.121094 730.722656 643.773438 730.132812 643.375 730.335938 C 642.964844 730.542969 642.582031 730.78125 642.171875 730.984375 C 646.464844 724.527344 651.183594 718.394531 655.863281 712.214844 C 655.539062 713.296875 655.226562 714.378906 654.996094 715.496094 C 654.71875 716.769531 656.453125 717.191406 656.910156 716.027344 C 658.4375 712.191406 660 708.402344 661.539062 704.601562 C 662.128906 703.785156 662.742188 702.953125 663.355469 702.097656 C 663.367188 703.507812 665.390625 703.953125 665.90625 702.472656 C 666.941406 699.503906 668.011719 696.542969 669.058594 693.585938 C 671.886719 688.871094 674.21875 683.902344 675.230469 678.734375 C 675.316406 678.277344 674.988281 677.964844 674.628906 677.902344 C 675.589844 675.195312 676.542969 672.46875 677.515625 669.75 C 677.914062 668.90625 678.308594 668.054688 678.707031 667.199219 C 678.359375 670.652344 678.238281 674.089844 678.46875 677.53125 C 677.769531 681.546875 677.238281 685.601562 676.976562 689.710938 C 676.878906 691.179688 679.226562 691.503906 679.539062 690.0625 C 680.5 685.5625 681.402344 681.066406 682.292969 676.582031 C 682.664062 677.289062 684.0625 677.300781 684.253906 676.351562 C 686.359375 666.394531 688.402344 656.570312 691.160156 646.816406 C 690.847656 650.316406 690.640625 653.851562 690.640625 657.472656 C 690.640625 658.890625 692.867188 659.25 693.15625 657.820312 C 695.175781 648.210938 697.234375 638.625 699.292969 629.027344 C 699.027344 630.640625 698.785156 632.253906 698.507812 633.863281 C 696.886719 643.230469 694.71875 652.660156 693.277344 662.125 C 693.058594 662.054688 692.808594 662.148438 692.792969 662.4375 C 692.675781 664.710938 692.554688 666.960938 692.363281 669.207031 C 692.242188 670.253906 692.121094 671.300781 692.035156 672.359375 L 692.097656 672.347656 C 692.191406 673.539062 693.960938 674.007812 694.25 672.660156 C 697.089844 659.324219 699.121094 645.699219 701.371094 632.238281 C 701.816406 629.605469 702.238281 626.960938 702.625 624.316406 C 702.515625 627.019531 702.347656 629.703125 701.972656 632.371094 C 701.839844 633.273438 702.527344 633.839844 703.1875 633.804688 L 703.1875 633.921875 C 703.042969 635.390625 705.316406 635.355469 705.460938 633.921875 C 705.714844 631.613281 705.945312 629.316406 706.195312 627.019531 C 712.34375 607.71875 715.675781 587.082031 718.128906 566.949219 C 720.210938 558.894531 721.882812 550.917969 723.039062 543.101562 C 723.195312 546.820312 723.351562 550.535156 723.542969 554.25 C 723.085938 569.175781 721.957031 589.453125 719.308594 588.945312 C 718.9375 588.875 718.660156 589.402344 719.03125 589.582031 C 722.246094 591.160156 723.964844 583.160156 724.902344 573.867188 L 724.953125 574.40625 C 725.011719 574.984375 725.804688 574.984375 725.867188 574.40625 C 726.15625 571.375 726.273438 568.332031 726.347656 565.277344 C 726.828125 565.410156 727.453125 565.085938 727.476562 564.472656 L 727.515625 564.484375 C 728.402344 557.546875 727.933594 550.234375 727.042969 542.933594 C 727.417969 543.320312 728.03125 543.34375 728.488281 543.101562 C 728.847656 548.503906 729.089844 553.902344 729.582031 559.277344 C 729.847656 562.105469 730.113281 564.929688 730.160156 567.769531 C 730.195312 569.464844 730.773438 573.421875 728.140625 571.507812 C 727.671875 571.183594 727.214844 571.871094 727.550781 572.265625 C 729.621094 574.539062 731.722656 573.960938 732.554688 570.980469 C 734.082031 565.460938 732.011719 558.472656 731.710938 552.855469 C 730.75 534.625 728.054688 516.597656 725.226562 498.59375 C 725.121094 493.699219 725 488.792969 724.976562 483.886719 C 724.953125 482.863281 723.375 482.863281 723.375 483.886719 C 723.375 484.378906 723.386719 484.859375 723.375 485.355469 C 723.277344 484.175781 723.171875 482.984375 723.039062 481.816406 L 723.375 481.410156 C 723.398438 477.488281 722.546875 473.710938 721.511719 469.949219 C 721.054688 466.84375 720.535156 463.742188 719.996094 460.664062 C 720.886719 462.261719 721.777344 463.851562 722.652344 465.449219 C 722.820312 465.773438 723.375 465.558594 723.242188 465.199219 C 722.003906 461.648438 720.511719 458.1875 718.914062 454.769531 C 718.503906 452.714844 718.058594 450.660156 717.625 448.613281 C 718.71875 450.417969 719.863281 452.199219 721.101562 453.917969 C 721.957031 456.671875 722.703125 459.472656 723.375 462.289062 L 722.964844 461.542969 L 722.894531 461.566406 C 723.4375 466.976562 725.324219 472.390625 726.324219 477.742188 C 727.816406 485.679688 728.765625 493.722656 729.605469 501.757812 C 730.964844 514.78125 730.894531 527.949219 732.46875 540.925781 C 732.53125 541.417969 733.191406 541.417969 733.242188 540.925781 C 734.238281 532.363281 733.769531 523.535156 732.941406 514.804688 C 733.082031 515.308594 733.203125 515.828125 733.347656 516.332031 C 733.601562 517.175781 734.863281 517.007812 734.863281 516.128906 C 735.09375 503.980469 731.664062 491.066406 729.390625 479.195312"/></g><path fill="#382020" d="M 709.15625 399.523438 C 714.628906 406.917969 720.019531 414.375 725.203125 422.011719 L 725.625 421.773438 C 720.800781 413.234375 715.398438 405.007812 709.578125 397.070312 C 709.445312 397.886719 709.300781 398.707031 709.15625 399.523438"/><path fill="#382020" d="M 710.78125 388.410156 C 710.625 389.832031 710.40625 391.25 710.214844 392.667969 C 711.03125 393.835938 711.875 394.976562 712.777344 396.082031 C 712.980469 396.335938 713.425781 396.058594 713.316406 395.757812 C 713.03125 394.820312 712.691406 393.894531 712.332031 392.96875 C 713.28125 393.714844 714.234375 394.425781 715.21875 395.074219 C 715.664062 395.375 716.253906 394.785156 715.964844 394.339844 C 714.4375 392.019531 712.679688 389.855469 710.816406 387.75 L 710.78125 388.410156"/><path fill="#906B44" d="M 136.664062 345.164062 C 136.675781 345.140625 136.675781 345.128906 136.675781 345.105469 C 137.109375 345.070312 137.542969 345.046875 137.988281 345.007812 C 137.976562 345.019531 137.976562 345.046875 137.964844 345.058594 C 137.53125 345.09375 137.109375 345.128906 136.664062 345.164062"/><path fill="#2B1717" d="M 129.925781 370.480469 C 129.902344 368.90625 129.867188 367.328125 129.84375 365.765625 C 132.238281 360.078125 135.964844 351.128906 136.664062 345.164062 C 137.109375 345.128906 137.53125 345.09375 137.964844 345.058594 C 136.738281 349.496094 135.484375 353.921875 134.28125 358.371094 C 132.753906 362.363281 131.3125 366.414062 129.925781 370.480469"/><path fill="#2B1717" d="M 705.894531 431.007812 C 705.476562 428.757812 705.015625 426.511719 704.511719 424.273438 L 704.332031 423.46875 C 704.558594 421.640625 704.8125 419.8125 705.003906 417.984375 C 705.148438 417.464844 705.269531 416.9375 705.425781 416.421875 C 705.65625 421.277344 705.800781 426.148438 705.894531 431.007812"/><path fill="#2B1717" d="M 603.722656 626.902344 C 605.5625 625.023438 607.34375 623.136719 609.078125 621.234375 C 610.472656 620.464844 611.820312 619.660156 613.15625 618.808594 C 610.097656 621.632812 606.960938 624.339844 603.722656 626.902344"/><path fill="#BDBCBD" d="M 710.816406 404.671875 C 710.769531 404.574219 710.71875 404.464844 710.683594 404.359375 C 710.71875 404.464844 710.769531 404.574219 710.816406 404.671875 M 124.742188 345.632812 C 123.191406 345.632812 121.652344 345.609375 120.109375 345.5625 C 121.519531 345.609375 122.914062 345.621094 124.320312 345.621094 C 127.207031 345.621094 130.097656 345.539062 132.996094 345.371094 L 132.960938 345.40625 C 130.214844 345.5625 127.472656 345.632812 124.742188 345.632812 M 120.109375 345.5625 C 120.074219 345.5625 120.039062 345.5625 120.003906 345.5625 C 120.039062 345.5625 120.074219 345.5625 120.109375 345.5625"/><path fill="#906B44" d="M 132.960938 345.40625 L 132.996094 345.371094 C 133.019531 345.371094 133.042969 345.359375 133.066406 345.359375 C 133.066406 345.371094 133.054688 345.394531 133.054688 345.40625 C 133.019531 345.40625 132.996094 345.40625 132.960938 345.40625"/><g clip-path="url(#b)"><path fill="#2B1717" d="M 419.53125 806.535156 C 413.695312 806.535156 407.933594 806.402344 402.300781 806.125 C 322.097656 802.191406 222.296875 784.007812 222.296875 784.007812 C 215.667969 777.179688 208.507812 769.542969 201.085938 761.257812 C 201.433594 762.902344 201.785156 764.550781 202.074219 766.222656 C 202.097656 766.332031 202.109375 766.4375 202.109375 766.535156 C 202.109375 767.378906 201.457031 767.964844 200.738281 767.964844 C 200.398438 767.964844 200.050781 767.847656 199.75 767.582031 C 195.203125 763.757812 191.558594 759.257812 189.222656 753.992188 C 188.972656 754.246094 188.648438 754.414062 188.308594 754.414062 C 188.082031 754.414062 187.851562 754.339844 187.613281 754.171875 C 177.820312 747.042969 170.84375 737.40625 164.226562 727.5 C 164.046875 727.714844 163.769531 727.847656 163.492188 727.847656 C 163.335938 727.847656 163.191406 727.800781 163.058594 727.714844 C 153.289062 720.957031 145.613281 709.207031 139.457031 698.730469 C 139.429688 699.019531 139.40625 699.308594 139.359375 699.632812 C 139.324219 700.007812 139.023438 700.296875 138.683594 700.296875 C 138.542969 700.296875 138.382812 700.234375 138.253906 700.101562 C 135.234375 697.074219 132.707031 693.476562 130.515625 689.59375 C 131.660156 692.515625 132.777344 695.4375 133.96875 698.335938 L 133.8125 698.601562 C 137.0625 702.976562 140.765625 707.007812 145.21875 710.503906 C 145.3125 710.578125 145.351562 710.675781 145.351562 710.769531 C 145.351562 710.988281 145.132812 711.214844 144.90625 711.214844 C 144.867188 711.214844 144.84375 711.203125 144.808594 711.203125 C 134.222656 708.402344 127.472656 694.703125 123.035156 685.757812 C 121.386719 682.4375 119.820312 679.058594 118.34375 675.640625 C 117.128906 673.355469 116.058594 670.445312 115.179688 667.800781 C 114.984375 667.296875 114.78125 666.804688 114.589844 666.296875 C 113.746094 663.976562 112.761719 661.558594 111.871094 659.117188 L 111.785156 658.960938 L 111.75 658.792969 C 111.558594 658.226562 111.351562 657.664062 111.160156 657.097656 C 110.65625 655.992188 110.160156 654.886719 109.65625 653.777344 C 109.101562 652.804688 108.550781 651.820312 108.007812 650.84375 C 108.910156 654.261719 109.71875 657.6875 110.378906 661.152344 L 109.992188 661.246094 C 109.429688 659.515625 108.839844 657.796875 108.273438 656.050781 C 108.308594 656.53125 108.320312 657 108.382812 657.472656 C 108.382812 657.496094 108.382812 657.519531 108.382812 657.542969 C 108.382812 657.914062 108.042969 658.132812 107.707031 658.132812 C 107.480469 658.132812 107.25 658.035156 107.128906 657.820312 C 102.089844 648.765625 99.09375 637.964844 96.578125 627.527344 C 89.554688 618.253906 84.945312 605.746094 81.277344 595.296875 C 78.644531 587.863281 76.371094 580.117188 75.203125 572.265625 C 74.359375 569.847656 73.53125 567.457031 72.761719 565.027344 C 72.785156 565.878906 72.808594 566.734375 72.808594 567.585938 C 72.808594 570.773438 72.628906 573.925781 72.171875 577.003906 C 72.132812 577.207031 71.929688 577.316406 71.738281 577.316406 C 71.53125 577.316406 71.339844 577.207031 71.316406 577.003906 C 70.113281 569.535156 70.054688 561.839844 69.667969 554.226562 L 69.585938 553.914062 C 69.546875 554.949219 69.523438 555.996094 69.476562 557.039062 L 69.042969 557.039062 C 68.910156 554.757812 68.789062 552.460938 68.671875 550.160156 C 68.25 548.382812 67.839844 546.589844 67.46875 544.796875 C 67.46875 544.75 67.453125 544.703125 67.453125 544.652344 C 67.453125 544.328125 67.707031 544.125 67.996094 544.125 C 68.128906 544.125 68.273438 544.160156 68.382812 544.269531 C 68.273438 541.960938 68.152344 539.652344 68.070312 537.34375 C 67.40625 531.90625 66.648438 526.484375 65.792969 521.070312 C 65.242188 531.027344 64.867188 540.984375 64.386719 550.835938 L 64.195312 550.835938 C 64.496094 539.757812 64.6875 528.625 65.21875 517.5 C 65.023438 516.296875 64.832031 515.09375 64.628906 513.890625 C 64.617188 513.832031 64.617188 513.769531 64.617188 513.722656 C 64.617188 513.183594 65.023438 512.832031 65.457031 512.738281 C 65.925781 504.414062 66.613281 496.117188 67.707031 487.878906 C 67.453125 489.441406 67.167969 490.992188 66.949219 492.558594 L 66.589844 492.558594 C 66.914062 489.128906 67.371094 485.714844 67.910156 482.335938 C 65.746094 489.007812 63.640625 495.707031 61.859375 502.492188 L 61.765625 502.464844 C 63.617188 495.011719 65.820312 487.636719 68.070312 480.265625 L 67.863281 480.085938 C 68.117188 479.542969 68.355469 479.003906 68.597656 478.476562 C 70.773438 466.339844 74.070312 454.484375 77.597656 442.648438 C 76.539062 444.453125 75.46875 446.234375 74.324219 447.988281 L 74.109375 447.855469 C 75.816406 444.523438 77.429688 441.132812 79.039062 437.730469 C 79.363281 436.671875 79.675781 435.613281 80.003906 434.542969 C 80.253906 432.992188 80.496094 431.417969 80.699219 429.839844 C 80.699219 429.09375 80.699219 428.351562 80.722656 427.605469 C 80.542969 427.375 80.421875 427.097656 80.421875 426.773438 C 77.886719 431.585938 75.417969 436.429688 73.011719 441.3125 C 72.710938 441.988281 72.386719 442.648438 72.085938 443.308594 C 70.390625 452.355469 69.101562 461.398438 68.175781 470.25 L 67.851562 470.25 C 68.453125 462.445312 69.320312 454.554688 70.546875 446.691406 C 68.984375 450.058594 67.394531 453.398438 65.722656 456.707031 L 65.324219 456.550781 C 65.820312 454.878906 66.347656 453.207031 66.914062 451.558594 C 65.699219 453.6875 64.496094 455.839844 63.230469 457.945312 L 62.871094 457.742188 C 65.902344 451.042969 68.996094 444.367188 72.097656 437.695312 C 76.070312 416.792969 82.710938 396.277344 93.464844 378.140625 L 93.777344 377.863281 C 95.363281 374.183594 97.855469 370.804688 100.464844 368.003906 C 102.5 365.8125 104.929688 363.3125 107.597656 361.027344 C 108.621094 359.210938 109.703125 357.480469 110.90625 355.855469 C 111.050781 355.664062 111.246094 355.578125 111.4375 355.578125 C 111.75 355.578125 112.039062 355.808594 112.039062 356.167969 C 112.039062 356.21875 112.039062 356.277344 112.015625 356.335938 C 111.941406 356.699219 111.808594 357.058594 111.714844 357.433594 C 112.039062 357.09375 112.363281 356.734375 112.710938 356.421875 C 114.792969 352.753906 116.921875 349.109375 119.148438 345.527344 C 119.4375 345.539062 119.714844 345.550781 120.003906 345.5625 C 120.039062 345.5625 120.074219 345.5625 120.109375 345.5625 C 121.652344 345.609375 123.191406 345.632812 124.742188 345.632812 C 127.472656 345.632812 130.214844 345.5625 132.960938 345.40625 C 132.996094 345.40625 133.019531 345.40625 133.054688 345.40625 C 132.25 348.171875 131.671875 351.179688 131 353.007812 C 130.203125 355.21875 129.324219 357.394531 128.496094 359.585938 C 128.207031 359.476562 127.929688 359.40625 127.640625 359.40625 C 128.4375 357.359375 129.21875 355.316406 130.070312 353.296875 L 129.988281 353.246094 C 129.132812 355.28125 128.339844 357.335938 127.535156 359.390625 C 126.4375 359.40625 125.34375 360.113281 125.320312 361.546875 C 125.308594 362.722656 125.285156 363.914062 125.246094 365.09375 C 124.632812 366.65625 124.03125 368.230469 123.382812 369.78125 L 123.457031 369.832031 C 124.082031 368.351562 124.660156 366.859375 125.246094 365.371094 C 125.222656 366.308594 125.210938 367.246094 125.175781 368.195312 C 123.769531 371.753906 122.359375 375.328125 120.988281 378.910156 C 120.0625 381.339844 109.730469 402.375 114.890625 403.804688 C 114.984375 403.839844 115.082031 403.851562 115.167969 403.851562 C 115.875 403.851562 116.308594 403.046875 115.984375 402.386719 C 116.019531 402.386719 119.507812 393.90625 119.835938 392.921875 C 121.433594 388.277344 123.117188 383.648438 124.800781 379.042969 C 124.609375 383.746094 124.394531 388.472656 124.1875 393.199219 C 122.15625 400.507812 120.460938 407.882812 119.484375 415.277344 C 119.4375 415.675781 119.726562 415.867188 120.050781 415.867188 C 120.316406 415.867188 120.59375 415.734375 120.699219 415.46875 L 120.664062 416.105469 C 120.617188 416.804688 121.179688 417.175781 121.746094 417.175781 C 122.214844 417.175781 122.683594 416.925781 122.828125 416.394531 C 123.082031 415.445312 123.300781 414.484375 123.539062 413.535156 C 123.335938 427.027344 123.769531 440.460938 125.789062 453.554688 C 125.863281 454.027344 126.292969 454.253906 126.726562 454.253906 C 127.160156 454.253906 127.59375 454.027344 127.664062 453.554688 C 128.398438 448.9375 128.929688 444.261719 129.351562 439.558594 C 132.203125 469.46875 146.734375 497.777344 157.355469 525.4375 C 157.511719 525.820312 157.847656 525.988281 158.175781 525.988281 C 158.679688 525.988281 159.148438 525.605469 158.945312 525.003906 C 148.804688 494.914062 132.140625 465.667969 129.832031 433.496094 C 129.902344 432.414062 129.988281 431.34375 130.046875 430.261719 L 130.15625 430.152344 L 130.15625 429.757812 C 131.058594 433.53125 132.09375 437.285156 133.285156 441 C 133.730469 443.203125 134.210938 445.390625 134.75 447.578125 C 134.789062 447.699219 134.882812 447.746094 134.96875 447.746094 C 135.113281 447.746094 135.246094 447.640625 135.222656 447.472656 C 138.085938 462.695312 143.664062 477.488281 148.117188 492.402344 C 148.261719 492.882812 148.632812 493.097656 149.007812 493.097656 C 149.585938 493.097656 150.164062 492.617188 149.992188 491.894531 C 147.636719 482.128906 144.582031 472.496094 141.8125 462.804688 C 142.605469 464.511719 143.425781 466.195312 144.28125 467.878906 C 145.902344 471.945312 147.851562 475.863281 149.621094 479.894531 C 149.679688 480 149.753906 480.050781 149.835938 480.050781 C 150.03125 480.050781 150.234375 479.832031 150.125 479.605469 C 149.585938 478.34375 149.007812 477.089844 148.441406 475.851562 C 150.332031 479.28125 152.28125 482.683594 154.3125 486.015625 C 159.472656 501.746094 165.273438 517.257812 172.320312 532.242188 C 172.453125 532.53125 172.707031 532.640625 172.972656 532.640625 C 173.488281 532.640625 174.054688 532.183594 173.835938 531.605469 C 172.851562 529.164062 171.925781 526.710938 170.988281 524.246094 C 171.273438 524.523438 171.636719 524.644531 172.007812 524.644531 C 172.777344 524.644531 173.597656 524.136719 173.933594 523.417969 C 175.390625 527.347656 177.230469 531.378906 179.648438 534.527344 C 181.644531 547.816406 186.074219 560.960938 191.078125 573.601562 C 183.460938 559.890625 175.257812 546.109375 174.980469 530.175781 C 174.980469 529.980469 174.847656 529.898438 174.703125 529.898438 C 174.558594 529.898438 174.414062 529.996094 174.402344 530.175781 C 172.453125 551.246094 185.496094 570.617188 196.128906 587.730469 C 196.359375 588.082031 196.660156 588.226562 196.960938 588.226562 C 197.019531 588.226562 197.066406 588.226562 197.117188 588.210938 C 197.476562 589.066406 197.835938 589.945312 198.210938 590.785156 C 198.28125 590.980469 198.4375 591.0625 198.609375 591.0625 C 198.933594 591.0625 199.292969 590.75 199.171875 590.378906 C 193.988281 572.132812 185.699219 555.03125 181.535156 536.667969 L 181.835938 536.980469 L 182.199219 537.714844 C 182.5 538.351562 183.078125 538.605469 183.652344 538.605469 C 183.738281 538.605469 183.835938 538.605469 183.929688 538.59375 L 184.351562 538.871094 C 186.78125 546.542969 189.355469 554.167969 192.785156 561.296875 C 192.976562 561.683594 193.277344 561.851562 193.589844 561.851562 C 194.214844 561.851562 194.878906 561.214844 194.734375 560.480469 C 194.503906 559.253906 194.214844 558.027344 193.914062 556.800781 C 194.46875 557.761719 195.011719 558.710938 195.5625 559.652344 L 195.863281 560.851562 L 196.359375 561.023438 C 197.609375 563.148438 198.847656 565.21875 200.015625 567.214844 C 200.292969 567.671875 200.675781 567.863281 201.0625 567.863281 C 201.902344 567.863281 202.722656 566.925781 202.277344 565.878906 C 199.882812 560.347656 197.308594 555.058594 194.769531 549.789062 C 197.175781 553.359375 199.714844 556.726562 201.675781 559.769531 C 201.964844 560.214844 202.359375 560.394531 202.746094 560.394531 C 203.613281 560.394531 204.441406 559.480469 203.9375 558.449219 C 201.074219 552.6875 196.574219 547.15625 193.132812 541.273438 C 198.558594 549.308594 204.683594 556.992188 210.925781 564.546875 C 212.058594 566.46875 213.199219 568.382812 214.269531 570.328125 C 222.019531 584.292969 227.191406 599.132812 233.761719 613.601562 C 234 614.128906 234.433594 614.355469 234.902344 614.355469 C 235.804688 614.355469 236.78125 613.492188 236.503906 612.433594 C 233.460938 600.71875 228.382812 589.332031 222.320312 578.328125 C 223.835938 580.179688 225.328125 582.03125 226.78125 583.894531 C 226.988281 584.160156 227.25 584.28125 227.527344 584.28125 C 228.324219 584.28125 229.152344 583.304688 228.609375 582.488281 C 221.621094 572.050781 213.933594 561.777344 205.886719 551.859375 C 203.070312 547.683594 200.230469 543.582031 197.429688 539.542969 C 201.496094 543.367188 205.667969 547.058594 209.917969 550.691406 C 210.566406 558.832031 220.972656 566.421875 226.0625 571.699219 C 237.742188 583.8125 247.28125 598.410156 259.695312 609.703125 C 259.972656 609.957031 260.308594 610.0625 260.636719 610.0625 C 261.632812 610.0625 262.570312 609.042969 261.898438 607.996094 C 254.390625 596.34375 244.71875 585.613281 235.289062 575.476562 C 230.066406 569.871094 223.894531 564.894531 218.457031 559.363281 L 218.398438 558.6875 C 217.953125 557.992188 217.460938 557.304688 216.964844 556.609375 C 220.660156 559.652344 224.414062 562.621094 228.152344 565.617188 C 230.789062 568.058594 233.460938 570.472656 236.164062 572.878906 C 236.324219 573.023438 236.503906 573.097656 236.683594 573.097656 C 236.886719 573.097656 237.09375 573 237.238281 572.855469 C 239.785156 574.851562 242.3125 576.859375 244.839844 578.855469 C 247.96875 581.996094 251.09375 585.097656 254.1875 588.226562 C 263.667969 600.417969 271.5 613.359375 279.605469 626.601562 C 279.847656 626.984375 280.160156 627.140625 280.472656 627.140625 C 281.160156 627.140625 281.808594 626.371094 281.460938 625.53125 C 281.265625 625.085938 281.0625 624.652344 280.871094 624.21875 C 283.949219 630.460938 286.742188 636.847656 290.195312 642.894531 C 290.578125 643.570312 291.15625 643.871094 291.757812 643.941406 C 292.429688 645.46875 293.152344 646.972656 293.863281 648.464844 C 294.164062 649.078125 294.714844 649.328125 295.292969 649.328125 C 296.4375 649.328125 297.664062 648.332031 297.148438 647.082031 C 293.800781 638.960938 291.746094 630.449219 289.410156 622.03125 C 290.757812 624.628906 292.023438 627.320312 293.054688 630.207031 C 296.507812 639.695312 299.433594 649.304688 303.449219 658.578125 C 303.789062 659.347656 304.449219 659.660156 305.136719 659.660156 C 306.496094 659.660156 307.984375 658.433594 307.445312 656.894531 C 305.605469 651.613281 304.039062 644.867188 302.246094 637.808594 C 303.632812 639.792969 305.0625 641.765625 306.53125 643.6875 C 306.652344 643.84375 306.832031 643.917969 307.023438 643.917969 C 307.347656 643.917969 307.660156 643.675781 307.503906 643.28125 C 305.050781 637.015625 302.402344 630.84375 299.734375 624.675781 C 300.382812 625.203125 301.058594 625.710938 301.707031 626.226562 C 304.171875 631.085938 306.867188 635.789062 309.828125 640.40625 C 314.039062 646.960938 319.078125 655.824219 325.933594 659.851562 C 326.1875 659.996094 326.476562 660.070312 326.765625 660.070312 C 327.894531 660.070312 329.050781 659.035156 328.570312 657.820312 C 327.4375 654.933594 325.695312 652.3125 323.78125 649.785156 C 328.050781 653.25 332.828125 655.90625 338 657.316406 C 338.15625 657.363281 338.3125 657.375 338.445312 657.375 C 339.878906 657.375 340.539062 655.332031 339.203125 654.488281 C 332.949219 650.542969 327.175781 646.152344 322 641.199219 C 324.769531 643.074219 327.570312 644.925781 330.445312 646.707031 C 332.539062 647.996094 334.632812 649.234375 336.726562 650.421875 C 341.960938 656.402344 348.09375 661.332031 354.664062 662.667969 C 354.757812 662.679688 354.84375 662.691406 354.941406 662.691406 C 355.769531 662.691406 356.25 661.859375 355.902344 661.066406 C 355.6875 660.5625 355.421875 660.128906 355.167969 659.671875 C 357.503906 660.695312 359.835938 661.621094 362.207031 662.507812 C 365.660156 667.03125 370.820312 670.617188 375.402344 672.011719 C 375.738281 672.105469 376.089844 672.167969 376.425781 672.167969 C 378.519531 672.167969 380.433594 670.328125 380.417969 668.234375 C 382.886719 668.847656 385.351562 669.425781 387.855469 669.929688 C 388.15625 670.085938 388.515625 670.171875 388.890625 670.171875 C 388.925781 670.171875 388.949219 670.171875 388.996094 670.171875 C 399.03125 672.105469 409.351562 673.117188 420.070312 673.117188 C 421.671875 673.117188 423.269531 673.09375 424.882812 673.042969 C 428.660156 673.464844 432.460938 673.644531 436.261719 673.644531 C 438.105469 673.644531 439.945312 673.597656 441.785156 673.527344 C 442.21875 673.5 442.21875 672.863281 441.785156 672.839844 C 439.210938 672.730469 436.648438 672.671875 434.097656 672.601562 C 447.777344 671.792969 461.539062 670.554688 475.21875 668.605469 C 477.597656 668.511719 479.96875 668.390625 482.304688 668.269531 C 482.855469 668.246094 483.132812 667.824219 483.132812 667.40625 C 486.417969 666.875 489.652344 666.238281 492.902344 665.613281 C 494.308594 665.660156 495.703125 665.683594 497.101562 665.683594 C 518.058594 665.683594 538.820312 660.574219 558.707031 653.730469 C 560.136719 653.238281 559.71875 651.265625 558.371094 651.265625 C 558.261719 651.265625 558.152344 651.277344 558.046875 651.300781 C 549.914062 653.046875 541.792969 655.234375 533.671875 657.328125 C 533.875 657.027344 533.886719 656.640625 533.792969 656.292969 C 541.660156 654.417969 549.347656 651.976562 556.613281 648.765625 L 557.09375 648.34375 C 559.367188 648.933594 561.652344 649.207031 563.941406 649.207031 C 573.660156 649.207031 583.332031 644.230469 592.28125 637.21875 C 597.804688 634.644531 603.109375 631.578125 608.136719 628.066406 C 607.441406 629.269531 606.71875 630.460938 606.046875 631.675781 C 605.902344 631.9375 606.128906 632.191406 606.359375 632.191406 C 606.453125 632.191406 606.5625 632.144531 606.636719 632.023438 C 607.695312 630.230469 608.847656 628.5 609.96875 626.746094 C 614.671875 623.316406 619.132812 619.527344 623.320312 615.476562 C 620.902344 620.921875 618.496094 626.371094 615.96875 631.675781 C 615.839844 631.953125 616.066406 632.191406 616.28125 632.191406 C 616.378906 632.191406 616.488281 632.144531 616.546875 632.023438 C 618.460938 628.703125 620.398438 625.386719 622.320312 622.042969 C 620.855469 625.792969 619.578125 629.59375 618.605469 633.464844 L 618.882812 633.539062 C 621.480469 623.773438 626.085938 615.308594 631.355469 607.203125 C 631.597656 606.839844 631.839844 606.480469 632.089844 606.121094 C 634.820312 602.894531 637.421875 599.578125 639.800781 596.1875 C 640.140625 595.703125 640.078125 595.199219 639.8125 594.804688 C 640.597656 593.695312 641.367188 592.589844 642.136719 591.472656 C 647.824219 586.46875 653.15625 581.09375 657.871094 575.09375 C 658.113281 574.792969 657.894531 574.429688 657.605469 574.429688 C 657.523438 574.429688 657.425781 574.453125 657.34375 574.539062 C 654.226562 577.472656 650.988281 580.261719 647.71875 583.003906 C 647.957031 582.621094 648.199219 582.246094 648.425781 581.875 C 648.667969 581.488281 648.609375 581.152344 648.390625 580.925781 C 649.824219 578.507812 651.21875 576.078125 652.578125 573.601562 C 652.734375 573.3125 652.699219 573.035156 652.601562 572.820312 C 658.316406 565.734375 667.628906 554.191406 667.289062 552.566406 C 667.328125 552.6875 667.410156 552.734375 667.496094 552.734375 C 667.640625 552.734375 667.796875 552.617188 667.761719 552.421875 C 667.519531 551.246094 666.976562 550.789062 666.257812 550.789062 C 666.089844 550.789062 665.894531 550.8125 665.703125 550.859375 C 668.035156 547.121094 670.214844 543.269531 672.332031 539.410156 C 669.878906 551.160156 667.207031 562.453125 662.984375 573.457031 C 662.140625 574.898438 661.300781 576.367188 660.445312 577.859375 C 660.242188 578.207031 660.53125 578.617188 660.867188 578.640625 C 658.230469 584.738281 655.042969 590.738281 651.074219 596.691406 C 650.628906 597.339844 651.230469 597.976562 651.84375 597.976562 C 652.046875 597.976562 652.253906 597.90625 652.433594 597.75 C 660.710938 590.304688 666.425781 580.574219 670.417969 569.921875 C 679.441406 557.859375 683.253906 539.351562 685.757812 523.140625 C 686.070312 523.824219 686.695312 524.234375 687.394531 524.390625 C 685.214844 532.507812 682.941406 540.613281 681.210938 548.851562 C 680.992188 549.8125 681.714844 550.402344 682.4375 550.402344 C 682.917969 550.402344 683.410156 550.136719 683.628906 549.523438 C 689.390625 533.445312 696.789062 513.675781 699.195312 494.710938 C 699.964844 492.976562 700.746094 491.246094 701.554688 489.539062 C 702.429688 487.675781 701.371094 485.953125 699.941406 485.28125 C 699.964844 484.140625 699.964844 482.996094 699.941406 481.867188 L 700.3125 481.410156 C 700.230469 476.828125 700.230469 472.257812 700.253906 467.699219 C 700.914062 471.152344 701.671875 474.554688 702.648438 477.847656 C 702.949219 478.917969 703.800781 479.386719 704.667969 479.386719 C 705.96875 479.386719 707.292969 478.316406 706.847656 476.695312 C 703.285156 463.945312 704.175781 450.488281 702.371094 437.5625 C 702.429688 437.058594 702.515625 436.5625 702.574219 436.058594 C 703.863281 440.496094 705.042969 444.96875 706.050781 449.492188 L 706.101562 449.574219 C 706.125 456.324219 706.136719 463.070312 706.195312 469.839844 L 706.59375 469.839844 C 706.726562 463.347656 707.027344 456.839844 707.265625 450.332031 C 707.894531 450.308594 708.507812 449.902344 708.433594 449.167969 C 708.179688 446.59375 707.878906 444.019531 707.542969 441.457031 C 707.652344 435.816406 707.652344 430.179688 707.363281 424.5625 C 708.796875 434.917969 710.324219 445.4375 710.972656 455.78125 C 710.984375 456.023438 711.175781 456.152344 711.355469 456.152344 C 711.550781 456.152344 711.730469 456.035156 711.742188 455.78125 C 712.285156 443.382812 712.621094 431.597656 711.429688 419.199219 C 710.925781 413.882812 710.625 408.171875 709.925781 402.554688 C 710.179688 403.15625 710.429688 403.757812 710.683594 404.359375 C 710.71875 404.464844 710.769531 404.574219 710.816406 404.671875 C 713.738281 410.117188 716.652344 415.566406 719.464844 421.0625 C 721.933594 425.898438 725.277344 431.117188 726.273438 436.527344 C 726.285156 436.601562 726.285156 436.660156 726.285156 436.71875 C 726.300781 437.273438 725.855469 437.644531 725.398438 437.644531 C 725.121094 437.644531 724.84375 437.515625 724.640625 437.214844 C 722.28125 433.714844 720.390625 429.816406 718.539062 425.957031 C 721.125 434.230469 723.183594 442.625 724.519531 451.03125 C 725.457031 454.121094 726.046875 457.25 726.191406 460.351562 C 727.175781 462.816406 728.246094 465.246094 729.460938 467.566406 C 729.5 467.628906 729.511719 467.6875 729.511719 467.746094 C 729.511719 467.964844 729.320312 468.167969 729.113281 468.167969 C 729.03125 468.167969 728.933594 468.132812 728.859375 468.035156 C 727.933594 466.929688 727.140625 465.738281 726.359375 464.488281 C 727.5 469.347656 728.464844 474.265625 729.390625 479.195312 C 731.59375 490.691406 734.875 503.164062 734.875 514.984375 C 734.875 515.359375 734.875 515.742188 734.863281 516.128906 C 734.863281 516.609375 734.480469 516.886719 734.082031 516.886719 C 733.769531 516.886719 733.457031 516.707031 733.347656 516.332031 C 733.203125 515.828125 733.082031 515.308594 732.941406 514.804688 C 733.433594 520.023438 733.804688 525.28125 733.804688 530.488281 C 733.804688 534 733.636719 537.488281 733.242188 540.925781 C 733.214844 541.167969 733.035156 541.300781 732.855469 541.300781 C 732.6875 541.300781 732.507812 541.167969 732.46875 540.925781 C 730.894531 527.949219 730.964844 514.78125 729.605469 501.757812 C 728.765625 493.722656 727.816406 485.679688 726.324219 477.742188 C 725.324219 472.390625 723.4375 466.976562 722.894531 461.566406 L 722.964844 461.542969 L 723.375 462.289062 C 722.703125 459.472656 721.957031 456.671875 721.101562 453.917969 C 719.863281 452.199219 718.71875 450.417969 717.625 448.613281 C 718.058594 450.660156 718.503906 452.714844 718.914062 454.769531 C 720.511719 458.1875 722.003906 461.648438 723.242188 465.199219 C 723.265625 465.234375 723.265625 465.269531 723.265625 465.304688 C 723.265625 465.488281 723.085938 465.605469 722.917969 465.605469 C 722.808594 465.605469 722.714844 465.558594 722.652344 465.449219 C 721.777344 463.851562 720.886719 462.261719 719.996094 460.664062 C 720.535156 463.742188 721.054688 466.84375 721.511719 469.949219 C 722.535156 473.664062 723.375 477.390625 723.375 481.265625 C 723.375 481.3125 723.375 481.359375 723.375 481.410156 L 723.039062 481.816406 C 723.171875 482.984375 723.277344 484.175781 723.375 485.355469 C 723.375 485.246094 723.386719 485.136719 723.386719 485.027344 C 723.386719 484.753906 723.375 484.488281 723.375 484.210938 C 723.375 484.101562 723.375 483.996094 723.375 483.886719 C 723.375 483.371094 723.773438 483.117188 724.167969 483.117188 C 724.566406 483.117188 724.964844 483.371094 724.976562 483.886719 C 725 488.792969 725.121094 493.699219 725.226562 498.59375 C 728.054688 516.597656 730.75 534.625 731.710938 552.855469 C 731.929688 556.980469 733.097656 561.839844 733.109375 566.324219 C 733.109375 567.9375 732.953125 569.511719 732.554688 570.980469 C 732.0625 572.734375 731.148438 573.648438 730.039062 573.648438 C 729.269531 573.648438 728.417969 573.203125 727.550781 572.265625 C 727.464844 572.167969 727.441406 572.050781 727.441406 571.941406 C 727.429688 571.675781 727.632812 571.425781 727.886719 571.425781 C 727.960938 571.425781 728.042969 571.449219 728.140625 571.507812 C 728.632812 571.871094 729.003906 572.027344 729.304688 572.027344 C 730.078125 572.027344 730.246094 570.96875 730.246094 569.824219 C 730.246094 569.089844 730.171875 568.308594 730.160156 567.769531 C 730.113281 564.929688 729.847656 562.105469 729.582031 559.277344 C 729.089844 553.902344 728.847656 548.503906 728.488281 543.101562 C 728.296875 543.199219 728.078125 543.257812 727.863281 543.257812 C 727.5625 543.257812 727.273438 543.152344 727.042969 542.933594 C 727.597656 547.46875 727.984375 552.015625 727.984375 556.464844 C 727.984375 559.167969 727.839844 561.851562 727.515625 564.484375 L 727.476562 564.472656 C 727.464844 564.992188 726.996094 565.304688 726.5625 565.304688 C 726.492188 565.304688 726.40625 565.304688 726.347656 565.277344 C 726.273438 568.332031 726.15625 571.375 725.867188 574.40625 C 725.839844 574.695312 725.625 574.839844 725.410156 574.839844 C 725.203125 574.839844 724.988281 574.695312 724.953125 574.40625 L 724.902344 573.867188 C 724.050781 582.367188 722.535156 589.777344 719.828125 589.777344 C 719.574219 589.777344 719.308594 589.714844 719.03125 589.582031 C 718.914062 589.523438 718.851562 589.414062 718.851562 589.320312 C 718.851562 589.136719 719.019531 588.933594 719.238281 588.933594 C 719.261719 588.933594 719.285156 588.945312 719.308594 588.945312 C 719.332031 588.945312 719.371094 588.957031 719.394531 588.957031 C 721.980469 588.945312 723.085938 568.996094 723.542969 554.25 C 723.351562 550.535156 723.195312 546.820312 723.039062 543.101562 C 721.882812 550.917969 720.210938 558.894531 718.128906 566.949219 C 715.675781 587.082031 712.34375 607.71875 706.195312 627.019531 C 705.945312 629.316406 705.714844 631.613281 705.460938 633.921875 C 705.390625 634.644531 704.777344 635.007812 704.210938 635.007812 C 703.683594 635.007812 703.1875 634.695312 703.175781 634.054688 C 703.175781 634.007812 703.1875 633.960938 703.1875 633.921875 L 703.1875 633.804688 C 703.175781 633.804688 703.164062 633.804688 703.140625 633.804688 C 702.550781 633.804688 701.949219 633.335938 701.949219 632.578125 C 701.949219 632.515625 701.960938 632.445312 701.972656 632.371094 C 702.347656 629.703125 702.515625 627.019531 702.625 624.316406 C 702.238281 626.960938 701.816406 629.605469 701.371094 632.238281 C 699.121094 645.699219 697.089844 659.324219 694.25 672.660156 C 694.128906 673.226562 693.734375 673.476562 693.324219 673.476562 C 692.757812 673.476562 692.15625 673.03125 692.097656 672.347656 L 692.035156 672.359375 C 692.121094 671.300781 692.242188 670.253906 692.363281 669.207031 C 692.554688 666.960938 692.675781 664.710938 692.792969 662.4375 C 692.808594 662.210938 692.976562 662.101562 693.144531 662.101562 C 693.179688 662.101562 693.226562 662.113281 693.277344 662.125 C 694.71875 652.660156 696.886719 643.230469 698.507812 633.863281 C 698.785156 632.253906 699.027344 630.640625 699.292969 629.027344 C 697.234375 638.625 695.175781 648.210938 693.15625 657.820312 C 693.035156 658.445312 692.53125 658.734375 692.011719 658.734375 C 691.339844 658.734375 690.640625 658.265625 690.640625 657.472656 C 690.640625 657.421875 690.640625 657.363281 690.640625 657.300781 C 690.640625 653.742188 690.847656 650.265625 691.160156 646.816406 C 688.402344 656.570312 686.359375 666.394531 684.253906 676.351562 C 684.144531 676.855469 683.710938 677.097656 683.265625 677.097656 C 682.871094 677.097656 682.472656 676.917969 682.292969 676.582031 C 681.402344 681.066406 680.5 685.5625 679.539062 690.0625 C 679.394531 690.699219 678.863281 691 678.308594 691 C 677.648438 691 676.976562 690.566406 676.976562 689.796875 C 676.976562 689.773438 676.976562 689.75 676.976562 689.710938 C 677.238281 685.601562 677.769531 681.546875 678.46875 677.53125 C 678.382812 676.316406 678.347656 675.113281 678.347656 673.898438 C 678.347656 671.671875 678.480469 669.4375 678.707031 667.199219 C 678.308594 668.054688 677.914062 668.90625 677.515625 669.75 C 676.542969 672.46875 675.589844 675.195312 674.628906 677.902344 C 674.953125 677.953125 675.242188 678.214844 675.242188 678.601562 C 675.242188 678.648438 675.242188 678.695312 675.230469 678.734375 C 674.21875 683.902344 671.886719 688.871094 669.058594 693.585938 C 668.011719 696.542969 666.941406 699.503906 665.90625 702.472656 C 665.679688 703.109375 665.1875 703.386719 664.679688 703.386719 C 664.019531 703.386719 663.355469 702.894531 663.355469 702.097656 C 662.742188 702.953125 662.128906 703.785156 661.539062 704.601562 C 660 708.402344 658.4375 712.191406 656.910156 716.027344 C 656.714844 716.496094 656.332031 716.710938 655.945312 716.710938 C 655.453125 716.710938 654.972656 716.363281 654.972656 715.761719 C 654.960938 715.675781 654.972656 715.582031 654.996094 715.496094 C 655.226562 714.378906 655.539062 713.296875 655.863281 712.214844 C 651.183594 718.394531 646.464844 724.527344 642.171875 730.984375 C 642.582031 730.78125 642.964844 730.542969 643.375 730.335938 C 643.421875 730.3125 643.484375 730.289062 643.53125 730.289062 C 643.734375 730.289062 643.902344 730.480469 643.902344 730.660156 C 643.890625 730.769531 643.84375 730.867188 643.722656 730.9375 C 639.140625 733.453125 635.050781 736.519531 631.238281 739.898438 C 631.007812 740.257812 630.78125 740.605469 630.539062 740.957031 C 631.066406 740.679688 631.585938 740.402344 632.152344 740.148438 C 632.210938 740.125 632.28125 740.113281 632.34375 740.113281 C 632.609375 740.113281 632.871094 740.292969 632.871094 740.546875 C 632.871094 740.621094 632.847656 740.703125 632.789062 740.789062 C 628.253906 747.042969 622.949219 752.417969 617.402344 757.5625 C 619.132812 756.625 620.433594 755.988281 620.976562 755.785156 C 621.09375 755.734375 621.214844 755.710938 621.3125 755.710938 C 621.804688 755.710938 622.082031 756.167969 622.070312 756.636719 C 622.070312 756.949219 621.949219 757.261719 621.683594 757.46875 C 611.0625 765.597656 600.425781 774.027344 590.707031 783.191406 C 590.550781 783.335938 590.394531 783.394531 590.238281 783.394531 C 589.863281 783.394531 589.527344 783.058594 589.527344 782.699219 C 589.527344 782.542969 589.589844 782.375 589.734375 782.230469 C 591.8125 780.015625 593.941406 777.828125 596.058594 775.652344 L 595.902344 775.769531 L 595.542969 775.785156 C 592.921875 778.632812 590.320312 781.386719 587.796875 784.007812 C 587.796875 784.007812 496.789062 806.535156 419.53125 806.535156 M 601.269531 772.957031 C 606.527344 768.6875 611.675781 764.3125 616.609375 759.703125 C 615.40625 760.28125 614.226562 760.90625 613.035156 761.542969 C 610.699219 763.625 608.367188 765.71875 606.035156 767.820312 L 605.78125 768.507812 C 604.265625 770 602.773438 771.476562 601.269531 772.957031 M 198.691406 762.808594 C 198.378906 761.015625 198.054688 759.210938 197.695312 757.417969 C 195.925781 755.449219 194.167969 753.425781 192.386719 751.394531 C 191.703125 751.007812 191.015625 750.625 190.308594 750.253906 L 190.246094 750.480469 C 192.027344 755.171875 195.132812 759.273438 198.691406 762.808594 M 613.035156 760.003906 C 613.816406 759.546875 614.585938 759.117188 615.308594 758.707031 C 616.523438 757.613281 617.726562 756.519531 618.90625 755.386719 C 621.359375 753.019531 623.8125 750.613281 626.050781 748.039062 C 626.664062 747.328125 631.042969 742.929688 631.03125 742.277344 C 631.03125 742.230469 631.007812 742.207031 630.949219 742.207031 C 630.765625 742.207031 630.285156 742.460938 629.394531 743.074219 L 628.648438 743.648438 C 624.164062 749.699219 618.738281 754.992188 613.035156 760.003906 M 615.117188 754.582031 L 615.25 754.472656 C 617.28125 751.816406 619.472656 749.300781 621.902344 747.042969 C 623.285156 745.550781 624.726562 744.117188 626.183594 742.722656 C 625.894531 742.6875 625.617188 742.519531 625.425781 742.253906 C 623.824219 743.988281 622.226562 745.742188 620.675781 747.523438 C 618.820312 749.867188 616.957031 752.222656 615.117188 754.582031 M 167.050781 727.234375 C 172.996094 735.761719 179.300781 744.046875 187.457031 750.457031 L 187.695312 749.652344 L 187.574219 749.242188 C 187.394531 749.324219 187.191406 749.375 187 749.375 C 186.6875 749.375 186.375 749.253906 186.132812 748.953125 C 182.367188 744.492188 178.769531 739.96875 176.097656 734.992188 L 175.339844 734.257812 C 172.429688 732.238281 169.746094 729.757812 167.292969 727.476562 L 167.050781 727.234375 M 627.300781 741.675781 C 628.78125 740.304688 630.285156 738.984375 631.863281 737.722656 C 636.53125 732.117188 640.910156 726.175781 644.925781 719.980469 C 644.890625 719.996094 644.84375 719.996094 644.804688 719.996094 C 644.53125 719.996094 644.277344 719.730469 644.277344 719.429688 C 644.277344 719.355469 644.289062 719.285156 644.324219 719.210938 L 644.503906 718.875 L 644.410156 718.960938 C 640.320312 726.128906 634.773438 732.273438 629.105469 738.335938 C 628.480469 739.441406 627.890625 740.558594 627.300781 741.675781 M 635.941406 734.726562 C 637.539062 733.644531 639.1875 732.644531 640.910156 731.683594 C 640.378906 731.601562 639.921875 731.179688 639.921875 730.648438 C 639.921875 730.46875 639.984375 730.277344 640.101562 730.074219 C 640.632812 729.253906 641.199219 728.460938 641.726562 727.65625 C 639.886719 730.074219 637.960938 732.429688 635.941406 734.726562 M 161.6875 723.6875 C 160.410156 721.75 159.125 719.824219 157.835938 717.902344 C 155.492188 715.375 153.21875 712.789062 151.015625 710.144531 C 148.816406 707.464844 146.421875 704.671875 144.0625 701.800781 C 147.300781 706.753906 150.765625 711.601562 154.613281 716.097656 C 156.695312 718.527344 158.824219 720.933594 161.121094 723.15625 L 161.6875 723.6875 M 650.339844 715.460938 C 651.976562 713.222656 653.625 710.976562 655.261719 708.726562 L 655.09375 708.316406 L 655.082031 708.316406 C 655.082031 708.039062 655.105469 707.75 655.117188 707.476562 L 654.910156 707.703125 C 653.601562 710.050781 652.230469 712.359375 650.808594 714.628906 L 650.339844 715.460938 M 649.003906 708.066406 C 649.390625 707.738281 649.738281 707.402344 650.125 707.089844 C 650.84375 706.117188 651.589844 705.152344 652.324219 704.191406 C 652.914062 702.976562 653.503906 701.761719 654.117188 700.558594 C 652.433594 703.097656 650.714844 705.574219 649.003906 708.066406 M 657.644531 705.417969 L 658.050781 704.855469 C 658.292969 704.515625 658.507812 704.191406 658.738281 703.855469 C 659.542969 701.570312 660.398438 699.296875 661.289062 697.046875 C 660.914062 697.492188 660.53125 697.949219 660.144531 698.40625 C 659.710938 699.152344 659.289062 699.921875 658.859375 700.667969 C 658.472656 702.257812 658.0625 703.84375 657.644531 705.417969 M 136.449219 694.859375 C 137.121094 695.820312 137.785156 696.808594 138.398438 697.816406 C 138.410156 697.675781 138.410156 697.519531 138.410156 697.375 C 138.410156 697.230469 138.410156 697.097656 138.398438 696.953125 C 138.046875 696.328125 137.6875 695.714844 137.324219 695.113281 C 131.925781 685.742188 126.96875 675.882812 123.492188 665.578125 C 121.820312 662.75 120.316406 659.730469 119.0625 656.605469 L 119.148438 657.050781 C 120.0625 659.597656 120.976562 662.148438 121.925781 664.6875 C 124.585938 671.746094 127.351562 678.816406 130.878906 685.492188 C 131.117188 685.925781 131.359375 686.332031 131.585938 686.765625 C 133.210938 689.351562 134.847656 691.9375 136.496094 694.523438 L 136.449219 694.859375 M 133.210938 697.816406 C 131.035156 693.667969 129.0625 689.410156 127.183594 685.128906 C 126.078125 683.160156 125.078125 681.125 124.105469 679.058594 C 123.671875 679.40625 123.238281 679.597656 122.816406 679.660156 C 123.324219 680.800781 123.863281 681.933594 124.429688 683.050781 C 127.039062 688.234375 129.890625 693.222656 133.210938 697.816406 M 141.800781 693.695312 C 138.683594 687.835938 135.835938 681.824219 133.140625 675.8125 C 132.984375 675.449219 132.828125 675.101562 132.671875 674.753906 C 132.308594 674.164062 131.9375 673.550781 131.585938 672.960938 C 131.683594 673.527344 131.816406 674.078125 131.914062 674.65625 C 131.925781 674.703125 131.925781 674.742188 131.925781 674.789062 C 131.925781 675.171875 131.613281 675.511719 131.25 675.511719 C 131.105469 675.511719 130.9375 675.449219 130.804688 675.304688 C 129.808594 674.285156 128.820312 673.152344 127.882812 671.972656 C 129.144531 675.003906 130.554688 677.988281 132.019531 680.921875 C 135.472656 685.023438 138.648438 689.339844 141.800781 693.695312 M 664.992188 683.628906 C 665.367188 683.722656 665.703125 683.941406 665.835938 684.265625 C 666.460938 683.484375 667.0625 682.691406 667.710938 681.945312 L 667.867188 681.644531 C 670.105469 676.785156 672.476562 671.984375 674.882812 667.222656 C 671.683594 672.769531 668.375 678.226562 664.992188 683.628906 M 123.382812 677.457031 C 123.011719 676.605469 122.671875 675.738281 122.300781 674.882812 C 121.097656 672.984375 119.871094 671.085938 118.703125 669.171875 L 118.882812 669.859375 C 119.59375 671.792969 120.328125 673.730469 121.097656 675.640625 C 121.746094 676.699219 122.503906 677.421875 123.382812 677.457031 M 123.539062 659.914062 C 124.152344 661.980469 124.828125 664.011719 125.5625 666.046875 C 126.355469 667.390625 127.171875 668.714844 128.109375 669.964844 C 128.976562 671.144531 129.976562 673.214844 130.289062 673.214844 C 130.347656 673.214844 130.371094 673.128906 130.371094 672.949219 C 130.371094 672.660156 130.289062 672.09375 130.097656 671.191406 C 130.011719 670.84375 129.941406 670.496094 129.855469 670.144531 C 128.316406 667.65625 126.800781 665.203125 125.285156 662.667969 C 124.695312 661.753906 124.117188 660.824219 123.539062 659.914062 M 118.761719 665.996094 C 118.59375 665.5625 118.425781 665.15625 118.269531 664.722656 C 117.992188 664.578125 117.765625 664.351562 117.65625 664.011719 C 116.789062 661.257812 115.863281 658.542969 114.949219 655.8125 C 113.144531 651.023438 111.328125 646.261719 109.417969 641.523438 C 110.738281 645.527344 111.894531 649.582031 112.722656 653.621094 C 113 654.285156 113.265625 654.945312 113.53125 655.59375 C 114.46875 657.640625 115.394531 659.683594 116.238281 661.753906 C 117.066406 663.171875 117.910156 664.589844 118.761719 665.996094 M 690.375 638.457031 L 690.160156 638.890625 C 689.367188 641.800781 688.632812 644.710938 687.945312 647.644531 C 688.246094 646.5625 688.511719 645.492188 688.8125 644.433594 C 689.015625 643.726562 689.210938 643.027344 689.425781 642.328125 C 689.101562 643.652344 688.800781 644.976562 688.5 646.296875 C 689.789062 642.066406 691.230469 637.867188 692.746094 633.695312 C 692.144531 634.945312 691.507812 636.183594 690.882812 637.433594 C 690.390625 639.070312 689.90625 640.707031 689.425781 642.328125 C 689.726562 641.042969 690.0625 639.746094 690.375 638.457031 M 692.613281 645.503906 C 693.15625 642.5 693.769531 639.503906 694.382812 636.507812 C 693.914062 637.890625 693.433594 639.25 692.988281 640.632812 C 692.820312 642.246094 692.675781 643.871094 692.613281 645.503906 M 106.972656 640.71875 C 105.710938 637.195312 104.351562 633.742188 103.101562 630.363281 C 101.777344 626.816406 100.40625 623.292969 98.960938 619.769531 C 101.441406 626.828125 104.085938 633.804688 106.972656 640.71875 M 640.210938 600.046875 C 640.089844 600.046875 639.984375 600.105469 639.898438 600.238281 C 634.773438 610.148438 630.019531 620.273438 626.640625 630.917969 C 626.542969 631.207031 626.785156 631.398438 627.015625 631.398438 C 627.171875 631.398438 627.328125 631.3125 627.386719 631.132812 C 630.792969 620.515625 635.746094 610.640625 640.570312 600.636719 C 640.714844 600.335938 640.464844 600.046875 640.210938 600.046875 M 703.238281 620.046875 L 703.394531 620.273438 C 703.429688 621.40625 703.476562 622.535156 703.527344 623.652344 C 703.632812 621.730469 703.765625 619.78125 703.910156 617.84375 C 703.933594 616.59375 703.957031 615.332031 704.007812 614.082031 L 704.246094 613.804688 C 704.34375 612.636719 704.476562 611.484375 704.585938 610.328125 L 704.296875 611.027344 C 703.984375 614.042969 703.644531 617.039062 703.238281 620.046875 M 94.4375 618.566406 L 94.257812 617.773438 C 93.921875 616.367188 93.621094 614.945312 93.285156 613.539062 C 91.167969 609.992188 89.277344 606.289062 87.605469 602.425781 C 87.691406 603.414062 87.75 604.410156 87.785156 605.398438 L 87.773438 605.421875 C 89.902344 609.871094 92.199219 614.199219 94.4375 618.566406 M 708.84375 601.511719 C 709.757812 597.269531 710.683594 593.035156 711.515625 588.777344 C 710.898438 590.570312 710.25 592.363281 709.601562 594.152344 C 709.347656 596.605469 709.097656 599.058594 708.84375 601.511719 M 82.410156 590.714844 C 82.046875 588.777344 81.664062 586.839844 81.289062 584.90625 C 81.179688 584.53125 81.074219 584.160156 80.953125 583.785156 C 81.050781 584.941406 81.121094 586.109375 81.121094 587.25 C 81.554688 588.40625 81.976562 589.558594 82.410156 590.714844 M 185.496094 579.769531 C 185.398438 579.085938 184.75 578.796875 184.652344 578.121094 L 184.570312 578.121094 C 184.640625 578.808594 185.300781 579.097656 185.398438 579.769531 L 185.496094 579.769531 M 74.949219 570.617188 C 74.578125 567.660156 74.371094 564.675781 74.371094 561.695312 C 74.371094 561.324219 74.371094 560.960938 74.382812 560.589844 C 73.914062 558.976562 73.445312 557.378906 72.964844 555.800781 L 72.988281 555.789062 C 73.457031 557.28125 73.925781 558.761719 74.394531 560.253906 C 74.410156 559.769531 74.445312 559.300781 74.480469 558.820312 C 74.023438 557.714844 73.589844 556.597656 73.097656 555.515625 C 72.710938 554.671875 72.304688 553.84375 71.90625 553 C 72.277344 556.742188 72.605469 560.539062 72.734375 564.316406 C 73.351562 566.167969 73.988281 568.007812 74.660156 569.835938 L 74.949219 570.617188 M 74.132812 553.746094 C 73.722656 550.957031 73.300781 548.164062 72.90625 545.363281 C 71.136719 535.960938 70.136719 526.734375 70.136719 517.824219 C 70.136719 515.730469 70.160156 513.652344 70.210938 511.570312 C 69.8125 519.121094 69.8125 526.6875 69.8125 534.277344 C 69.8125 534.457031 69.8125 534.636719 69.8125 534.816406 C 70.28125 538.292969 70.714844 541.78125 71.074219 545.265625 C 71.195312 546.480469 71.339844 547.734375 71.460938 548.972656 C 72.398438 550.535156 73.277344 552.121094 74.132812 553.746094 M 66.300781 513.039062 L 66.445312 513.386719 C 66.9375 516.152344 67.40625 518.917969 67.863281 521.683594 C 67.925781 516.476562 68.117188 511.28125 68.597656 506.109375 L 68.574219 506.015625 L 68.644531 505.570312 C 69.234375 499.207031 70.210938 492.882812 71.703125 486.605469 C 72.171875 481.625 72.710938 476.660156 73.398438 471.738281 C 72.328125 474.664062 71.195312 477.546875 70.015625 480.363281 C 68.140625 491.136719 67.058594 502.070312 66.300781 513.039062 M 719.695312 449.792969 C 719.429688 449.082031 719.1875 448.359375 718.898438 447.652344 C 717.925781 445.175781 716.84375 442.695312 715.699219 440.207031 C 715.941406 441.207031 716.179688 442.214844 716.421875 443.226562 C 717.371094 445.210938 718.347656 447.195312 719.371094 449.144531 C 719.429688 449.238281 719.550781 449.480469 719.695312 449.792969 M 74.167969 433.28125 C 76.730469 427.832031 79.28125 422.398438 81.832031 416.960938 C 82.503906 413.066406 83.453125 409.191406 84.597656 405.367188 C 82.710938 408.890625 80.796875 412.402344 78.800781 415.867188 C 77.042969 421.589844 75.515625 427.425781 74.167969 433.28125 M 79.390625 414.003906 C 81.554688 409.769531 83.71875 405.488281 85.921875 401.242188 C 87.714844 396 89.84375 390.839844 92.152344 385.824219 C 92.140625 385.632812 92.140625 385.453125 92.140625 385.261719 C 92.140625 384.597656 92.1875 383.925781 92.261719 383.265625 C 87.050781 392.945312 82.78125 403.289062 79.390625 414.003906 M 112.628906 404.226562 C 112.542969 404.226562 112.460938 404.273438 112.410156 404.382812 C 111.953125 405.453125 110.847656 407.402344 111.304688 408.589844 C 111.460938 408.988281 111.652344 409.15625 111.859375 409.15625 C 112.675781 409.15625 113.746094 406.582031 113.878906 406.28125 C 113.988281 406.003906 113.734375 405.8125 113.496094 405.8125 C 113.363281 405.8125 113.242188 405.859375 113.15625 405.980469 C 112.964844 406.316406 112.761719 406.65625 112.554688 406.980469 C 112.640625 406.171875 112.773438 405.378906 112.953125 404.597656 C 112.988281 404.40625 112.808594 404.226562 112.628906 404.226562 M 90.625 397.996094 C 91.769531 395.484375 92.886719 392.957031 94.015625 390.445312 L 93.789062 389.832031 C 92.5625 392.621094 91.503906 395.445312 90.625 397.996094 M 100.488281 371.128906 C 100.957031 371.285156 101.355469 371.742188 101.417969 372.308594 C 102.210938 370.804688 103.015625 369.3125 103.894531 367.871094 C 104.074219 367.558594 104.253906 367.292969 104.4375 367.003906 C 104.027344 367.390625 103.570312 367.738281 103.171875 368.148438 C 102.234375 369.121094 101.34375 370.121094 100.488281 371.128906"/></g><path fill="#2B1717" d="M 555.011719 646.359375 L 554.582031 646.359375 C 558.441406 645.082031 562.21875 643.496094 565.863281 641.632812 C 566.648438 641.753906 567.441406 641.800781 568.257812 641.800781 C 571.808594 641.800781 575.597656 640.777344 579.507812 639.023438 C 577.027344 640.574219 574.441406 641.945312 571.757812 643.050781 C 570.328125 643.386719 568.859375 643.6875 567.378906 643.929688 C 567.019531 643.976562 567.089844 644.578125 567.441406 644.578125 C 564.011719 645.613281 560.402344 646.238281 556.578125 646.359375 C 556.371094 646.226562 556.144531 646.140625 555.890625 646.140625 C 555.769531 646.140625 555.652344 646.167969 555.519531 646.203125 L 555.011719 646.359375"/><path fill="#2B1717" d="M 570.027344 639.371094 C 572.6875 637.832031 575.285156 636.160156 577.796875 634.355469 C 580.265625 633.273438 582.695312 632.132812 585.089844 630.882812 C 586.640625 630.375 588.15625 629.859375 589.671875 629.34375 C 582.933594 634.523438 576.164062 638.363281 570.027344 639.371094"/><path fill="#2B1717" d="M 677.035156 542.957031 C 677.804688 537.667969 678.308594 532.410156 678.648438 527.324219 C 679.042969 526.566406 679.429688 525.796875 679.8125 525.027344 L 680.078125 524.570312 C 679.742188 525.449219 679.40625 526.328125 679.042969 527.226562 L 679.09375 527.242188 C 678.863281 528.203125 679.464844 529.019531 680.234375 529.332031 C 679.40625 533.335938 678.539062 537.332031 677.527344 541.285156 C 677.382812 541.851562 677.203125 542.394531 677.035156 542.957031"/><path fill="#2B1717" d="M 639.609375 581.261719 C 641.703125 578.121094 643.6875 574.828125 645.578125 571.328125 C 649.871094 563.4375 655.824219 556.535156 661.792969 549.632812 L 661.683594 549.835938 C 660.949219 551.148438 661.769531 552.316406 662.863281 552.664062 C 659.566406 555.574219 655.789062 560.878906 655.25 561.574219 C 650.074219 568.382812 644.914062 574.9375 639.609375 581.261719"/><path fill="#2B1717" d="M 502.199219 663.640625 C 504.257812 663.171875 506.328125 662.75 508.382812 662.246094 C 513.847656 661.558594 519.257812 660.644531 524.589844 659.585938 C 517.179688 661.34375 509.71875 662.824219 502.199219 663.640625"/><path fill="#211110" d="M 185.496094 579.769531 L 185.398438 579.769531 C 185.300781 579.097656 184.640625 578.808594 184.570312 578.121094 L 184.652344 578.121094 C 184.75 578.796875 185.398438 579.085938 185.496094 579.769531"/><path fill="#C29F63" d="M 289.457031 686.703125 C 286.128906 686.703125 282.800781 685.433594 280.257812 682.894531 L 181.367188 584 L 280.257812 485.105469 C 285.339844 480.023438 293.574219 480.023438 298.652344 485.105469 C 303.730469 490.179688 303.730469 498.414062 298.652344 503.496094 L 218.152344 584 L 298.652344 664.503906 C 303.730469 669.582031 303.730469 677.816406 298.652344 682.894531 C 296.113281 685.433594 292.785156 686.703125 289.457031 686.703125"/><path fill="#C29F63" d="M 502.75 686.703125 C 499.421875 686.703125 496.09375 685.433594 493.550781 682.894531 C 488.476562 677.816406 488.476562 669.582031 493.550781 664.503906 L 574.050781 584 L 493.550781 503.496094 C 488.476562 498.414062 488.476562 490.179688 493.550781 485.105469 C 498.632812 480.023438 506.867188 480.023438 511.945312 485.105469 L 610.835938 584 L 511.945312 682.894531 C 509.40625 685.433594 506.078125 686.703125 502.75 686.703125"/><g clip-path="url(#c)"><path fill="#C29F63" d="M 337.757812 761.273438 C 336.144531 761.273438 334.5 760.972656 332.914062 760.332031 C 326.246094 757.65625 323.015625 750.082031 325.695312 743.417969 L 457.742188 414.882812 C 460.425781 408.214844 467.996094 404.984375 474.664062 407.664062 C 481.328125 410.34375 484.558594 417.917969 481.875 424.582031 L 349.828125 753.117188 C 347.785156 758.195312 342.910156 761.273438 337.757812 761.273438"/></g></svg>