<svg xmlns="http://www.w3.org/2000/svg" width="1620" viewBox="0 0 1620 1080" height="1080" version="1.0"><defs><clipPath id="a"><path d="M 0 85 L 1620 85 L 1620 1004 L 0 1004 Z M 0 85"/></clipPath><clipPath id="b"><path d="M 1933.6875 506.917969 C 1925.082031 412.074219 1863.015625 328.292969 1784.96875 273.597656 C 1706.921875 218.90625 1614.332031 189.613281 1522.152344 166.054688 C 1257.289062 98.660156 981.769531 73.261719 708.917969 91.082031 C 537.460938 93.128906 504.480469 116.484375 336.917969 152.535156 C 235.109375 174.25 129.613281 205.179688 57.101562 279.746094 C -90.796875 431.945312 -26.273438 705.414062 138.015625 839.585938 C 302.300781 973.757812 528.039062 1000.800781 740.257812 1003.460938 C 997.132812 1006.738281 1255.445312 981.75 1504.125 916.8125 C 1608.597656 889.566406 1713.683594 853.925781 1798.078125 786.734375 C 1882.269531 719.34375 1943.3125 614.460938 1933.6875 506.917969 Z M 1933.6875 506.917969"/></clipPath><clipPath id="c"><path d="M 0 0 L 1620 0 L 1620 800 L 0 800 Z M 0 0"/></clipPath><clipPath id="d"><path d="M 2077.410156 253.09375 C 2067.957031 148.878906 1999.757812 56.820312 1914 -3.277344 C 1828.242188 -63.375 1726.503906 -95.5625 1625.214844 -121.449219 C 1334.179688 -195.5 1031.441406 -223.410156 731.628906 -203.828125 C 543.230469 -201.578125 506.992188 -175.917969 322.875 -136.304688 C 211.007812 -112.445312 95.085938 -78.457031 15.40625 3.472656 C -147.105469 170.710938 -76.203125 471.199219 104.316406 618.632812 C 284.835938 766.0625 532.878906 795.773438 766.066406 798.699219 C 1048.324219 802.300781 1332.15625 774.839844 1605.410156 703.488281 C 1720.203125 673.550781 1835.671875 634.386719 1928.40625 560.558594 C 2020.914062 486.507812 2087.992188 371.261719 2077.410156 253.09375 Z M 2077.410156 253.09375"/></clipPath><clipPath id="e"><path d="M 0 0 L 1620 0 L 1620 373 L 0 373 Z M 0 0"/></clipPath><clipPath id="f"><path d="M -455.492188 -946.0625 L 2474.53125 -1149.847656 L 2572.007812 251.722656 L -358.011719 455.507812 Z M -455.492188 -946.0625"/></clipPath><clipPath id="g"><path d="M 2508.007812 -468.164062 C 2486.109375 -603.917969 2388.3125 -718.382812 2270.414062 -789.347656 C 2152.511719 -860.308594 2016.207031 -893.230469 1881.066406 -917.925781 C 1492.792969 -988.46875 1093.382812 -997.453125 702.136719 -944.449219 C 455.371094 -924.320312 410.203125 -887.378906 172.449219 -818.660156 C 27.976562 -777.183594 -120.886719 -722.058594 -217.867188 -607.390625 C -415.660156 -373.335938 -295.316406 14.113281 -45.230469 190.925781 C 204.855469 367.734375 532.730469 384.066406 838.6875 366.644531 C 1209.03125 345.628906 1578.605469 283.753906 1930.3125 165.300781 C 2078.070312 115.59375 2225.867188 53.722656 2340.703125 -51.515625 C 2455.226562 -157.027344 2532.648438 -314.214844 2508.007812 -468.164062 Z M 2508.007812 -468.164062"/></clipPath></defs><path fill="#FFF" d="M-162 -108H1782V1188H-162z"/><path fill="#FFF" d="M-162 -108H1782V1188H-162z"/><path fill="#FFDDD4" d="M-162 -108H1782V1188H-162z"/><g clip-path="url(#a)"><g clip-path="url(#b)"><path fill="#FFDDD4" d="M -90.796875 73.261719 L 1943.3125 73.261719 L 1943.3125 1007.355469 L -90.796875 1007.355469 Z M -90.796875 73.261719"/></g></g><g clip-path="url(#c)"><g clip-path="url(#d)"><path fill="#FFE9E2" d="M -147.105469 -223.410156 L 2087.992188 -223.410156 L 2087.992188 802.976562 L -147.105469 802.976562 Z M -147.105469 -223.410156"/></g></g><g clip-path="url(#e)"><g clip-path="url(#f)"><g clip-path="url(#g)"><path fill="#FFF6F7" d="M -451.59375 -890 L 2478.429688 -1093.785156 L 2572.007812 251.722656 L -358.011719 455.507812 Z M -451.59375 -890"/></g></g></g></svg>